<mxfile host="Electron" agent="Mozilla/5.0 (Windows NT 10.0; Win64; x64) AppleWebKit/537.36 (KHTML, like Gecko) draw.io/24.7.8 Chrome/128.0.6613.36 Electron/32.0.1 Safari/537.36" version="24.7.8" pages="2">
  <diagram id="R2lEEEUBdFMjLlhIrx00" name="Diagrama_ER_Grupo_C">
    <mxGraphModel dx="3240" dy="2507" grid="1" gridSize="10" guides="1" tooltips="1" connect="1" arrows="1" fold="1" page="1" pageScale="1" pageWidth="850" pageHeight="1100" math="0" shadow="0" extFonts="Permanent Marker^https://fonts.googleapis.com/css?family=Permanent+Marker">
      <root>
        <mxCell id="0" />
        <mxCell id="1" parent="0" />
        <mxCell id="XjzMZ7Z7NHH9gjmUYC3X-1" value="role_permiso" style="whiteSpace=wrap;html=1;align=center;" vertex="1" parent="1">
          <mxGeometry x="250" y="-100" width="140" height="80" as="geometry" />
        </mxCell>
        <mxCell id="XjzMZ7Z7NHH9gjmUYC3X-2" value="id_rol" style="ellipse;whiteSpace=wrap;html=1;align=center;fontStyle=4;" vertex="1" parent="1">
          <mxGeometry x="150" y="-170" width="100" height="40" as="geometry" />
        </mxCell>
        <mxCell id="XjzMZ7Z7NHH9gjmUYC3X-3" value="" style="endArrow=none;html=1;rounded=0;entryX=0.71;entryY=1;entryDx=0;entryDy=0;exitX=0;exitY=0;exitDx=0;exitDy=0;entryPerimeter=0;" edge="1" parent="1" source="XjzMZ7Z7NHH9gjmUYC3X-1" target="XjzMZ7Z7NHH9gjmUYC3X-2">
          <mxGeometry width="50" height="50" relative="1" as="geometry">
            <mxPoint x="490" y="160" as="sourcePoint" />
            <mxPoint x="540" y="110" as="targetPoint" />
          </mxGeometry>
        </mxCell>
        <mxCell id="XjzMZ7Z7NHH9gjmUYC3X-4" value="" style="endArrow=none;html=1;rounded=0;entryX=0.37;entryY=0.925;entryDx=0;entryDy=0;entryPerimeter=0;exitX=1;exitY=0.25;exitDx=0;exitDy=0;" edge="1" parent="1" source="XjzMZ7Z7NHH9gjmUYC3X-1" target="XjzMZ7Z7NHH9gjmUYC3X-43">
          <mxGeometry width="50" height="50" relative="1" as="geometry">
            <mxPoint x="490" y="160" as="sourcePoint" />
            <mxPoint x="400" y="-122" as="targetPoint" />
          </mxGeometry>
        </mxCell>
        <mxCell id="XjzMZ7Z7NHH9gjmUYC3X-5" value="equipos" style="whiteSpace=wrap;html=1;align=center;" vertex="1" parent="1">
          <mxGeometry x="410" y="700" width="130" height="80" as="geometry" />
        </mxCell>
        <mxCell id="XjzMZ7Z7NHH9gjmUYC3X-6" value="id_equipo" style="ellipse;whiteSpace=wrap;html=1;align=center;fontStyle=4;" vertex="1" parent="1">
          <mxGeometry x="560" y="660" width="100" height="40" as="geometry" />
        </mxCell>
        <mxCell id="XjzMZ7Z7NHH9gjmUYC3X-7" value="nombre" style="ellipse;whiteSpace=wrap;html=1;align=center;" vertex="1" parent="1">
          <mxGeometry x="420" y="630" width="100" height="40" as="geometry" />
        </mxCell>
        <mxCell id="XjzMZ7Z7NHH9gjmUYC3X-8" value="id_colegio" style="ellipse;whiteSpace=wrap;html=1;align=center;" vertex="1" parent="1">
          <mxGeometry x="590" y="710" width="100" height="40" as="geometry" />
        </mxCell>
        <mxCell id="XjzMZ7Z7NHH9gjmUYC3X-9" value="fecha_creacion" style="ellipse;whiteSpace=wrap;html=1;align=center;" vertex="1" parent="1">
          <mxGeometry x="280" y="740" width="100" height="40" as="geometry" />
        </mxCell>
        <mxCell id="XjzMZ7Z7NHH9gjmUYC3X-10" value="" style="endArrow=none;html=1;rounded=0;entryX=0.992;entryY=0.163;entryDx=0;entryDy=0;entryPerimeter=0;exitX=0;exitY=1;exitDx=0;exitDy=0;" edge="1" parent="1" source="XjzMZ7Z7NHH9gjmUYC3X-6" target="XjzMZ7Z7NHH9gjmUYC3X-5">
          <mxGeometry width="50" height="50" relative="1" as="geometry">
            <mxPoint x="590" y="740" as="sourcePoint" />
            <mxPoint x="640" y="690" as="targetPoint" />
          </mxGeometry>
        </mxCell>
        <mxCell id="XjzMZ7Z7NHH9gjmUYC3X-11" value="" style="endArrow=none;html=1;rounded=0;entryX=1;entryY=0.5;entryDx=0;entryDy=0;exitX=0;exitY=0.5;exitDx=0;exitDy=0;" edge="1" parent="1" source="XjzMZ7Z7NHH9gjmUYC3X-8" target="XjzMZ7Z7NHH9gjmUYC3X-5">
          <mxGeometry width="50" height="50" relative="1" as="geometry">
            <mxPoint x="590" y="740" as="sourcePoint" />
            <mxPoint x="640" y="690" as="targetPoint" />
          </mxGeometry>
        </mxCell>
        <mxCell id="XjzMZ7Z7NHH9gjmUYC3X-12" value="" style="endArrow=none;html=1;rounded=0;entryX=1;entryY=0.75;entryDx=0;entryDy=0;exitX=0;exitY=0;exitDx=0;exitDy=0;" edge="1" parent="1" source="XjzMZ7Z7NHH9gjmUYC3X-42" target="XjzMZ7Z7NHH9gjmUYC3X-5">
          <mxGeometry width="50" height="50" relative="1" as="geometry">
            <mxPoint x="602" y="783" as="sourcePoint" />
            <mxPoint x="550" y="750" as="targetPoint" />
          </mxGeometry>
        </mxCell>
        <mxCell id="XjzMZ7Z7NHH9gjmUYC3X-13" value="" style="endArrow=none;html=1;rounded=0;entryX=0;entryY=0.75;entryDx=0;entryDy=0;exitX=1;exitY=0.5;exitDx=0;exitDy=0;" edge="1" parent="1" source="XjzMZ7Z7NHH9gjmUYC3X-9" target="XjzMZ7Z7NHH9gjmUYC3X-5">
          <mxGeometry width="50" height="50" relative="1" as="geometry">
            <mxPoint x="610" y="750" as="sourcePoint" />
            <mxPoint x="560" y="760" as="targetPoint" />
          </mxGeometry>
        </mxCell>
        <mxCell id="XjzMZ7Z7NHH9gjmUYC3X-14" value="" style="endArrow=none;html=1;rounded=0;entryX=-0.015;entryY=0.1;entryDx=0;entryDy=0;exitX=0.97;exitY=0.7;exitDx=0;exitDy=0;exitPerimeter=0;entryPerimeter=0;" edge="1" parent="1" source="XjzMZ7Z7NHH9gjmUYC3X-41" target="XjzMZ7Z7NHH9gjmUYC3X-5">
          <mxGeometry width="50" height="50" relative="1" as="geometry">
            <mxPoint x="376" y="693" as="sourcePoint" />
            <mxPoint x="570" y="770" as="targetPoint" />
          </mxGeometry>
        </mxCell>
        <mxCell id="XjzMZ7Z7NHH9gjmUYC3X-15" value="" style="endArrow=none;html=1;rounded=0;entryX=0.5;entryY=0;entryDx=0;entryDy=0;exitX=0.5;exitY=1;exitDx=0;exitDy=0;" edge="1" parent="1" source="XjzMZ7Z7NHH9gjmUYC3X-7" target="XjzMZ7Z7NHH9gjmUYC3X-5">
          <mxGeometry width="50" height="50" relative="1" as="geometry">
            <mxPoint x="630" y="770" as="sourcePoint" />
            <mxPoint x="580" y="780" as="targetPoint" />
          </mxGeometry>
        </mxCell>
        <mxCell id="XjzMZ7Z7NHH9gjmUYC3X-16" value="roles" style="whiteSpace=wrap;html=1;align=center;" vertex="1" parent="1">
          <mxGeometry x="670" y="345" width="100" height="40" as="geometry" />
        </mxCell>
        <mxCell id="XjzMZ7Z7NHH9gjmUYC3X-17" value="id_rol" style="ellipse;whiteSpace=wrap;html=1;align=center;fontStyle=4;" vertex="1" parent="1">
          <mxGeometry x="650" y="260" width="100" height="40" as="geometry" />
        </mxCell>
        <mxCell id="XjzMZ7Z7NHH9gjmUYC3X-18" value="nombre_rol" style="ellipse;whiteSpace=wrap;html=1;align=center;" vertex="1" parent="1">
          <mxGeometry x="800" y="385" width="100" height="40" as="geometry" />
        </mxCell>
        <mxCell id="XjzMZ7Z7NHH9gjmUYC3X-19" value="fecha_creacion" style="ellipse;whiteSpace=wrap;html=1;align=center;" vertex="1" parent="1">
          <mxGeometry x="640" y="415" width="100" height="40" as="geometry" />
        </mxCell>
        <mxCell id="XjzMZ7Z7NHH9gjmUYC3X-20" value="" style="endArrow=none;html=1;rounded=0;entryX=0.5;entryY=1;entryDx=0;entryDy=0;exitX=0.75;exitY=0;exitDx=0;exitDy=0;" edge="1" parent="1" source="XjzMZ7Z7NHH9gjmUYC3X-16" target="XjzMZ7Z7NHH9gjmUYC3X-17">
          <mxGeometry width="50" height="50" relative="1" as="geometry">
            <mxPoint x="1030" y="325" as="sourcePoint" />
            <mxPoint x="1080" y="275" as="targetPoint" />
          </mxGeometry>
        </mxCell>
        <mxCell id="XjzMZ7Z7NHH9gjmUYC3X-21" value="" style="endArrow=none;html=1;rounded=0;entryX=0;entryY=0.5;entryDx=0;entryDy=0;exitX=1;exitY=0.25;exitDx=0;exitDy=0;entryPerimeter=0;" edge="1" parent="1" source="XjzMZ7Z7NHH9gjmUYC3X-16" target="XjzMZ7Z7NHH9gjmUYC3X-40">
          <mxGeometry width="50" height="50" relative="1" as="geometry">
            <mxPoint x="1080" y="165" as="sourcePoint" />
            <mxPoint x="810" y="345" as="targetPoint" />
          </mxGeometry>
        </mxCell>
        <mxCell id="XjzMZ7Z7NHH9gjmUYC3X-22" value="" style="endArrow=none;html=1;rounded=0;entryX=1;entryY=0.75;entryDx=0;entryDy=0;exitX=0.24;exitY=0.075;exitDx=0;exitDy=0;exitPerimeter=0;" edge="1" parent="1" source="XjzMZ7Z7NHH9gjmUYC3X-18" target="XjzMZ7Z7NHH9gjmUYC3X-16">
          <mxGeometry width="50" height="50" relative="1" as="geometry">
            <mxPoint x="1090" y="175" as="sourcePoint" />
            <mxPoint x="1040" y="185" as="targetPoint" />
          </mxGeometry>
        </mxCell>
        <mxCell id="XjzMZ7Z7NHH9gjmUYC3X-23" value="" style="endArrow=none;html=1;rounded=0;entryX=0.5;entryY=1;entryDx=0;entryDy=0;exitX=0.75;exitY=0;exitDx=0;exitDy=0;exitPerimeter=0;" edge="1" parent="1" source="XjzMZ7Z7NHH9gjmUYC3X-19" target="XjzMZ7Z7NHH9gjmUYC3X-16">
          <mxGeometry width="50" height="50" relative="1" as="geometry">
            <mxPoint x="834" y="398" as="sourcePoint" />
            <mxPoint x="780" y="385" as="targetPoint" />
          </mxGeometry>
        </mxCell>
        <mxCell id="XjzMZ7Z7NHH9gjmUYC3X-24" value="permisos" style="whiteSpace=wrap;html=1;align=center;" vertex="1" parent="1">
          <mxGeometry x="85" y="420" width="100" height="40" as="geometry" />
        </mxCell>
        <mxCell id="XjzMZ7Z7NHH9gjmUYC3X-25" value="id_permiso" style="ellipse;whiteSpace=wrap;html=1;align=center;fontStyle=4;" vertex="1" parent="1">
          <mxGeometry x="15" y="345" width="100" height="40" as="geometry" />
        </mxCell>
        <mxCell id="XjzMZ7Z7NHH9gjmUYC3X-26" value="nombre_permiso" style="ellipse;whiteSpace=wrap;html=1;align=center;" vertex="1" parent="1">
          <mxGeometry x="175" y="360" width="100" height="40" as="geometry" />
        </mxCell>
        <mxCell id="XjzMZ7Z7NHH9gjmUYC3X-27" value="fecha_creacion" style="ellipse;whiteSpace=wrap;html=1;align=center;" vertex="1" parent="1">
          <mxGeometry x="225" y="450" width="100" height="40" as="geometry" />
        </mxCell>
        <mxCell id="XjzMZ7Z7NHH9gjmUYC3X-28" value="" style="endArrow=none;html=1;rounded=0;entryX=0.25;entryY=0;entryDx=0;entryDy=0;exitX=0.5;exitY=1;exitDx=0;exitDy=0;" edge="1" parent="1" source="XjzMZ7Z7NHH9gjmUYC3X-25" target="XjzMZ7Z7NHH9gjmUYC3X-24">
          <mxGeometry width="50" height="50" relative="1" as="geometry">
            <mxPoint x="-251" y="453" as="sourcePoint" />
            <mxPoint x="-305" y="440" as="targetPoint" />
          </mxGeometry>
        </mxCell>
        <mxCell id="XjzMZ7Z7NHH9gjmUYC3X-29" value="" style="endArrow=none;html=1;rounded=0;entryX=0;entryY=1;entryDx=0;entryDy=0;exitX=0.75;exitY=0;exitDx=0;exitDy=0;" edge="1" parent="1" source="XjzMZ7Z7NHH9gjmUYC3X-24" target="XjzMZ7Z7NHH9gjmUYC3X-26">
          <mxGeometry width="50" height="50" relative="1" as="geometry">
            <mxPoint x="105" y="410" as="sourcePoint" />
            <mxPoint x="130" y="440" as="targetPoint" />
          </mxGeometry>
        </mxCell>
        <mxCell id="XjzMZ7Z7NHH9gjmUYC3X-30" value="" style="endArrow=none;html=1;rounded=0;entryX=0.62;entryY=1.025;entryDx=0;entryDy=0;exitX=0.5;exitY=0;exitDx=0;exitDy=0;entryPerimeter=0;" edge="1" parent="1" source="XjzMZ7Z7NHH9gjmUYC3X-45" target="XjzMZ7Z7NHH9gjmUYC3X-24">
          <mxGeometry width="50" height="50" relative="1" as="geometry">
            <mxPoint x="75" y="440" as="sourcePoint" />
            <mxPoint x="140" y="450" as="targetPoint" />
          </mxGeometry>
        </mxCell>
        <mxCell id="XjzMZ7Z7NHH9gjmUYC3X-31" value="" style="endArrow=none;html=1;rounded=0;entryX=0;entryY=0.5;entryDx=0;entryDy=0;exitX=1;exitY=0.5;exitDx=0;exitDy=0;" edge="1" parent="1" source="XjzMZ7Z7NHH9gjmUYC3X-24" target="XjzMZ7Z7NHH9gjmUYC3X-27">
          <mxGeometry width="50" height="50" relative="1" as="geometry">
            <mxPoint x="125" y="430" as="sourcePoint" />
            <mxPoint x="150" y="460" as="targetPoint" />
          </mxGeometry>
        </mxCell>
        <mxCell id="XjzMZ7Z7NHH9gjmUYC3X-32" value="usuario_permiso" style="whiteSpace=wrap;html=1;align=center;" vertex="1" parent="1">
          <mxGeometry x="870" y="-30" width="100" height="40" as="geometry" />
        </mxCell>
        <mxCell id="XjzMZ7Z7NHH9gjmUYC3X-33" value="id_usuario" style="ellipse;whiteSpace=wrap;html=1;align=center;fontStyle=4;" vertex="1" parent="1">
          <mxGeometry x="1000" y="-100" width="100" height="40" as="geometry" />
        </mxCell>
        <mxCell id="XjzMZ7Z7NHH9gjmUYC3X-34" value="" style="endArrow=none;html=1;rounded=0;entryX=1;entryY=0.5;entryDx=0;entryDy=0;exitX=0;exitY=1;exitDx=0;exitDy=0;" edge="1" parent="1" source="XjzMZ7Z7NHH9gjmUYC3X-33" target="XjzMZ7Z7NHH9gjmUYC3X-32">
          <mxGeometry width="50" height="50" relative="1" as="geometry">
            <mxPoint x="1080" y="-80" as="sourcePoint" />
            <mxPoint x="1130" y="-130" as="targetPoint" />
          </mxGeometry>
        </mxCell>
        <mxCell id="XjzMZ7Z7NHH9gjmUYC3X-35" value="" style="endArrow=none;html=1;rounded=0;entryX=1;entryY=0.5;entryDx=0;entryDy=0;exitX=0;exitY=0.75;exitDx=0;exitDy=0;" edge="1" parent="1" source="XjzMZ7Z7NHH9gjmUYC3X-32" target="XjzMZ7Z7NHH9gjmUYC3X-44">
          <mxGeometry width="50" height="50" relative="1" as="geometry">
            <mxPoint x="1080" y="-80" as="sourcePoint" />
            <mxPoint x="825.3553390593274" y="-64.14213562373106" as="targetPoint" />
          </mxGeometry>
        </mxCell>
        <mxCell id="XjzMZ7Z7NHH9gjmUYC3X-36" value="partidos" style="whiteSpace=wrap;html=1;align=center;" vertex="1" parent="1">
          <mxGeometry x="1320" y="1240" width="100" height="40" as="geometry" />
        </mxCell>
        <mxCell id="XjzMZ7Z7NHH9gjmUYC3X-37" value="id_torneo" style="ellipse;whiteSpace=wrap;html=1;align=center;" vertex="1" parent="1">
          <mxGeometry x="1190" y="1230" width="100" height="40" as="geometry" />
        </mxCell>
        <mxCell id="XjzMZ7Z7NHH9gjmUYC3X-38" value="id_partido" style="ellipse;whiteSpace=wrap;html=1;align=center;fontStyle=4;" vertex="1" parent="1">
          <mxGeometry x="1230" y="1170" width="100" height="40" as="geometry" />
        </mxCell>
        <mxCell id="XjzMZ7Z7NHH9gjmUYC3X-39" value="goles_local" style="ellipse;whiteSpace=wrap;html=1;align=center;" vertex="1" parent="1">
          <mxGeometry x="1210" y="1300" width="100" height="40" as="geometry" />
        </mxCell>
        <mxCell id="XjzMZ7Z7NHH9gjmUYC3X-40" value="descripcion" style="ellipse;whiteSpace=wrap;html=1;align=center;" vertex="1" parent="1">
          <mxGeometry x="830" y="280" width="100" height="40" as="geometry" />
        </mxCell>
        <mxCell id="XjzMZ7Z7NHH9gjmUYC3X-41" value="id_torneo" style="ellipse;whiteSpace=wrap;html=1;align=center;" vertex="1" parent="1">
          <mxGeometry x="270" y="660" width="100" height="40" as="geometry" />
        </mxCell>
        <mxCell id="XjzMZ7Z7NHH9gjmUYC3X-42" value="foto_equipo" style="ellipse;whiteSpace=wrap;html=1;align=center;" vertex="1" parent="1">
          <mxGeometry x="600" y="780" width="100" height="40" as="geometry" />
        </mxCell>
        <mxCell id="XjzMZ7Z7NHH9gjmUYC3X-43" value="id_permiso" style="ellipse;whiteSpace=wrap;html=1;align=center;fontStyle=4;" vertex="1" parent="1">
          <mxGeometry x="390" y="-160" width="100" height="40" as="geometry" />
        </mxCell>
        <mxCell id="XjzMZ7Z7NHH9gjmUYC3X-44" value="id_permiso" style="ellipse;whiteSpace=wrap;html=1;align=center;fontStyle=4;" vertex="1" parent="1">
          <mxGeometry x="730" y="-70" width="100" height="40" as="geometry" />
        </mxCell>
        <mxCell id="XjzMZ7Z7NHH9gjmUYC3X-45" value="descripcion" style="ellipse;whiteSpace=wrap;html=1;align=center;" vertex="1" parent="1">
          <mxGeometry x="85" y="490" width="100" height="40" as="geometry" />
        </mxCell>
        <mxCell id="XjzMZ7Z7NHH9gjmUYC3X-46" value="equipo_local" style="ellipse;whiteSpace=wrap;html=1;align=center;" vertex="1" parent="1">
          <mxGeometry x="1330" y="1130" width="100" height="40" as="geometry" />
        </mxCell>
        <mxCell id="XjzMZ7Z7NHH9gjmUYC3X-47" value="equipo_visitante" style="ellipse;whiteSpace=wrap;html=1;align=center;" vertex="1" parent="1">
          <mxGeometry x="1430" y="1140" width="100" height="40" as="geometry" />
        </mxCell>
        <mxCell id="XjzMZ7Z7NHH9gjmUYC3X-48" value="goles_visitante" style="ellipse;whiteSpace=wrap;html=1;align=center;" vertex="1" parent="1">
          <mxGeometry x="1350" y="1300" width="100" height="40" as="geometry" />
        </mxCell>
        <mxCell id="XjzMZ7Z7NHH9gjmUYC3X-49" value="estado" style="ellipse;whiteSpace=wrap;html=1;align=center;" vertex="1" parent="1">
          <mxGeometry x="1490" y="1350" width="100" height="40" as="geometry" />
        </mxCell>
        <mxCell id="XjzMZ7Z7NHH9gjmUYC3X-50" value="fecha_creacion" style="ellipse;whiteSpace=wrap;html=1;align=center;" vertex="1" parent="1">
          <mxGeometry x="1510" y="1290" width="100" height="40" as="geometry" />
        </mxCell>
        <mxCell id="XjzMZ7Z7NHH9gjmUYC3X-51" value="" style="endArrow=none;html=1;rounded=0;entryX=0.09;entryY=0.775;entryDx=0;entryDy=0;entryPerimeter=0;exitX=1;exitY=0;exitDx=0;exitDy=0;" edge="1" parent="1" source="XjzMZ7Z7NHH9gjmUYC3X-36" target="XjzMZ7Z7NHH9gjmUYC3X-47">
          <mxGeometry width="50" height="50" relative="1" as="geometry">
            <mxPoint x="1040" y="1150" as="sourcePoint" />
            <mxPoint x="1090" y="1100" as="targetPoint" />
          </mxGeometry>
        </mxCell>
        <mxCell id="XjzMZ7Z7NHH9gjmUYC3X-52" value="" style="endArrow=none;html=1;rounded=0;entryX=0;entryY=0.5;entryDx=0;entryDy=0;exitX=1;exitY=0.5;exitDx=0;exitDy=0;" edge="1" parent="1" source="XjzMZ7Z7NHH9gjmUYC3X-36" target="XjzMZ7Z7NHH9gjmUYC3X-50">
          <mxGeometry width="50" height="50" relative="1" as="geometry">
            <mxPoint x="1430" y="1250" as="sourcePoint" />
            <mxPoint x="1489" y="1231" as="targetPoint" />
          </mxGeometry>
        </mxCell>
        <mxCell id="XjzMZ7Z7NHH9gjmUYC3X-53" value="" style="endArrow=none;html=1;rounded=0;exitX=1;exitY=0.75;exitDx=0;exitDy=0;" edge="1" parent="1" source="XjzMZ7Z7NHH9gjmUYC3X-36" target="XjzMZ7Z7NHH9gjmUYC3X-49">
          <mxGeometry width="50" height="50" relative="1" as="geometry">
            <mxPoint x="1440" y="1260" as="sourcePoint" />
            <mxPoint x="1499" y="1241" as="targetPoint" />
          </mxGeometry>
        </mxCell>
        <mxCell id="XjzMZ7Z7NHH9gjmUYC3X-54" value="" style="endArrow=none;html=1;rounded=0;entryX=0.92;entryY=1;entryDx=0;entryDy=0;entryPerimeter=0;exitX=0.7;exitY=0;exitDx=0;exitDy=0;exitPerimeter=0;" edge="1" parent="1" source="XjzMZ7Z7NHH9gjmUYC3X-48" target="XjzMZ7Z7NHH9gjmUYC3X-36">
          <mxGeometry width="50" height="50" relative="1" as="geometry">
            <mxPoint x="1450" y="1270" as="sourcePoint" />
            <mxPoint x="1509" y="1251" as="targetPoint" />
          </mxGeometry>
        </mxCell>
        <mxCell id="XjzMZ7Z7NHH9gjmUYC3X-55" value="" style="endArrow=none;html=1;rounded=0;entryX=0;entryY=1;entryDx=0;entryDy=0;exitX=0.7;exitY=0.075;exitDx=0;exitDy=0;exitPerimeter=0;" edge="1" parent="1" source="XjzMZ7Z7NHH9gjmUYC3X-39" target="XjzMZ7Z7NHH9gjmUYC3X-36">
          <mxGeometry width="50" height="50" relative="1" as="geometry">
            <mxPoint x="1460" y="1280" as="sourcePoint" />
            <mxPoint x="1519" y="1261" as="targetPoint" />
          </mxGeometry>
        </mxCell>
        <mxCell id="XjzMZ7Z7NHH9gjmUYC3X-56" value="" style="endArrow=none;html=1;rounded=0;entryX=0;entryY=0.5;entryDx=0;entryDy=0;exitX=1;exitY=0.5;exitDx=0;exitDy=0;" edge="1" parent="1" source="XjzMZ7Z7NHH9gjmUYC3X-37" target="XjzMZ7Z7NHH9gjmUYC3X-36">
          <mxGeometry width="50" height="50" relative="1" as="geometry">
            <mxPoint x="1470" y="1290" as="sourcePoint" />
            <mxPoint x="1529" y="1271" as="targetPoint" />
          </mxGeometry>
        </mxCell>
        <mxCell id="XjzMZ7Z7NHH9gjmUYC3X-57" value="" style="endArrow=none;html=1;rounded=0;entryX=0.75;entryY=0;entryDx=0;entryDy=0;exitX=0.5;exitY=1;exitDx=0;exitDy=0;" edge="1" parent="1" source="XjzMZ7Z7NHH9gjmUYC3X-46" target="XjzMZ7Z7NHH9gjmUYC3X-36">
          <mxGeometry width="50" height="50" relative="1" as="geometry">
            <mxPoint x="1480" y="1300" as="sourcePoint" />
            <mxPoint x="1539" y="1281" as="targetPoint" />
          </mxGeometry>
        </mxCell>
        <mxCell id="XjzMZ7Z7NHH9gjmUYC3X-58" value="" style="endArrow=none;html=1;rounded=0;entryX=0.25;entryY=0;entryDx=0;entryDy=0;exitX=1;exitY=1;exitDx=0;exitDy=0;" edge="1" parent="1" source="XjzMZ7Z7NHH9gjmUYC3X-38" target="XjzMZ7Z7NHH9gjmUYC3X-36">
          <mxGeometry width="50" height="50" relative="1" as="geometry">
            <mxPoint x="1490" y="1310" as="sourcePoint" />
            <mxPoint x="1549" y="1291" as="targetPoint" />
          </mxGeometry>
        </mxCell>
        <mxCell id="XjzMZ7Z7NHH9gjmUYC3X-59" value="usuarios" style="whiteSpace=wrap;html=1;align=center;" vertex="1" parent="1">
          <mxGeometry x="1130" y="460" width="100" height="40" as="geometry" />
        </mxCell>
        <mxCell id="XjzMZ7Z7NHH9gjmUYC3X-60" value="email" style="ellipse;whiteSpace=wrap;html=1;align=center;fontStyle=4;" vertex="1" parent="1">
          <mxGeometry x="1010" y="490" width="100" height="40" as="geometry" />
        </mxCell>
        <mxCell id="XjzMZ7Z7NHH9gjmUYC3X-61" value="id_usuario" style="ellipse;whiteSpace=wrap;html=1;align=center;fontStyle=4;" vertex="1" parent="1">
          <mxGeometry x="1000" y="430" width="100" height="40" as="geometry" />
        </mxCell>
        <mxCell id="XjzMZ7Z7NHH9gjmUYC3X-62" value="nombre" style="ellipse;whiteSpace=wrap;html=1;align=center;" vertex="1" parent="1">
          <mxGeometry x="1190" y="390" width="100" height="40" as="geometry" />
        </mxCell>
        <mxCell id="XjzMZ7Z7NHH9gjmUYC3X-63" value="apellido" style="ellipse;whiteSpace=wrap;html=1;align=center;" vertex="1" parent="1">
          <mxGeometry x="1270" y="480" width="100" height="40" as="geometry" />
        </mxCell>
        <mxCell id="XjzMZ7Z7NHH9gjmUYC3X-64" value="contraseña" style="ellipse;whiteSpace=wrap;html=1;align=center;" vertex="1" parent="1">
          <mxGeometry x="1260" y="540" width="100" height="40" as="geometry" />
        </mxCell>
        <mxCell id="XjzMZ7Z7NHH9gjmUYC3X-65" value="fecha_creacion" style="ellipse;whiteSpace=wrap;html=1;align=center;" vertex="1" parent="1">
          <mxGeometry x="1120" y="540" width="100" height="40" as="geometry" />
        </mxCell>
        <mxCell id="XjzMZ7Z7NHH9gjmUYC3X-66" value="" style="endArrow=none;html=1;rounded=0;entryX=0.43;entryY=1.05;entryDx=0;entryDy=0;entryPerimeter=0;exitX=0.5;exitY=0;exitDx=0;exitDy=0;" edge="1" parent="1" source="XjzMZ7Z7NHH9gjmUYC3X-65" target="XjzMZ7Z7NHH9gjmUYC3X-59">
          <mxGeometry width="50" height="50" relative="1" as="geometry">
            <mxPoint x="1190" y="740" as="sourcePoint" />
            <mxPoint x="1240" y="690" as="targetPoint" />
          </mxGeometry>
        </mxCell>
        <mxCell id="XjzMZ7Z7NHH9gjmUYC3X-67" value="" style="endArrow=none;html=1;rounded=0;entryX=0.86;entryY=0.975;entryDx=0;entryDy=0;entryPerimeter=0;" edge="1" parent="1" source="XjzMZ7Z7NHH9gjmUYC3X-64" target="XjzMZ7Z7NHH9gjmUYC3X-59">
          <mxGeometry width="50" height="50" relative="1" as="geometry">
            <mxPoint x="1180" y="550" as="sourcePoint" />
            <mxPoint x="1183" y="512" as="targetPoint" />
          </mxGeometry>
        </mxCell>
        <mxCell id="XjzMZ7Z7NHH9gjmUYC3X-68" value="" style="endArrow=none;html=1;rounded=0;entryX=1;entryY=0.25;entryDx=0;entryDy=0;exitX=0.01;exitY=0.35;exitDx=0;exitDy=0;exitPerimeter=0;" edge="1" parent="1" source="XjzMZ7Z7NHH9gjmUYC3X-63" target="XjzMZ7Z7NHH9gjmUYC3X-59">
          <mxGeometry width="50" height="50" relative="1" as="geometry">
            <mxPoint x="1190" y="560" as="sourcePoint" />
            <mxPoint x="1193" y="522" as="targetPoint" />
          </mxGeometry>
        </mxCell>
        <mxCell id="XjzMZ7Z7NHH9gjmUYC3X-69" value="" style="endArrow=none;html=1;rounded=0;exitX=0.5;exitY=0;exitDx=0;exitDy=0;" edge="1" parent="1" source="XjzMZ7Z7NHH9gjmUYC3X-59" target="XjzMZ7Z7NHH9gjmUYC3X-62">
          <mxGeometry width="50" height="50" relative="1" as="geometry">
            <mxPoint x="1200" y="570" as="sourcePoint" />
            <mxPoint x="1203" y="532" as="targetPoint" />
          </mxGeometry>
        </mxCell>
        <mxCell id="XjzMZ7Z7NHH9gjmUYC3X-70" value="" style="endArrow=none;html=1;rounded=0;entryX=1;entryY=1;entryDx=0;entryDy=0;exitX=0;exitY=0.25;exitDx=0;exitDy=0;" edge="1" parent="1" source="XjzMZ7Z7NHH9gjmUYC3X-59" target="XjzMZ7Z7NHH9gjmUYC3X-61">
          <mxGeometry width="50" height="50" relative="1" as="geometry">
            <mxPoint x="1210" y="580" as="sourcePoint" />
            <mxPoint x="1213" y="542" as="targetPoint" />
          </mxGeometry>
        </mxCell>
        <mxCell id="XjzMZ7Z7NHH9gjmUYC3X-71" value="" style="endArrow=none;html=1;rounded=0;entryX=1;entryY=0.5;entryDx=0;entryDy=0;exitX=0;exitY=0.75;exitDx=0;exitDy=0;" edge="1" parent="1" source="XjzMZ7Z7NHH9gjmUYC3X-59" target="XjzMZ7Z7NHH9gjmUYC3X-60">
          <mxGeometry width="50" height="50" relative="1" as="geometry">
            <mxPoint x="1220" y="590" as="sourcePoint" />
            <mxPoint x="1223" y="552" as="targetPoint" />
          </mxGeometry>
        </mxCell>
        <mxCell id="XjzMZ7Z7NHH9gjmUYC3X-72" value="jugadores" style="whiteSpace=wrap;html=1;align=center;" vertex="1" parent="1">
          <mxGeometry x="1290" y="750" width="100" height="40" as="geometry" />
        </mxCell>
        <mxCell id="XjzMZ7Z7NHH9gjmUYC3X-73" value="id_usuario" style="ellipse;whiteSpace=wrap;html=1;align=center;" vertex="1" parent="1">
          <mxGeometry x="1170" y="690" width="100" height="40" as="geometry" />
        </mxCell>
        <mxCell id="XjzMZ7Z7NHH9gjmUYC3X-74" value="id_equipo" style="ellipse;whiteSpace=wrap;html=1;align=center;" vertex="1" parent="1">
          <mxGeometry x="1140" y="790" width="100" height="40" as="geometry" />
        </mxCell>
        <mxCell id="XjzMZ7Z7NHH9gjmUYC3X-75" value="posicion" style="ellipse;whiteSpace=wrap;html=1;align=center;" vertex="1" parent="1">
          <mxGeometry x="1320" y="680" width="100" height="40" as="geometry" />
        </mxCell>
        <mxCell id="XjzMZ7Z7NHH9gjmUYC3X-76" value="numero_camiseta" style="ellipse;whiteSpace=wrap;html=1;align=center;" vertex="1" parent="1">
          <mxGeometry x="1440" y="780" width="110" height="40" as="geometry" />
        </mxCell>
        <mxCell id="XjzMZ7Z7NHH9gjmUYC3X-77" value="fecha_creacion" style="ellipse;whiteSpace=wrap;html=1;align=center;" vertex="1" parent="1">
          <mxGeometry x="1270" y="820" width="100" height="40" as="geometry" />
        </mxCell>
        <mxCell id="XjzMZ7Z7NHH9gjmUYC3X-78" value="id_jugador" style="ellipse;whiteSpace=wrap;html=1;align=center;fontStyle=4;" vertex="1" parent="1">
          <mxGeometry x="1430" y="690" width="100" height="40" as="geometry" />
        </mxCell>
        <mxCell id="XjzMZ7Z7NHH9gjmUYC3X-79" value="" style="endArrow=none;html=1;rounded=0;entryX=0.94;entryY=0.825;entryDx=0;entryDy=0;entryPerimeter=0;exitX=0;exitY=0;exitDx=0;exitDy=0;" edge="1" parent="1" source="XjzMZ7Z7NHH9gjmUYC3X-72" target="XjzMZ7Z7NHH9gjmUYC3X-73">
          <mxGeometry width="50" height="50" relative="1" as="geometry">
            <mxPoint x="1190" y="740" as="sourcePoint" />
            <mxPoint x="1240" y="690" as="targetPoint" />
          </mxGeometry>
        </mxCell>
        <mxCell id="XjzMZ7Z7NHH9gjmUYC3X-80" value="" style="endArrow=none;html=1;rounded=0;entryX=0.33;entryY=0.025;entryDx=0;entryDy=0;entryPerimeter=0;exitX=0;exitY=1;exitDx=0;exitDy=0;" edge="1" parent="1" source="XjzMZ7Z7NHH9gjmUYC3X-75" target="XjzMZ7Z7NHH9gjmUYC3X-72">
          <mxGeometry width="50" height="50" relative="1" as="geometry">
            <mxPoint x="1300" y="760" as="sourcePoint" />
            <mxPoint x="1274" y="733" as="targetPoint" />
          </mxGeometry>
        </mxCell>
        <mxCell id="XjzMZ7Z7NHH9gjmUYC3X-81" value="" style="endArrow=none;html=1;rounded=0;entryX=1;entryY=0.25;entryDx=0;entryDy=0;exitX=0.04;exitY=0.675;exitDx=0;exitDy=0;exitPerimeter=0;" edge="1" parent="1" source="XjzMZ7Z7NHH9gjmUYC3X-78" target="XjzMZ7Z7NHH9gjmUYC3X-72">
          <mxGeometry width="50" height="50" relative="1" as="geometry">
            <mxPoint x="1345" y="724" as="sourcePoint" />
            <mxPoint x="1333" y="761" as="targetPoint" />
          </mxGeometry>
        </mxCell>
        <mxCell id="XjzMZ7Z7NHH9gjmUYC3X-82" value="" style="endArrow=none;html=1;rounded=0;entryX=1;entryY=0.75;entryDx=0;entryDy=0;exitX=0;exitY=0;exitDx=0;exitDy=0;" edge="1" parent="1" source="XjzMZ7Z7NHH9gjmUYC3X-76" target="XjzMZ7Z7NHH9gjmUYC3X-72">
          <mxGeometry width="50" height="50" relative="1" as="geometry">
            <mxPoint x="1355" y="734" as="sourcePoint" />
            <mxPoint x="1343" y="771" as="targetPoint" />
          </mxGeometry>
        </mxCell>
        <mxCell id="XjzMZ7Z7NHH9gjmUYC3X-83" value="" style="endArrow=none;html=1;rounded=0;entryX=0.6;entryY=-0.05;entryDx=0;entryDy=0;entryPerimeter=0;exitX=0.5;exitY=1;exitDx=0;exitDy=0;" edge="1" parent="1" source="XjzMZ7Z7NHH9gjmUYC3X-72" target="XjzMZ7Z7NHH9gjmUYC3X-77">
          <mxGeometry width="50" height="50" relative="1" as="geometry">
            <mxPoint x="1365" y="744" as="sourcePoint" />
            <mxPoint x="1353" y="781" as="targetPoint" />
          </mxGeometry>
        </mxCell>
        <mxCell id="XjzMZ7Z7NHH9gjmUYC3X-84" value="" style="endArrow=none;html=1;rounded=0;entryX=1;entryY=0.5;entryDx=0;entryDy=0;exitX=0;exitY=0.5;exitDx=0;exitDy=0;" edge="1" parent="1" source="XjzMZ7Z7NHH9gjmUYC3X-72" target="XjzMZ7Z7NHH9gjmUYC3X-74">
          <mxGeometry width="50" height="50" relative="1" as="geometry">
            <mxPoint x="1375" y="754" as="sourcePoint" />
            <mxPoint x="1363" y="791" as="targetPoint" />
          </mxGeometry>
        </mxCell>
        <mxCell id="XjzMZ7Z7NHH9gjmUYC3X-85" value="colegios" style="whiteSpace=wrap;html=1;align=center;" vertex="1" parent="1">
          <mxGeometry x="-120" y="960" width="100" height="50" as="geometry" />
        </mxCell>
        <mxCell id="XjzMZ7Z7NHH9gjmUYC3X-86" value="id_colegio" style="ellipse;whiteSpace=wrap;html=1;align=center;fontStyle=4;" vertex="1" parent="1">
          <mxGeometry x="-230" y="890" width="100" height="40" as="geometry" />
        </mxCell>
        <mxCell id="XjzMZ7Z7NHH9gjmUYC3X-87" value="nombre" style="ellipse;whiteSpace=wrap;html=1;align=center;" vertex="1" parent="1">
          <mxGeometry x="-250" y="950" width="100" height="40" as="geometry" />
        </mxCell>
        <mxCell id="XjzMZ7Z7NHH9gjmUYC3X-88" value="direccion" style="ellipse;whiteSpace=wrap;html=1;align=center;" vertex="1" parent="1">
          <mxGeometry x="-230" y="1010" width="100" height="40" as="geometry" />
        </mxCell>
        <mxCell id="XjzMZ7Z7NHH9gjmUYC3X-89" value="telefono" style="ellipse;whiteSpace=wrap;html=1;align=center;" vertex="1" parent="1">
          <mxGeometry x="-85" y="900" width="100" height="40" as="geometry" />
        </mxCell>
        <mxCell id="XjzMZ7Z7NHH9gjmUYC3X-90" value="email" style="ellipse;whiteSpace=wrap;html=1;align=center;" vertex="1" parent="1">
          <mxGeometry x="15" y="950" width="100" height="40" as="geometry" />
        </mxCell>
        <mxCell id="XjzMZ7Z7NHH9gjmUYC3X-91" value="fecha_creacion" style="ellipse;whiteSpace=wrap;html=1;align=center;" vertex="1" parent="1">
          <mxGeometry x="-85" y="1050" width="100" height="40" as="geometry" />
        </mxCell>
        <mxCell id="XjzMZ7Z7NHH9gjmUYC3X-92" value="" style="endArrow=none;html=1;rounded=0;entryX=0;entryY=0;entryDx=0;entryDy=0;exitX=0.64;exitY=1.05;exitDx=0;exitDy=0;exitPerimeter=0;" edge="1" parent="1" source="XjzMZ7Z7NHH9gjmUYC3X-86" target="XjzMZ7Z7NHH9gjmUYC3X-85">
          <mxGeometry width="50" height="50" relative="1" as="geometry">
            <mxPoint x="-360" y="960" as="sourcePoint" />
            <mxPoint x="-310" y="910" as="targetPoint" />
          </mxGeometry>
        </mxCell>
        <mxCell id="XjzMZ7Z7NHH9gjmUYC3X-93" value="" style="endArrow=none;html=1;rounded=0;entryX=0;entryY=0.25;entryDx=0;entryDy=0;exitX=1;exitY=0.5;exitDx=0;exitDy=0;" edge="1" parent="1" source="XjzMZ7Z7NHH9gjmUYC3X-87" target="XjzMZ7Z7NHH9gjmUYC3X-85">
          <mxGeometry width="50" height="50" relative="1" as="geometry">
            <mxPoint x="-156" y="942" as="sourcePoint" />
            <mxPoint x="-110" y="970" as="targetPoint" />
          </mxGeometry>
        </mxCell>
        <mxCell id="XjzMZ7Z7NHH9gjmUYC3X-94" value="" style="endArrow=none;html=1;rounded=0;entryX=0.94;entryY=0.225;entryDx=0;entryDy=0;exitX=0;exitY=1;exitDx=0;exitDy=0;entryPerimeter=0;" edge="1" parent="1" source="XjzMZ7Z7NHH9gjmUYC3X-85" target="XjzMZ7Z7NHH9gjmUYC3X-88">
          <mxGeometry width="50" height="50" relative="1" as="geometry">
            <mxPoint x="-146" y="952" as="sourcePoint" />
            <mxPoint x="-100" y="980" as="targetPoint" />
          </mxGeometry>
        </mxCell>
        <mxCell id="XjzMZ7Z7NHH9gjmUYC3X-95" value="" style="endArrow=none;html=1;rounded=0;exitX=0.75;exitY=1;exitDx=0;exitDy=0;" edge="1" parent="1" source="XjzMZ7Z7NHH9gjmUYC3X-85" target="XjzMZ7Z7NHH9gjmUYC3X-91">
          <mxGeometry width="50" height="50" relative="1" as="geometry">
            <mxPoint x="-136" y="962" as="sourcePoint" />
            <mxPoint x="-90" y="990" as="targetPoint" />
          </mxGeometry>
        </mxCell>
        <mxCell id="XjzMZ7Z7NHH9gjmUYC3X-96" value="" style="endArrow=none;html=1;rounded=0;entryX=0;entryY=0.5;entryDx=0;entryDy=0;exitX=1;exitY=0.5;exitDx=0;exitDy=0;" edge="1" parent="1" source="XjzMZ7Z7NHH9gjmUYC3X-85" target="XjzMZ7Z7NHH9gjmUYC3X-90">
          <mxGeometry width="50" height="50" relative="1" as="geometry">
            <mxPoint x="-126" y="972" as="sourcePoint" />
            <mxPoint x="-80" y="1000" as="targetPoint" />
          </mxGeometry>
        </mxCell>
        <mxCell id="XjzMZ7Z7NHH9gjmUYC3X-97" value="" style="endArrow=none;html=1;rounded=0;entryX=0.37;entryY=1.025;entryDx=0;entryDy=0;exitX=0.64;exitY=-0.02;exitDx=0;exitDy=0;exitPerimeter=0;entryPerimeter=0;" edge="1" parent="1" source="XjzMZ7Z7NHH9gjmUYC3X-85" target="XjzMZ7Z7NHH9gjmUYC3X-89">
          <mxGeometry width="50" height="50" relative="1" as="geometry">
            <mxPoint x="-116" y="982" as="sourcePoint" />
            <mxPoint x="-70" y="1010" as="targetPoint" />
          </mxGeometry>
        </mxCell>
        <mxCell id="XjzMZ7Z7NHH9gjmUYC3X-98" value="estadisticas" style="whiteSpace=wrap;html=1;align=center;" vertex="1" parent="1">
          <mxGeometry x="2170" y="775" width="100" height="40" as="geometry" />
        </mxCell>
        <mxCell id="XjzMZ7Z7NHH9gjmUYC3X-99" value="id_estadistica" style="ellipse;whiteSpace=wrap;html=1;align=center;fontStyle=4;" vertex="1" parent="1">
          <mxGeometry x="1990" y="805" width="100" height="40" as="geometry" />
        </mxCell>
        <mxCell id="XjzMZ7Z7NHH9gjmUYC3X-100" value="id_jugador" style="ellipse;whiteSpace=wrap;html=1;align=center;" vertex="1" parent="1">
          <mxGeometry x="2250" y="725" width="100" height="40" as="geometry" />
        </mxCell>
        <mxCell id="XjzMZ7Z7NHH9gjmUYC3X-101" value="id_partido" style="ellipse;whiteSpace=wrap;html=1;align=center;" vertex="1" parent="1">
          <mxGeometry x="2140" y="705" width="100" height="40" as="geometry" />
        </mxCell>
        <mxCell id="XjzMZ7Z7NHH9gjmUYC3X-102" value="goles" style="ellipse;whiteSpace=wrap;html=1;align=center;" vertex="1" parent="1">
          <mxGeometry x="2000" y="865" width="100" height="40" as="geometry" />
        </mxCell>
        <mxCell id="XjzMZ7Z7NHH9gjmUYC3X-103" value="asistencias" style="ellipse;whiteSpace=wrap;html=1;align=center;" vertex="1" parent="1">
          <mxGeometry x="2195" y="875" width="100" height="40" as="geometry" />
        </mxCell>
        <mxCell id="XjzMZ7Z7NHH9gjmUYC3X-104" value="tarjetas_amarillas" style="ellipse;whiteSpace=wrap;html=1;align=center;" vertex="1" parent="1">
          <mxGeometry x="2330" y="765" width="100" height="40" as="geometry" />
        </mxCell>
        <mxCell id="XjzMZ7Z7NHH9gjmUYC3X-105" value="tarjetas_rojas" style="ellipse;whiteSpace=wrap;html=1;align=center;" vertex="1" parent="1">
          <mxGeometry x="2340" y="825" width="100" height="40" as="geometry" />
        </mxCell>
        <mxCell id="XjzMZ7Z7NHH9gjmUYC3X-106" value="minutos_jugados" style="ellipse;whiteSpace=wrap;html=1;align=center;" vertex="1" parent="1">
          <mxGeometry x="2030" y="705" width="100" height="40" as="geometry" />
        </mxCell>
        <mxCell id="XjzMZ7Z7NHH9gjmUYC3X-107" value="fecha_creacion" style="ellipse;whiteSpace=wrap;html=1;align=center;" vertex="1" parent="1">
          <mxGeometry x="2320" y="875" width="100" height="40" as="geometry" />
        </mxCell>
        <mxCell id="XjzMZ7Z7NHH9gjmUYC3X-108" value="" style="endArrow=none;html=1;rounded=0;entryX=0.84;entryY=1.075;entryDx=0;entryDy=0;entryPerimeter=0;exitX=0.5;exitY=0;exitDx=0;exitDy=0;" edge="1" parent="1" source="XjzMZ7Z7NHH9gjmUYC3X-103" target="XjzMZ7Z7NHH9gjmUYC3X-98">
          <mxGeometry width="50" height="50" relative="1" as="geometry">
            <mxPoint x="2250" y="895" as="sourcePoint" />
            <mxPoint x="2300" y="845" as="targetPoint" />
          </mxGeometry>
        </mxCell>
        <mxCell id="XjzMZ7Z7NHH9gjmUYC3X-109" value="" style="endArrow=none;html=1;rounded=0;entryX=1;entryY=1;entryDx=0;entryDy=0;exitX=0;exitY=0;exitDx=0;exitDy=0;" edge="1" parent="1" source="XjzMZ7Z7NHH9gjmUYC3X-107" target="XjzMZ7Z7NHH9gjmUYC3X-98">
          <mxGeometry width="50" height="50" relative="1" as="geometry">
            <mxPoint x="2255" y="885" as="sourcePoint" />
            <mxPoint x="2264" y="828" as="targetPoint" />
          </mxGeometry>
        </mxCell>
        <mxCell id="XjzMZ7Z7NHH9gjmUYC3X-110" value="" style="endArrow=none;html=1;rounded=0;entryX=0;entryY=0.5;entryDx=0;entryDy=0;exitX=1;exitY=0.75;exitDx=0;exitDy=0;" edge="1" parent="1" source="XjzMZ7Z7NHH9gjmUYC3X-98" target="XjzMZ7Z7NHH9gjmUYC3X-105">
          <mxGeometry width="50" height="50" relative="1" as="geometry">
            <mxPoint x="2265" y="895" as="sourcePoint" />
            <mxPoint x="2274" y="838" as="targetPoint" />
          </mxGeometry>
        </mxCell>
        <mxCell id="XjzMZ7Z7NHH9gjmUYC3X-111" value="" style="endArrow=none;html=1;rounded=0;entryX=0;entryY=0.5;entryDx=0;entryDy=0;exitX=1;exitY=0.25;exitDx=0;exitDy=0;" edge="1" parent="1" source="XjzMZ7Z7NHH9gjmUYC3X-98" target="XjzMZ7Z7NHH9gjmUYC3X-104">
          <mxGeometry width="50" height="50" relative="1" as="geometry">
            <mxPoint x="2275" y="905" as="sourcePoint" />
            <mxPoint x="2284" y="848" as="targetPoint" />
          </mxGeometry>
        </mxCell>
        <mxCell id="XjzMZ7Z7NHH9gjmUYC3X-112" value="" style="endArrow=none;html=1;rounded=0;entryX=0.27;entryY=0.925;entryDx=0;entryDy=0;entryPerimeter=0;exitX=0.93;exitY=0.075;exitDx=0;exitDy=0;exitPerimeter=0;" edge="1" parent="1" source="XjzMZ7Z7NHH9gjmUYC3X-98" target="XjzMZ7Z7NHH9gjmUYC3X-100">
          <mxGeometry width="50" height="50" relative="1" as="geometry">
            <mxPoint x="2285" y="915" as="sourcePoint" />
            <mxPoint x="2294" y="858" as="targetPoint" />
          </mxGeometry>
        </mxCell>
        <mxCell id="XjzMZ7Z7NHH9gjmUYC3X-113" value="" style="endArrow=none;html=1;rounded=0;entryX=0.65;entryY=0.925;entryDx=0;entryDy=0;entryPerimeter=0;exitX=0.5;exitY=0;exitDx=0;exitDy=0;" edge="1" parent="1" source="XjzMZ7Z7NHH9gjmUYC3X-98" target="XjzMZ7Z7NHH9gjmUYC3X-101">
          <mxGeometry width="50" height="50" relative="1" as="geometry">
            <mxPoint x="2295" y="925" as="sourcePoint" />
            <mxPoint x="2304" y="868" as="targetPoint" />
          </mxGeometry>
        </mxCell>
        <mxCell id="XjzMZ7Z7NHH9gjmUYC3X-114" value="" style="endArrow=none;html=1;rounded=0;entryX=0.78;entryY=0.95;entryDx=0;entryDy=0;entryPerimeter=0;exitX=0;exitY=0.25;exitDx=0;exitDy=0;" edge="1" parent="1" source="XjzMZ7Z7NHH9gjmUYC3X-98" target="XjzMZ7Z7NHH9gjmUYC3X-106">
          <mxGeometry width="50" height="50" relative="1" as="geometry">
            <mxPoint x="2305" y="935" as="sourcePoint" />
            <mxPoint x="2314" y="878" as="targetPoint" />
          </mxGeometry>
        </mxCell>
        <mxCell id="XjzMZ7Z7NHH9gjmUYC3X-115" value="" style="endArrow=none;html=1;rounded=0;entryX=0.25;entryY=1;entryDx=0;entryDy=0;exitX=0.76;exitY=0.1;exitDx=0;exitDy=0;exitPerimeter=0;" edge="1" parent="1" source="XjzMZ7Z7NHH9gjmUYC3X-102" target="XjzMZ7Z7NHH9gjmUYC3X-98">
          <mxGeometry width="50" height="50" relative="1" as="geometry">
            <mxPoint x="2315" y="945" as="sourcePoint" />
            <mxPoint x="2324" y="888" as="targetPoint" />
          </mxGeometry>
        </mxCell>
        <mxCell id="XjzMZ7Z7NHH9gjmUYC3X-116" value="" style="endArrow=none;html=1;rounded=0;entryX=1;entryY=0.5;entryDx=0;entryDy=0;exitX=0;exitY=0.75;exitDx=0;exitDy=0;" edge="1" parent="1" source="XjzMZ7Z7NHH9gjmUYC3X-98" target="XjzMZ7Z7NHH9gjmUYC3X-99">
          <mxGeometry width="50" height="50" relative="1" as="geometry">
            <mxPoint x="2325" y="955" as="sourcePoint" />
            <mxPoint x="2334" y="898" as="targetPoint" />
          </mxGeometry>
        </mxCell>
        <mxCell id="XjzMZ7Z7NHH9gjmUYC3X-117" value="usuario_role" style="whiteSpace=wrap;html=1;align=center;" vertex="1" parent="1">
          <mxGeometry x="1780" y="440" width="100" height="40" as="geometry" />
        </mxCell>
        <mxCell id="XjzMZ7Z7NHH9gjmUYC3X-118" value="id_usuario" style="ellipse;whiteSpace=wrap;html=1;align=center;fontStyle=4;" vertex="1" parent="1">
          <mxGeometry x="1680" y="490" width="100" height="40" as="geometry" />
        </mxCell>
        <mxCell id="XjzMZ7Z7NHH9gjmUYC3X-119" value="id_rol" style="ellipse;whiteSpace=wrap;html=1;align=center;fontStyle=4;" vertex="1" parent="1">
          <mxGeometry x="1880" y="490" width="100" height="40" as="geometry" />
        </mxCell>
        <mxCell id="XjzMZ7Z7NHH9gjmUYC3X-120" value="" style="endArrow=none;html=1;rounded=0;entryX=0;entryY=1;entryDx=0;entryDy=0;exitX=1;exitY=0;exitDx=0;exitDy=0;" edge="1" parent="1" source="XjzMZ7Z7NHH9gjmUYC3X-118" target="XjzMZ7Z7NHH9gjmUYC3X-117">
          <mxGeometry width="50" height="50" relative="1" as="geometry">
            <mxPoint x="1520" y="730" as="sourcePoint" />
            <mxPoint x="1570" y="680" as="targetPoint" />
          </mxGeometry>
        </mxCell>
        <mxCell id="XjzMZ7Z7NHH9gjmUYC3X-121" value="" style="endArrow=none;html=1;rounded=0;entryX=1;entryY=1;entryDx=0;entryDy=0;exitX=0.2;exitY=0;exitDx=0;exitDy=0;exitPerimeter=0;" edge="1" parent="1" source="XjzMZ7Z7NHH9gjmUYC3X-119" target="XjzMZ7Z7NHH9gjmUYC3X-117">
          <mxGeometry width="50" height="50" relative="1" as="geometry">
            <mxPoint x="1775" y="506" as="sourcePoint" />
            <mxPoint x="1790" y="490" as="targetPoint" />
          </mxGeometry>
        </mxCell>
        <mxCell id="XjzMZ7Z7NHH9gjmUYC3X-122" value="torneos" style="whiteSpace=wrap;html=1;align=center;" vertex="1" parent="1">
          <mxGeometry x="535" y="1050" width="100" height="40" as="geometry" />
        </mxCell>
        <mxCell id="XjzMZ7Z7NHH9gjmUYC3X-123" value="id_torneo" style="ellipse;whiteSpace=wrap;html=1;align=center;fontStyle=4;" vertex="1" parent="1">
          <mxGeometry x="430" y="1140" width="100" height="40" as="geometry" />
        </mxCell>
        <mxCell id="XjzMZ7Z7NHH9gjmUYC3X-124" value="nombre" style="ellipse;whiteSpace=wrap;html=1;align=center;" vertex="1" parent="1">
          <mxGeometry x="540" y="1130" width="100" height="40" as="geometry" />
        </mxCell>
        <mxCell id="XjzMZ7Z7NHH9gjmUYC3X-125" value="id_colegio" style="ellipse;whiteSpace=wrap;html=1;align=center;" vertex="1" parent="1">
          <mxGeometry x="395" y="1090" width="100" height="40" as="geometry" />
        </mxCell>
        <mxCell id="XjzMZ7Z7NHH9gjmUYC3X-126" value="fecha_inicio" style="ellipse;whiteSpace=wrap;html=1;align=center;" vertex="1" parent="1">
          <mxGeometry x="650" y="1110" width="100" height="40" as="geometry" />
        </mxCell>
        <mxCell id="XjzMZ7Z7NHH9gjmUYC3X-127" value="fecha_fin" style="ellipse;whiteSpace=wrap;html=1;align=center;" vertex="1" parent="1">
          <mxGeometry x="690" y="1040" width="100" height="40" as="geometry" />
        </mxCell>
        <mxCell id="XjzMZ7Z7NHH9gjmUYC3X-128" value="estado" style="ellipse;whiteSpace=wrap;html=1;align=center;" vertex="1" parent="1">
          <mxGeometry x="570" y="990" width="100" height="40" as="geometry" />
        </mxCell>
        <mxCell id="XjzMZ7Z7NHH9gjmUYC3X-129" value="fecha_creacion" style="ellipse;whiteSpace=wrap;html=1;align=center;" vertex="1" parent="1">
          <mxGeometry x="420" y="990" width="100" height="40" as="geometry" />
        </mxCell>
        <mxCell id="XjzMZ7Z7NHH9gjmUYC3X-130" value="" style="endArrow=none;html=1;rounded=0;entryX=0.25;entryY=0.9;entryDx=0;entryDy=0;entryPerimeter=0;exitX=0.5;exitY=0;exitDx=0;exitDy=0;" edge="1" parent="1" source="XjzMZ7Z7NHH9gjmUYC3X-122" target="XjzMZ7Z7NHH9gjmUYC3X-128">
          <mxGeometry width="50" height="50" relative="1" as="geometry">
            <mxPoint x="210" y="1080" as="sourcePoint" />
            <mxPoint x="260" y="1030" as="targetPoint" />
          </mxGeometry>
        </mxCell>
        <mxCell id="XjzMZ7Z7NHH9gjmUYC3X-131" value="" style="endArrow=none;html=1;rounded=0;entryX=0;entryY=0.5;entryDx=0;entryDy=0;exitX=1;exitY=0.5;exitDx=0;exitDy=0;" edge="1" parent="1" source="XjzMZ7Z7NHH9gjmUYC3X-122" target="XjzMZ7Z7NHH9gjmUYC3X-127">
          <mxGeometry width="50" height="50" relative="1" as="geometry">
            <mxPoint x="600" y="1060" as="sourcePoint" />
            <mxPoint x="605" y="1036" as="targetPoint" />
          </mxGeometry>
        </mxCell>
        <mxCell id="XjzMZ7Z7NHH9gjmUYC3X-132" value="" style="endArrow=none;html=1;rounded=0;entryX=0;entryY=0;entryDx=0;entryDy=0;exitX=0.91;exitY=0.95;exitDx=0;exitDy=0;exitPerimeter=0;" edge="1" parent="1" source="XjzMZ7Z7NHH9gjmUYC3X-122" target="XjzMZ7Z7NHH9gjmUYC3X-126">
          <mxGeometry width="50" height="50" relative="1" as="geometry">
            <mxPoint x="610" y="1070" as="sourcePoint" />
            <mxPoint x="615" y="1046" as="targetPoint" />
          </mxGeometry>
        </mxCell>
        <mxCell id="XjzMZ7Z7NHH9gjmUYC3X-133" value="" style="endArrow=none;html=1;rounded=0;entryX=0.63;entryY=0.975;entryDx=0;entryDy=0;entryPerimeter=0;exitX=0.58;exitY=-0.05;exitDx=0;exitDy=0;exitPerimeter=0;" edge="1" parent="1" source="XjzMZ7Z7NHH9gjmUYC3X-124" target="XjzMZ7Z7NHH9gjmUYC3X-122">
          <mxGeometry width="50" height="50" relative="1" as="geometry">
            <mxPoint x="620" y="1080" as="sourcePoint" />
            <mxPoint x="625" y="1056" as="targetPoint" />
          </mxGeometry>
        </mxCell>
        <mxCell id="XjzMZ7Z7NHH9gjmUYC3X-134" value="" style="endArrow=none;html=1;rounded=0;exitX=0.19;exitY=0.975;exitDx=0;exitDy=0;exitPerimeter=0;entryX=1;entryY=0;entryDx=0;entryDy=0;" edge="1" parent="1" source="XjzMZ7Z7NHH9gjmUYC3X-122" target="XjzMZ7Z7NHH9gjmUYC3X-123">
          <mxGeometry width="50" height="50" relative="1" as="geometry">
            <mxPoint x="630" y="1090" as="sourcePoint" />
            <mxPoint x="530" y="1140" as="targetPoint" />
          </mxGeometry>
        </mxCell>
        <mxCell id="XjzMZ7Z7NHH9gjmUYC3X-135" value="" style="endArrow=none;html=1;rounded=0;entryX=1;entryY=0.5;entryDx=0;entryDy=0;exitX=0;exitY=0.5;exitDx=0;exitDy=0;" edge="1" parent="1" source="XjzMZ7Z7NHH9gjmUYC3X-122" target="XjzMZ7Z7NHH9gjmUYC3X-125">
          <mxGeometry width="50" height="50" relative="1" as="geometry">
            <mxPoint x="640" y="1100" as="sourcePoint" />
            <mxPoint x="645" y="1076" as="targetPoint" />
          </mxGeometry>
        </mxCell>
        <mxCell id="XjzMZ7Z7NHH9gjmUYC3X-136" value="" style="endArrow=none;html=1;rounded=0;entryX=1;entryY=1;entryDx=0;entryDy=0;exitX=0;exitY=0;exitDx=0;exitDy=0;" edge="1" parent="1" source="XjzMZ7Z7NHH9gjmUYC3X-122" target="XjzMZ7Z7NHH9gjmUYC3X-129">
          <mxGeometry width="50" height="50" relative="1" as="geometry">
            <mxPoint x="650" y="1110" as="sourcePoint" />
            <mxPoint x="655" y="1086" as="targetPoint" />
          </mxGeometry>
        </mxCell>
        <mxCell id="XjzMZ7Z7NHH9gjmUYC3X-137" value="" style="endArrow=none;html=1;rounded=0;exitX=0.5;exitY=1;exitDx=0;exitDy=0;entryX=0.5;entryY=0;entryDx=0;entryDy=0;" edge="1" parent="1" source="XjzMZ7Z7NHH9gjmUYC3X-5" target="XjzMZ7Z7NHH9gjmUYC3X-147">
          <mxGeometry width="50" height="50" relative="1" as="geometry">
            <mxPoint x="620" y="730" as="sourcePoint" />
            <mxPoint x="540" y="870" as="targetPoint" />
          </mxGeometry>
        </mxCell>
        <mxCell id="XjzMZ7Z7NHH9gjmUYC3X-138" value="" style="endArrow=none;html=1;rounded=0;entryX=0.5;entryY=1;entryDx=0;entryDy=0;exitX=0.25;exitY=0;exitDx=0;exitDy=0;" edge="1" parent="1" source="XjzMZ7Z7NHH9gjmUYC3X-122" target="XjzMZ7Z7NHH9gjmUYC3X-147">
          <mxGeometry width="50" height="50" relative="1" as="geometry">
            <mxPoint x="660" y="1020" as="sourcePoint" />
            <mxPoint x="710" y="970" as="targetPoint" />
          </mxGeometry>
        </mxCell>
        <mxCell id="XjzMZ7Z7NHH9gjmUYC3X-139" value="" style="endArrow=none;html=1;rounded=0;exitX=1;exitY=0.5;exitDx=0;exitDy=0;entryX=0;entryY=0.5;entryDx=0;entryDy=0;" edge="1" parent="1" source="XjzMZ7Z7NHH9gjmUYC3X-72" target="XjzMZ7Z7NHH9gjmUYC3X-150">
          <mxGeometry width="50" height="50" relative="1" as="geometry">
            <mxPoint x="1410" y="820" as="sourcePoint" />
            <mxPoint x="1650" y="740" as="targetPoint" />
          </mxGeometry>
        </mxCell>
        <mxCell id="XjzMZ7Z7NHH9gjmUYC3X-140" value="" style="endArrow=none;html=1;rounded=0;entryX=0.58;entryY=1.025;entryDx=0;entryDy=0;entryPerimeter=0;exitX=0.5;exitY=0;exitDx=0;exitDy=0;" edge="1" parent="1" source="XjzMZ7Z7NHH9gjmUYC3X-150" target="XjzMZ7Z7NHH9gjmUYC3X-117">
          <mxGeometry width="50" height="50" relative="1" as="geometry">
            <mxPoint x="1970" y="770" as="sourcePoint" />
            <mxPoint x="1975" y="746" as="targetPoint" />
          </mxGeometry>
        </mxCell>
        <mxCell id="XjzMZ7Z7NHH9gjmUYC3X-141" value="" style="endArrow=none;html=1;rounded=0;entryX=0.5;entryY=1;entryDx=0;entryDy=0;exitX=0;exitY=0.5;exitDx=0;exitDy=0;" edge="1" parent="1" source="XjzMZ7Z7NHH9gjmUYC3X-98" target="XjzMZ7Z7NHH9gjmUYC3X-150">
          <mxGeometry width="50" height="50" relative="1" as="geometry">
            <mxPoint x="1670" y="920" as="sourcePoint" />
            <mxPoint x="1720" y="870" as="targetPoint" />
          </mxGeometry>
        </mxCell>
        <mxCell id="XjzMZ7Z7NHH9gjmUYC3X-142" value="" style="endArrow=none;html=1;rounded=0;entryX=0.25;entryY=0;entryDx=0;entryDy=0;exitX=0.5;exitY=1;exitDx=0;exitDy=0;" edge="1" parent="1" target="XjzMZ7Z7NHH9gjmUYC3X-59">
          <mxGeometry width="50" height="50" relative="1" as="geometry">
            <mxPoint x="1130" y="340" as="sourcePoint" />
            <mxPoint x="720" y="430" as="targetPoint" />
          </mxGeometry>
        </mxCell>
        <mxCell id="XjzMZ7Z7NHH9gjmUYC3X-143" value="" style="endArrow=none;html=1;rounded=0;entryX=0.5;entryY=0;entryDx=0;entryDy=0;exitX=0.75;exitY=1;exitDx=0;exitDy=0;" edge="1" parent="1" source="XjzMZ7Z7NHH9gjmUYC3X-32" target="XjzMZ7Z7NHH9gjmUYC3X-169">
          <mxGeometry width="50" height="50" relative="1" as="geometry">
            <mxPoint x="1088" y="80" as="sourcePoint" />
            <mxPoint x="1010" y="298" as="targetPoint" />
          </mxGeometry>
        </mxCell>
        <mxCell id="XjzMZ7Z7NHH9gjmUYC3X-144" value="" style="endArrow=none;html=1;rounded=0;entryX=1;entryY=1;entryDx=0;entryDy=0;exitX=0;exitY=0;exitDx=0;exitDy=0;" edge="1" parent="1" source="XjzMZ7Z7NHH9gjmUYC3X-179" target="XjzMZ7Z7NHH9gjmUYC3X-85">
          <mxGeometry width="50" height="50" relative="1" as="geometry">
            <mxPoint x="130" y="1100" as="sourcePoint" />
            <mxPoint x="360" y="1130" as="targetPoint" />
          </mxGeometry>
        </mxCell>
        <mxCell id="XjzMZ7Z7NHH9gjmUYC3X-145" value="" style="endArrow=none;html=1;rounded=0;entryX=0;entryY=0.25;entryDx=0;entryDy=0;exitX=0.825;exitY=0.333;exitDx=0;exitDy=0;exitPerimeter=0;" edge="1" parent="1" source="XjzMZ7Z7NHH9gjmUYC3X-179" target="XjzMZ7Z7NHH9gjmUYC3X-122">
          <mxGeometry width="50" height="50" relative="1" as="geometry">
            <mxPoint x="250" y="1100" as="sourcePoint" />
            <mxPoint x="360" y="1130" as="targetPoint" />
          </mxGeometry>
        </mxCell>
        <mxCell id="XjzMZ7Z7NHH9gjmUYC3X-146" value="" style="group" vertex="1" connectable="0" parent="1">
          <mxGeometry x="440" y="860" width="175" height="60" as="geometry" />
        </mxCell>
        <mxCell id="XjzMZ7Z7NHH9gjmUYC3X-147" value="Juegan" style="shape=rhombus;perimeter=rhombusPerimeter;whiteSpace=wrap;html=1;align=center;" vertex="1" parent="XjzMZ7Z7NHH9gjmUYC3X-146">
          <mxGeometry width="120" height="60" as="geometry" />
        </mxCell>
        <mxCell id="XjzMZ7Z7NHH9gjmUYC3X-148" value="(1:n)" style="text;html=1;align=center;verticalAlign=middle;whiteSpace=wrap;rounded=0;" vertex="1" parent="XjzMZ7Z7NHH9gjmUYC3X-146">
          <mxGeometry x="115" y="15" width="60" height="30" as="geometry" />
        </mxCell>
        <mxCell id="XjzMZ7Z7NHH9gjmUYC3X-149" value="" style="group" vertex="1" connectable="0" parent="1">
          <mxGeometry x="1630" y="725" width="120" height="105" as="geometry" />
        </mxCell>
        <mxCell id="XjzMZ7Z7NHH9gjmUYC3X-150" value="Tienen" style="shape=rhombus;perimeter=rhombusPerimeter;whiteSpace=wrap;html=1;align=center;" vertex="1" parent="XjzMZ7Z7NHH9gjmUYC3X-149">
          <mxGeometry y="15" width="120" height="60" as="geometry" />
        </mxCell>
        <mxCell id="XjzMZ7Z7NHH9gjmUYC3X-151" value="(1:1)" style="text;html=1;align=center;verticalAlign=middle;whiteSpace=wrap;rounded=0;" vertex="1" parent="XjzMZ7Z7NHH9gjmUYC3X-149">
          <mxGeometry width="60" height="30" as="geometry" />
        </mxCell>
        <mxCell id="XjzMZ7Z7NHH9gjmUYC3X-152" value="" style="endArrow=none;html=1;rounded=0;exitX=1;exitY=0.25;exitDx=0;exitDy=0;entryX=0;entryY=0.5;entryDx=0;entryDy=0;" edge="1" parent="1" source="XjzMZ7Z7NHH9gjmUYC3X-36" target="XjzMZ7Z7NHH9gjmUYC3X-154">
          <mxGeometry width="50" height="50" relative="1" as="geometry">
            <mxPoint x="1570" y="1090" as="sourcePoint" />
            <mxPoint x="1700" y="1160" as="targetPoint" />
          </mxGeometry>
        </mxCell>
        <mxCell id="XjzMZ7Z7NHH9gjmUYC3X-153" value="" style="group" vertex="1" connectable="0" parent="1">
          <mxGeometry x="1760" y="1190" width="120" height="90" as="geometry" />
        </mxCell>
        <mxCell id="XjzMZ7Z7NHH9gjmUYC3X-154" value="Tienen" style="shape=rhombus;perimeter=rhombusPerimeter;whiteSpace=wrap;html=1;align=center;" vertex="1" parent="XjzMZ7Z7NHH9gjmUYC3X-153">
          <mxGeometry y="30" width="120" height="60" as="geometry" />
        </mxCell>
        <mxCell id="XjzMZ7Z7NHH9gjmUYC3X-155" value="(1:n)" style="text;html=1;align=center;verticalAlign=middle;whiteSpace=wrap;rounded=0;" vertex="1" parent="XjzMZ7Z7NHH9gjmUYC3X-153">
          <mxGeometry x="30" width="60" height="30" as="geometry" />
        </mxCell>
        <mxCell id="XjzMZ7Z7NHH9gjmUYC3X-156" value="" style="endArrow=none;html=1;rounded=0;entryX=0.5;entryY=1;entryDx=0;entryDy=0;exitX=0.5;exitY=0;exitDx=0;exitDy=0;" edge="1" parent="1" source="XjzMZ7Z7NHH9gjmUYC3X-180" target="XjzMZ7Z7NHH9gjmUYC3X-1">
          <mxGeometry width="50" height="50" relative="1" as="geometry">
            <mxPoint x="240" y="190" as="sourcePoint" />
            <mxPoint x="320" y="420" as="targetPoint" />
          </mxGeometry>
        </mxCell>
        <mxCell id="XjzMZ7Z7NHH9gjmUYC3X-157" value="" style="endArrow=none;html=1;rounded=0;exitX=1.008;exitY=0.625;exitDx=0;exitDy=0;exitPerimeter=0;entryX=0;entryY=0.5;entryDx=0;entryDy=0;" edge="1" parent="1" source="XjzMZ7Z7NHH9gjmUYC3X-5" target="XjzMZ7Z7NHH9gjmUYC3X-160">
          <mxGeometry width="50" height="50" relative="1" as="geometry">
            <mxPoint x="590" y="570" as="sourcePoint" />
            <mxPoint x="940" y="760" as="targetPoint" />
          </mxGeometry>
        </mxCell>
        <mxCell id="XjzMZ7Z7NHH9gjmUYC3X-158" value="" style="endArrow=none;html=1;rounded=0;entryX=0;entryY=0.25;entryDx=0;entryDy=0;exitX=1;exitY=0.5;exitDx=0;exitDy=0;" edge="1" parent="1" source="XjzMZ7Z7NHH9gjmUYC3X-160" target="XjzMZ7Z7NHH9gjmUYC3X-72">
          <mxGeometry width="50" height="50" relative="1" as="geometry">
            <mxPoint x="590" y="570" as="sourcePoint" />
            <mxPoint x="640" y="520" as="targetPoint" />
          </mxGeometry>
        </mxCell>
        <mxCell id="XjzMZ7Z7NHH9gjmUYC3X-159" value="" style="group" connectable="0" vertex="1" parent="1">
          <mxGeometry x="850" y="655" width="160" height="120" as="geometry" />
        </mxCell>
        <mxCell id="XjzMZ7Z7NHH9gjmUYC3X-160" value="Está compuesto de" style="shape=rhombus;perimeter=rhombusPerimeter;whiteSpace=wrap;html=1;align=center;" vertex="1" parent="XjzMZ7Z7NHH9gjmUYC3X-159">
          <mxGeometry y="30" width="160" height="90" as="geometry" />
        </mxCell>
        <mxCell id="XjzMZ7Z7NHH9gjmUYC3X-161" value="(1:n)" style="text;html=1;align=center;verticalAlign=middle;whiteSpace=wrap;rounded=0;" vertex="1" parent="XjzMZ7Z7NHH9gjmUYC3X-159">
          <mxGeometry x="50" width="60" height="30" as="geometry" />
        </mxCell>
        <mxCell id="XjzMZ7Z7NHH9gjmUYC3X-162" value="" style="endArrow=none;html=1;rounded=0;exitX=1;exitY=0.75;exitDx=0;exitDy=0;entryX=0.344;entryY=0.183;entryDx=0;entryDy=0;entryPerimeter=0;" edge="1" parent="1" source="XjzMZ7Z7NHH9gjmUYC3X-122" target="XjzMZ7Z7NHH9gjmUYC3X-165">
          <mxGeometry relative="1" as="geometry">
            <mxPoint x="830" y="1064" as="sourcePoint" />
            <mxPoint x="940" y="1160" as="targetPoint" />
          </mxGeometry>
        </mxCell>
        <mxCell id="XjzMZ7Z7NHH9gjmUYC3X-163" value="" style="endArrow=none;html=1;rounded=0;entryX=0;entryY=0;entryDx=0;entryDy=0;exitX=1;exitY=0.5;exitDx=0;exitDy=0;" edge="1" parent="1" source="XjzMZ7Z7NHH9gjmUYC3X-165" target="XjzMZ7Z7NHH9gjmUYC3X-36">
          <mxGeometry width="50" height="50" relative="1" as="geometry">
            <mxPoint x="840" y="1070" as="sourcePoint" />
            <mxPoint x="890" y="1020" as="targetPoint" />
          </mxGeometry>
        </mxCell>
        <mxCell id="XjzMZ7Z7NHH9gjmUYC3X-164" value="" style="group" connectable="0" vertex="1" parent="1">
          <mxGeometry x="880" y="1095" width="140" height="110" as="geometry" />
        </mxCell>
        <mxCell id="XjzMZ7Z7NHH9gjmUYC3X-165" value="Está compuesto de" style="shape=rhombus;perimeter=rhombusPerimeter;whiteSpace=wrap;html=1;align=center;" vertex="1" parent="XjzMZ7Z7NHH9gjmUYC3X-164">
          <mxGeometry y="30" width="140" height="80" as="geometry" />
        </mxCell>
        <mxCell id="XjzMZ7Z7NHH9gjmUYC3X-166" value="(1:n)" style="text;html=1;align=center;verticalAlign=middle;whiteSpace=wrap;rounded=0;" vertex="1" parent="XjzMZ7Z7NHH9gjmUYC3X-164">
          <mxGeometry x="40" width="60" height="30" as="geometry" />
        </mxCell>
        <mxCell id="XjzMZ7Z7NHH9gjmUYC3X-167" value="" style="endArrow=none;html=1;rounded=0;exitX=1;exitY=0.5;exitDx=0;exitDy=0;entryX=0;entryY=0.5;entryDx=0;entryDy=0;" edge="1" parent="1" source="XjzMZ7Z7NHH9gjmUYC3X-16" target="XjzMZ7Z7NHH9gjmUYC3X-169">
          <mxGeometry width="50" height="50" relative="1" as="geometry">
            <mxPoint x="820" y="470" as="sourcePoint" />
            <mxPoint x="870" y="420" as="targetPoint" />
          </mxGeometry>
        </mxCell>
        <mxCell id="XjzMZ7Z7NHH9gjmUYC3X-168" value="" style="group" connectable="0" vertex="1" parent="1">
          <mxGeometry x="1010" y="300" width="210" height="60" as="geometry" />
        </mxCell>
        <mxCell id="XjzMZ7Z7NHH9gjmUYC3X-169" value="Tienen" style="shape=rhombus;perimeter=rhombusPerimeter;whiteSpace=wrap;html=1;align=center;" vertex="1" parent="XjzMZ7Z7NHH9gjmUYC3X-168">
          <mxGeometry x="50" width="120" height="60" as="geometry" />
        </mxCell>
        <mxCell id="XjzMZ7Z7NHH9gjmUYC3X-170" value="(1:n)" style="text;html=1;align=center;verticalAlign=middle;whiteSpace=wrap;rounded=0;" vertex="1" parent="XjzMZ7Z7NHH9gjmUYC3X-168">
          <mxGeometry x="150" width="60" height="30" as="geometry" />
        </mxCell>
        <mxCell id="XjzMZ7Z7NHH9gjmUYC3X-171" value="(1:n)" style="text;html=1;align=center;verticalAlign=middle;whiteSpace=wrap;rounded=0;" vertex="1" parent="XjzMZ7Z7NHH9gjmUYC3X-168">
          <mxGeometry y="5" width="60" height="30" as="geometry" />
        </mxCell>
        <mxCell id="XjzMZ7Z7NHH9gjmUYC3X-172" value="" style="endArrow=none;html=1;rounded=0;entryX=0.75;entryY=1;entryDx=0;entryDy=0;exitX=0.5;exitY=0;exitDx=0;exitDy=0;" edge="1" parent="1" source="XjzMZ7Z7NHH9gjmUYC3X-175" target="XjzMZ7Z7NHH9gjmUYC3X-1">
          <mxGeometry width="50" height="50" relative="1" as="geometry">
            <mxPoint x="610" y="260" as="sourcePoint" />
            <mxPoint x="340" y="240" as="targetPoint" />
          </mxGeometry>
        </mxCell>
        <mxCell id="XjzMZ7Z7NHH9gjmUYC3X-173" value="" style="endArrow=none;html=1;rounded=0;exitX=0;exitY=0;exitDx=0;exitDy=0;entryX=1;entryY=1;entryDx=0;entryDy=0;" edge="1" parent="1" source="XjzMZ7Z7NHH9gjmUYC3X-16" target="XjzMZ7Z7NHH9gjmUYC3X-175">
          <mxGeometry width="50" height="50" relative="1" as="geometry">
            <mxPoint x="290" y="190" as="sourcePoint" />
            <mxPoint x="340" y="140" as="targetPoint" />
          </mxGeometry>
        </mxCell>
        <mxCell id="XjzMZ7Z7NHH9gjmUYC3X-174" value="" style="group" connectable="0" vertex="1" parent="1">
          <mxGeometry x="400" y="110" width="170" height="80" as="geometry" />
        </mxCell>
        <mxCell id="XjzMZ7Z7NHH9gjmUYC3X-175" value="Tiene sus respectivos" style="shape=rhombus;perimeter=rhombusPerimeter;whiteSpace=wrap;html=1;align=center;" vertex="1" parent="XjzMZ7Z7NHH9gjmUYC3X-174">
          <mxGeometry width="160" height="80" as="geometry" />
        </mxCell>
        <mxCell id="XjzMZ7Z7NHH9gjmUYC3X-176" value="(1:1)" style="text;html=1;align=center;verticalAlign=middle;whiteSpace=wrap;rounded=0;" vertex="1" parent="XjzMZ7Z7NHH9gjmUYC3X-174">
          <mxGeometry x="110" width="60" height="30" as="geometry" />
        </mxCell>
        <mxCell id="XjzMZ7Z7NHH9gjmUYC3X-177" value="" style="group" connectable="0" vertex="1" parent="1">
          <mxGeometry x="130" y="1040" width="120" height="90" as="geometry" />
        </mxCell>
        <mxCell id="XjzMZ7Z7NHH9gjmUYC3X-178" value="(1:1)" style="text;html=1;align=center;verticalAlign=middle;whiteSpace=wrap;rounded=0;" vertex="1" parent="XjzMZ7Z7NHH9gjmUYC3X-177">
          <mxGeometry x="30" width="60" height="30" as="geometry" />
        </mxCell>
        <mxCell id="XjzMZ7Z7NHH9gjmUYC3X-179" value="Organizan" style="shape=rhombus;perimeter=rhombusPerimeter;whiteSpace=wrap;html=1;align=center;" vertex="1" parent="XjzMZ7Z7NHH9gjmUYC3X-177">
          <mxGeometry y="30" width="120" height="60" as="geometry" />
        </mxCell>
        <mxCell id="XjzMZ7Z7NHH9gjmUYC3X-180" value="Tienen" style="shape=rhombus;perimeter=rhombusPerimeter;whiteSpace=wrap;html=1;align=center;" vertex="1" parent="1">
          <mxGeometry x="200" y="110" width="120" height="60" as="geometry" />
        </mxCell>
        <mxCell id="XjzMZ7Z7NHH9gjmUYC3X-181" value="" style="endArrow=none;html=1;rounded=0;entryX=0.342;entryY=0.85;entryDx=0;entryDy=0;entryPerimeter=0;exitX=0.5;exitY=0;exitDx=0;exitDy=0;" edge="1" parent="1" source="XjzMZ7Z7NHH9gjmUYC3X-24" target="XjzMZ7Z7NHH9gjmUYC3X-180">
          <mxGeometry width="50" height="50" relative="1" as="geometry">
            <mxPoint x="350" y="240" as="sourcePoint" />
            <mxPoint x="400" y="190" as="targetPoint" />
          </mxGeometry>
        </mxCell>
        <mxCell id="XjzMZ7Z7NHH9gjmUYC3X-182" value="" style="endArrow=none;html=1;rounded=0;exitX=1;exitY=0.5;exitDx=0;exitDy=0;entryX=0;entryY=0.5;entryDx=0;entryDy=0;" edge="1" parent="1" source="XjzMZ7Z7NHH9gjmUYC3X-154" target="XjzMZ7Z7NHH9gjmUYC3X-183">
          <mxGeometry width="50" height="50" relative="1" as="geometry">
            <mxPoint x="1810" y="1160" as="sourcePoint" />
            <mxPoint x="2180" y="1280" as="targetPoint" />
          </mxGeometry>
        </mxCell>
        <mxCell id="XjzMZ7Z7NHH9gjmUYC3X-183" value="incidencia" style="whiteSpace=wrap;html=1;align=center;" vertex="1" parent="1">
          <mxGeometry x="2320" y="1210" width="100" height="40" as="geometry" />
        </mxCell>
        <mxCell id="XjzMZ7Z7NHH9gjmUYC3X-184" value="" style="endArrow=none;html=1;rounded=0;entryX=0;entryY=1;entryDx=0;entryDy=0;exitX=0.896;exitY=0.3;exitDx=0;exitDy=0;exitPerimeter=0;" edge="1" parent="1" source="XjzMZ7Z7NHH9gjmUYC3X-185" target="XjzMZ7Z7NHH9gjmUYC3X-183">
          <mxGeometry width="50" height="50" relative="1" as="geometry">
            <mxPoint x="2146" y="1390" as="sourcePoint" />
            <mxPoint x="1916" y="1410" as="targetPoint" />
          </mxGeometry>
        </mxCell>
        <mxCell id="XjzMZ7Z7NHH9gjmUYC3X-185" value="minuto" style="ellipse;whiteSpace=wrap;html=1;align=center;" vertex="1" parent="1">
          <mxGeometry x="2186" y="1270" width="100" height="40" as="geometry" />
        </mxCell>
        <mxCell id="XjzMZ7Z7NHH9gjmUYC3X-186" value="" style="endArrow=none;html=1;rounded=0;entryX=0.592;entryY=1.05;entryDx=0;entryDy=0;entryPerimeter=0;exitX=0.5;exitY=0;exitDx=0;exitDy=0;" edge="1" parent="1" source="XjzMZ7Z7NHH9gjmUYC3X-187" target="XjzMZ7Z7NHH9gjmUYC3X-183">
          <mxGeometry width="50" height="50" relative="1" as="geometry">
            <mxPoint x="2246" y="1450" as="sourcePoint" />
            <mxPoint x="1916" y="1490" as="targetPoint" />
          </mxGeometry>
        </mxCell>
        <mxCell id="XjzMZ7Z7NHH9gjmUYC3X-187" value="Tiene" style="shape=rhombus;perimeter=rhombusPerimeter;whiteSpace=wrap;html=1;align=center;" vertex="1" parent="1">
          <mxGeometry x="2260" y="1520" width="120" height="60" as="geometry" />
        </mxCell>
        <mxCell id="XjzMZ7Z7NHH9gjmUYC3X-188" value="" style="endArrow=none;html=1;rounded=0;exitX=0.5;exitY=1;exitDx=0;exitDy=0;" edge="1" parent="1" source="XjzMZ7Z7NHH9gjmUYC3X-187" target="XjzMZ7Z7NHH9gjmUYC3X-189">
          <mxGeometry width="50" height="50" relative="1" as="geometry">
            <mxPoint x="2190" y="1380" as="sourcePoint" />
            <mxPoint x="2150" y="1510" as="targetPoint" />
          </mxGeometry>
        </mxCell>
        <mxCell id="XjzMZ7Z7NHH9gjmUYC3X-189" value="tipo_incidencia" style="whiteSpace=wrap;html=1;align=center;" vertex="1" parent="1">
          <mxGeometry x="1860" y="1670" width="100" height="40" as="geometry" />
        </mxCell>
        <mxCell id="XjzMZ7Z7NHH9gjmUYC3X-190" value="" style="endArrow=none;html=1;rounded=0;entryX=0.426;entryY=1.01;entryDx=0;entryDy=0;entryPerimeter=0;exitX=0.8;exitY=0.13;exitDx=0;exitDy=0;exitPerimeter=0;" edge="1" parent="1" source="XjzMZ7Z7NHH9gjmUYC3X-191" target="XjzMZ7Z7NHH9gjmUYC3X-189">
          <mxGeometry width="50" height="50" relative="1" as="geometry">
            <mxPoint x="1825" y="1720" as="sourcePoint" />
            <mxPoint x="1665" y="1680" as="targetPoint" />
          </mxGeometry>
        </mxCell>
        <mxCell id="XjzMZ7Z7NHH9gjmUYC3X-191" value="id_incidencia" style="ellipse;whiteSpace=wrap;html=1;align=center;fontStyle=4;" vertex="1" parent="1">
          <mxGeometry x="1785" y="1730" width="100" height="40" as="geometry" />
        </mxCell>
        <mxCell id="XjzMZ7Z7NHH9gjmUYC3X-192" value="" style="endArrow=none;html=1;rounded=0;entryX=0.202;entryY=-0.002;entryDx=0;entryDy=0;entryPerimeter=0;exitX=0.783;exitY=0.717;exitDx=0;exitDy=0;exitPerimeter=0;" edge="1" parent="1" source="XjzMZ7Z7NHH9gjmUYC3X-195" target="XjzMZ7Z7NHH9gjmUYC3X-183">
          <mxGeometry width="50" height="50" relative="1" as="geometry">
            <mxPoint x="2030" y="1170" as="sourcePoint" />
            <mxPoint x="2196" y="1350" as="targetPoint" />
          </mxGeometry>
        </mxCell>
        <mxCell id="XjzMZ7Z7NHH9gjmUYC3X-193" value="" style="endArrow=none;html=1;rounded=0;entryX=1;entryY=1;entryDx=0;entryDy=0;exitX=0;exitY=0.5;exitDx=0;exitDy=0;" edge="1" parent="1" source="XjzMZ7Z7NHH9gjmUYC3X-195" target="XjzMZ7Z7NHH9gjmUYC3X-72">
          <mxGeometry width="50" height="50" relative="1" as="geometry">
            <mxPoint x="1680" y="1100" as="sourcePoint" />
            <mxPoint x="1730" y="1050" as="targetPoint" />
          </mxGeometry>
        </mxCell>
        <mxCell id="XjzMZ7Z7NHH9gjmUYC3X-194" value="" style="group" vertex="1" connectable="0" parent="1">
          <mxGeometry x="1680" y="980" width="170" height="129" as="geometry" />
        </mxCell>
        <mxCell id="XjzMZ7Z7NHH9gjmUYC3X-195" value="Pueden involucrarse en" style="shape=rhombus;perimeter=rhombusPerimeter;whiteSpace=wrap;html=1;align=center;" vertex="1" parent="XjzMZ7Z7NHH9gjmUYC3X-194">
          <mxGeometry y="30" width="170" height="99" as="geometry" />
        </mxCell>
        <mxCell id="XjzMZ7Z7NHH9gjmUYC3X-196" value="(1:n)" style="text;html=1;align=center;verticalAlign=middle;whiteSpace=wrap;rounded=0;" vertex="1" parent="XjzMZ7Z7NHH9gjmUYC3X-194">
          <mxGeometry x="55" width="60" height="30" as="geometry" />
        </mxCell>
      </root>
    </mxGraphModel>
  </diagram>
  <diagram id="k6VIRSiSdd2ImU9YU5Az" name="Modelo_Relacional_Grupo_C">
    <mxGraphModel dx="3434" dy="2704" grid="1" gridSize="10" guides="1" tooltips="1" connect="1" arrows="1" fold="1" page="1" pageScale="1" pageWidth="827" pageHeight="1169" math="0" shadow="0">
      <root>
        <mxCell id="0" />
        <mxCell id="1" parent="0" />
        <mxCell id="Ljxgw_pO9pq_WJSmn5HZ-1" value="" style="shape=partialRectangle;connectable=0;fillColor=none;top=0;left=0;bottom=0;right=0;editable=1;overflow=hidden;whiteSpace=wrap;html=1;" vertex="1" parent="1">
          <mxGeometry x="-480" y="470" width="30" height="30" as="geometry">
            <mxRectangle width="30" height="30" as="alternateBounds" />
          </mxGeometry>
        </mxCell>
        <mxCell id="Ljxgw_pO9pq_WJSmn5HZ-2" value="" style="shape=partialRectangle;connectable=0;fillColor=none;top=0;left=0;bottom=0;right=0;editable=1;overflow=hidden;whiteSpace=wrap;html=1;" vertex="1" parent="1">
          <mxGeometry x="-480" y="560" width="30" height="30" as="geometry">
            <mxRectangle width="30" height="30" as="alternateBounds" />
          </mxGeometry>
        </mxCell>
        <mxCell id="Ljxgw_pO9pq_WJSmn5HZ-3" value="" style="shape=partialRectangle;connectable=0;fillColor=none;top=0;left=0;bottom=0;right=0;editable=1;overflow=hidden;whiteSpace=wrap;html=1;" vertex="1" parent="1">
          <mxGeometry x="-480" y="590" width="30" height="30" as="geometry">
            <mxRectangle width="30" height="30" as="alternateBounds" />
          </mxGeometry>
        </mxCell>
        <mxCell id="Ljxgw_pO9pq_WJSmn5HZ-4" value="estadistica" style="shape=table;startSize=40;container=1;collapsible=1;childLayout=tableLayout;fixedRows=1;rowLines=0;fontStyle=1;align=center;resizeLast=1;html=1;" vertex="1" parent="1">
          <mxGeometry x="-430" y="210" width="180" height="310" as="geometry">
            <mxRectangle x="240" y="30" width="80" height="30" as="alternateBounds" />
          </mxGeometry>
        </mxCell>
        <mxCell id="Ljxgw_pO9pq_WJSmn5HZ-5" value="" style="shape=tableRow;horizontal=0;startSize=0;swimlaneHead=0;swimlaneBody=0;fillColor=none;collapsible=0;dropTarget=0;points=[[0,0.5],[1,0.5]];portConstraint=eastwest;top=0;left=0;right=0;bottom=1;" vertex="1" parent="Ljxgw_pO9pq_WJSmn5HZ-4">
          <mxGeometry y="40" width="180" height="30" as="geometry" />
        </mxCell>
        <mxCell id="Ljxgw_pO9pq_WJSmn5HZ-6" value="PK" style="shape=partialRectangle;connectable=0;fillColor=none;top=0;left=0;bottom=0;right=0;fontStyle=1;overflow=hidden;whiteSpace=wrap;html=1;" vertex="1" parent="Ljxgw_pO9pq_WJSmn5HZ-5">
          <mxGeometry width="30" height="30" as="geometry">
            <mxRectangle width="30" height="30" as="alternateBounds" />
          </mxGeometry>
        </mxCell>
        <mxCell id="Ljxgw_pO9pq_WJSmn5HZ-7" value="id_estadistica" style="shape=partialRectangle;connectable=0;fillColor=none;top=0;left=0;bottom=0;right=0;align=left;spacingLeft=6;fontStyle=5;overflow=hidden;whiteSpace=wrap;html=1;" vertex="1" parent="Ljxgw_pO9pq_WJSmn5HZ-5">
          <mxGeometry x="30" width="150" height="30" as="geometry">
            <mxRectangle width="150" height="30" as="alternateBounds" />
          </mxGeometry>
        </mxCell>
        <mxCell id="Ljxgw_pO9pq_WJSmn5HZ-8" value="" style="shape=tableRow;horizontal=0;startSize=0;swimlaneHead=0;swimlaneBody=0;fillColor=none;collapsible=0;dropTarget=0;points=[[0,0.5],[1,0.5]];portConstraint=eastwest;top=0;left=0;right=0;bottom=0;" vertex="1" parent="Ljxgw_pO9pq_WJSmn5HZ-4">
          <mxGeometry y="70" width="180" height="30" as="geometry" />
        </mxCell>
        <mxCell id="Ljxgw_pO9pq_WJSmn5HZ-9" value="FK" style="shape=partialRectangle;connectable=0;fillColor=none;top=0;left=0;bottom=0;right=0;editable=1;overflow=hidden;whiteSpace=wrap;html=1;" vertex="1" parent="Ljxgw_pO9pq_WJSmn5HZ-8">
          <mxGeometry width="30" height="30" as="geometry">
            <mxRectangle width="30" height="30" as="alternateBounds" />
          </mxGeometry>
        </mxCell>
        <mxCell id="Ljxgw_pO9pq_WJSmn5HZ-10" value="id_jugador" style="shape=partialRectangle;connectable=0;fillColor=none;top=0;left=0;bottom=0;right=0;align=left;spacingLeft=6;overflow=hidden;whiteSpace=wrap;html=1;" vertex="1" parent="Ljxgw_pO9pq_WJSmn5HZ-8">
          <mxGeometry x="30" width="150" height="30" as="geometry">
            <mxRectangle width="150" height="30" as="alternateBounds" />
          </mxGeometry>
        </mxCell>
        <mxCell id="Ljxgw_pO9pq_WJSmn5HZ-11" value="" style="shape=tableRow;horizontal=0;startSize=0;swimlaneHead=0;swimlaneBody=0;fillColor=none;collapsible=0;dropTarget=0;points=[[0,0.5],[1,0.5]];portConstraint=eastwest;top=0;left=0;right=0;bottom=0;" vertex="1" parent="Ljxgw_pO9pq_WJSmn5HZ-4">
          <mxGeometry y="100" width="180" height="30" as="geometry" />
        </mxCell>
        <mxCell id="Ljxgw_pO9pq_WJSmn5HZ-12" value="FK" style="shape=partialRectangle;connectable=0;fillColor=none;top=0;left=0;bottom=0;right=0;editable=1;overflow=hidden;whiteSpace=wrap;html=1;" vertex="1" parent="Ljxgw_pO9pq_WJSmn5HZ-11">
          <mxGeometry width="30" height="30" as="geometry">
            <mxRectangle width="30" height="30" as="alternateBounds" />
          </mxGeometry>
        </mxCell>
        <mxCell id="Ljxgw_pO9pq_WJSmn5HZ-13" value="id_partido" style="shape=partialRectangle;connectable=0;fillColor=none;top=0;left=0;bottom=0;right=0;align=left;spacingLeft=6;overflow=hidden;whiteSpace=wrap;html=1;" vertex="1" parent="Ljxgw_pO9pq_WJSmn5HZ-11">
          <mxGeometry x="30" width="150" height="30" as="geometry">
            <mxRectangle width="150" height="30" as="alternateBounds" />
          </mxGeometry>
        </mxCell>
        <mxCell id="Ljxgw_pO9pq_WJSmn5HZ-14" value="" style="shape=tableRow;horizontal=0;startSize=0;swimlaneHead=0;swimlaneBody=0;fillColor=none;collapsible=0;dropTarget=0;points=[[0,0.5],[1,0.5]];portConstraint=eastwest;top=0;left=0;right=0;bottom=0;" vertex="1" parent="Ljxgw_pO9pq_WJSmn5HZ-4">
          <mxGeometry y="130" width="180" height="30" as="geometry" />
        </mxCell>
        <mxCell id="Ljxgw_pO9pq_WJSmn5HZ-15" value="" style="shape=partialRectangle;connectable=0;fillColor=none;top=0;left=0;bottom=0;right=0;editable=1;overflow=hidden;whiteSpace=wrap;html=1;" vertex="1" parent="Ljxgw_pO9pq_WJSmn5HZ-14">
          <mxGeometry width="30" height="30" as="geometry">
            <mxRectangle width="30" height="30" as="alternateBounds" />
          </mxGeometry>
        </mxCell>
        <mxCell id="Ljxgw_pO9pq_WJSmn5HZ-16" value="goles" style="shape=partialRectangle;connectable=0;fillColor=none;top=0;left=0;bottom=0;right=0;align=left;spacingLeft=6;overflow=hidden;whiteSpace=wrap;html=1;" vertex="1" parent="Ljxgw_pO9pq_WJSmn5HZ-14">
          <mxGeometry x="30" width="150" height="30" as="geometry">
            <mxRectangle width="150" height="30" as="alternateBounds" />
          </mxGeometry>
        </mxCell>
        <mxCell id="Ljxgw_pO9pq_WJSmn5HZ-17" value="" style="shape=tableRow;horizontal=0;startSize=0;swimlaneHead=0;swimlaneBody=0;fillColor=none;collapsible=0;dropTarget=0;points=[[0,0.5],[1,0.5]];portConstraint=eastwest;top=0;left=0;right=0;bottom=0;" vertex="1" parent="Ljxgw_pO9pq_WJSmn5HZ-4">
          <mxGeometry y="160" width="180" height="30" as="geometry" />
        </mxCell>
        <mxCell id="Ljxgw_pO9pq_WJSmn5HZ-18" value="" style="shape=partialRectangle;connectable=0;fillColor=none;top=0;left=0;bottom=0;right=0;editable=1;overflow=hidden;whiteSpace=wrap;html=1;" vertex="1" parent="Ljxgw_pO9pq_WJSmn5HZ-17">
          <mxGeometry width="30" height="30" as="geometry">
            <mxRectangle width="30" height="30" as="alternateBounds" />
          </mxGeometry>
        </mxCell>
        <mxCell id="Ljxgw_pO9pq_WJSmn5HZ-19" value="asistencias" style="shape=partialRectangle;connectable=0;fillColor=none;top=0;left=0;bottom=0;right=0;align=left;spacingLeft=6;overflow=hidden;whiteSpace=wrap;html=1;" vertex="1" parent="Ljxgw_pO9pq_WJSmn5HZ-17">
          <mxGeometry x="30" width="150" height="30" as="geometry">
            <mxRectangle width="150" height="30" as="alternateBounds" />
          </mxGeometry>
        </mxCell>
        <mxCell id="Ljxgw_pO9pq_WJSmn5HZ-20" value="" style="shape=tableRow;horizontal=0;startSize=0;swimlaneHead=0;swimlaneBody=0;fillColor=none;collapsible=0;dropTarget=0;points=[[0,0.5],[1,0.5]];portConstraint=eastwest;top=0;left=0;right=0;bottom=0;" vertex="1" parent="Ljxgw_pO9pq_WJSmn5HZ-4">
          <mxGeometry y="190" width="180" height="30" as="geometry" />
        </mxCell>
        <mxCell id="Ljxgw_pO9pq_WJSmn5HZ-21" value="" style="shape=partialRectangle;connectable=0;fillColor=none;top=0;left=0;bottom=0;right=0;editable=1;overflow=hidden;whiteSpace=wrap;html=1;" vertex="1" parent="Ljxgw_pO9pq_WJSmn5HZ-20">
          <mxGeometry width="30" height="30" as="geometry">
            <mxRectangle width="30" height="30" as="alternateBounds" />
          </mxGeometry>
        </mxCell>
        <mxCell id="Ljxgw_pO9pq_WJSmn5HZ-22" value="tarjetas_amarillas" style="shape=partialRectangle;connectable=0;fillColor=none;top=0;left=0;bottom=0;right=0;align=left;spacingLeft=6;overflow=hidden;whiteSpace=wrap;html=1;" vertex="1" parent="Ljxgw_pO9pq_WJSmn5HZ-20">
          <mxGeometry x="30" width="150" height="30" as="geometry">
            <mxRectangle width="150" height="30" as="alternateBounds" />
          </mxGeometry>
        </mxCell>
        <mxCell id="Ljxgw_pO9pq_WJSmn5HZ-23" value="" style="shape=tableRow;horizontal=0;startSize=0;swimlaneHead=0;swimlaneBody=0;fillColor=none;collapsible=0;dropTarget=0;points=[[0,0.5],[1,0.5]];portConstraint=eastwest;top=0;left=0;right=0;bottom=0;" vertex="1" parent="Ljxgw_pO9pq_WJSmn5HZ-4">
          <mxGeometry y="220" width="180" height="30" as="geometry" />
        </mxCell>
        <mxCell id="Ljxgw_pO9pq_WJSmn5HZ-24" value="" style="shape=partialRectangle;connectable=0;fillColor=none;top=0;left=0;bottom=0;right=0;editable=1;overflow=hidden;whiteSpace=wrap;html=1;" vertex="1" parent="Ljxgw_pO9pq_WJSmn5HZ-23">
          <mxGeometry width="30" height="30" as="geometry">
            <mxRectangle width="30" height="30" as="alternateBounds" />
          </mxGeometry>
        </mxCell>
        <mxCell id="Ljxgw_pO9pq_WJSmn5HZ-25" value="tarjetas_rojas" style="shape=partialRectangle;connectable=0;fillColor=none;top=0;left=0;bottom=0;right=0;align=left;spacingLeft=6;overflow=hidden;whiteSpace=wrap;html=1;" vertex="1" parent="Ljxgw_pO9pq_WJSmn5HZ-23">
          <mxGeometry x="30" width="150" height="30" as="geometry">
            <mxRectangle width="150" height="30" as="alternateBounds" />
          </mxGeometry>
        </mxCell>
        <mxCell id="Ljxgw_pO9pq_WJSmn5HZ-26" value="" style="shape=tableRow;horizontal=0;startSize=0;swimlaneHead=0;swimlaneBody=0;fillColor=none;collapsible=0;dropTarget=0;points=[[0,0.5],[1,0.5]];portConstraint=eastwest;top=0;left=0;right=0;bottom=0;" vertex="1" parent="Ljxgw_pO9pq_WJSmn5HZ-4">
          <mxGeometry y="250" width="180" height="30" as="geometry" />
        </mxCell>
        <mxCell id="Ljxgw_pO9pq_WJSmn5HZ-27" value="" style="shape=partialRectangle;connectable=0;fillColor=none;top=0;left=0;bottom=0;right=0;editable=1;overflow=hidden;whiteSpace=wrap;html=1;" vertex="1" parent="Ljxgw_pO9pq_WJSmn5HZ-26">
          <mxGeometry width="30" height="30" as="geometry">
            <mxRectangle width="30" height="30" as="alternateBounds" />
          </mxGeometry>
        </mxCell>
        <mxCell id="Ljxgw_pO9pq_WJSmn5HZ-28" value="minutos_jugados" style="shape=partialRectangle;connectable=0;fillColor=none;top=0;left=0;bottom=0;right=0;align=left;spacingLeft=6;overflow=hidden;whiteSpace=wrap;html=1;" vertex="1" parent="Ljxgw_pO9pq_WJSmn5HZ-26">
          <mxGeometry x="30" width="150" height="30" as="geometry">
            <mxRectangle width="150" height="30" as="alternateBounds" />
          </mxGeometry>
        </mxCell>
        <mxCell id="Ljxgw_pO9pq_WJSmn5HZ-29" value="" style="shape=tableRow;horizontal=0;startSize=0;swimlaneHead=0;swimlaneBody=0;fillColor=none;collapsible=0;dropTarget=0;points=[[0,0.5],[1,0.5]];portConstraint=eastwest;top=0;left=0;right=0;bottom=0;" vertex="1" parent="Ljxgw_pO9pq_WJSmn5HZ-4">
          <mxGeometry y="280" width="180" height="30" as="geometry" />
        </mxCell>
        <mxCell id="Ljxgw_pO9pq_WJSmn5HZ-30" value="" style="shape=partialRectangle;connectable=0;fillColor=none;top=0;left=0;bottom=0;right=0;editable=1;overflow=hidden;whiteSpace=wrap;html=1;" vertex="1" parent="Ljxgw_pO9pq_WJSmn5HZ-29">
          <mxGeometry width="30" height="30" as="geometry">
            <mxRectangle width="30" height="30" as="alternateBounds" />
          </mxGeometry>
        </mxCell>
        <mxCell id="Ljxgw_pO9pq_WJSmn5HZ-31" value="fecha_creacion" style="shape=partialRectangle;connectable=0;fillColor=none;top=0;left=0;bottom=0;right=0;align=left;spacingLeft=6;overflow=hidden;whiteSpace=wrap;html=1;" vertex="1" parent="Ljxgw_pO9pq_WJSmn5HZ-29">
          <mxGeometry x="30" width="150" height="30" as="geometry">
            <mxRectangle width="150" height="30" as="alternateBounds" />
          </mxGeometry>
        </mxCell>
        <mxCell id="Ljxgw_pO9pq_WJSmn5HZ-32" value="usuario_permiso" style="shape=table;startSize=30;container=1;collapsible=1;childLayout=tableLayout;fixedRows=1;rowLines=0;fontStyle=1;align=center;resizeLast=1;html=1;whiteSpace=wrap;" vertex="1" parent="1">
          <mxGeometry x="414" y="370" width="180" height="130" as="geometry" />
        </mxCell>
        <mxCell id="Ljxgw_pO9pq_WJSmn5HZ-33" value="" style="shape=tableRow;horizontal=0;startSize=0;swimlaneHead=0;swimlaneBody=0;fillColor=none;collapsible=0;dropTarget=0;points=[[0,0.5],[1,0.5]];portConstraint=eastwest;top=0;left=0;right=0;bottom=0;html=1;" vertex="1" parent="Ljxgw_pO9pq_WJSmn5HZ-32">
          <mxGeometry y="30" width="180" height="20" as="geometry" />
        </mxCell>
        <mxCell id="Ljxgw_pO9pq_WJSmn5HZ-34" value="PK,FK1" style="shape=partialRectangle;connectable=0;fillColor=none;top=0;left=0;bottom=0;right=0;fontStyle=1;overflow=hidden;html=1;whiteSpace=wrap;" vertex="1" parent="Ljxgw_pO9pq_WJSmn5HZ-33">
          <mxGeometry width="60" height="20" as="geometry">
            <mxRectangle width="60" height="20" as="alternateBounds" />
          </mxGeometry>
        </mxCell>
        <mxCell id="Ljxgw_pO9pq_WJSmn5HZ-35" value="id_usuario" style="shape=partialRectangle;connectable=0;fillColor=none;top=0;left=0;bottom=0;right=0;align=left;spacingLeft=6;fontStyle=5;overflow=hidden;html=1;whiteSpace=wrap;" vertex="1" parent="Ljxgw_pO9pq_WJSmn5HZ-33">
          <mxGeometry x="60" width="120" height="20" as="geometry">
            <mxRectangle width="120" height="20" as="alternateBounds" />
          </mxGeometry>
        </mxCell>
        <mxCell id="Ljxgw_pO9pq_WJSmn5HZ-36" value="" style="shape=tableRow;horizontal=0;startSize=0;swimlaneHead=0;swimlaneBody=0;fillColor=none;collapsible=0;dropTarget=0;points=[[0,0.5],[1,0.5]];portConstraint=eastwest;top=0;left=0;right=0;bottom=1;html=1;" vertex="1" parent="Ljxgw_pO9pq_WJSmn5HZ-32">
          <mxGeometry y="50" width="180" height="30" as="geometry" />
        </mxCell>
        <mxCell id="Ljxgw_pO9pq_WJSmn5HZ-37" value="PK,FK2" style="shape=partialRectangle;connectable=0;fillColor=none;top=0;left=0;bottom=0;right=0;fontStyle=1;overflow=hidden;html=1;whiteSpace=wrap;" vertex="1" parent="Ljxgw_pO9pq_WJSmn5HZ-36">
          <mxGeometry width="60" height="30" as="geometry">
            <mxRectangle width="60" height="30" as="alternateBounds" />
          </mxGeometry>
        </mxCell>
        <mxCell id="Ljxgw_pO9pq_WJSmn5HZ-38" value="id_permiso" style="shape=partialRectangle;connectable=0;fillColor=none;top=0;left=0;bottom=0;right=0;align=left;spacingLeft=6;fontStyle=5;overflow=hidden;html=1;whiteSpace=wrap;" vertex="1" parent="Ljxgw_pO9pq_WJSmn5HZ-36">
          <mxGeometry x="60" width="120" height="30" as="geometry">
            <mxRectangle width="120" height="30" as="alternateBounds" />
          </mxGeometry>
        </mxCell>
        <mxCell id="Ljxgw_pO9pq_WJSmn5HZ-39" value="" style="shape=tableRow;horizontal=0;startSize=0;swimlaneHead=0;swimlaneBody=0;fillColor=none;collapsible=0;dropTarget=0;points=[[0,0.5],[1,0.5]];portConstraint=eastwest;top=0;left=0;right=0;bottom=0;html=1;" vertex="1" parent="Ljxgw_pO9pq_WJSmn5HZ-32">
          <mxGeometry y="80" width="180" height="30" as="geometry" />
        </mxCell>
        <mxCell id="Ljxgw_pO9pq_WJSmn5HZ-40" value="" style="shape=partialRectangle;connectable=0;fillColor=none;top=0;left=0;bottom=0;right=0;editable=1;overflow=hidden;html=1;whiteSpace=wrap;" vertex="1" parent="Ljxgw_pO9pq_WJSmn5HZ-39">
          <mxGeometry width="60" height="30" as="geometry">
            <mxRectangle width="60" height="30" as="alternateBounds" />
          </mxGeometry>
        </mxCell>
        <mxCell id="Ljxgw_pO9pq_WJSmn5HZ-41" value="" style="shape=partialRectangle;connectable=0;fillColor=none;top=0;left=0;bottom=0;right=0;align=left;spacingLeft=6;overflow=hidden;html=1;whiteSpace=wrap;" vertex="1" parent="Ljxgw_pO9pq_WJSmn5HZ-39">
          <mxGeometry x="60" width="120" height="30" as="geometry">
            <mxRectangle width="120" height="30" as="alternateBounds" />
          </mxGeometry>
        </mxCell>
        <mxCell id="Ljxgw_pO9pq_WJSmn5HZ-42" value="" style="shape=tableRow;horizontal=0;startSize=0;swimlaneHead=0;swimlaneBody=0;fillColor=none;collapsible=0;dropTarget=0;points=[[0,0.5],[1,0.5]];portConstraint=eastwest;top=0;left=0;right=0;bottom=0;html=1;" vertex="1" parent="Ljxgw_pO9pq_WJSmn5HZ-32">
          <mxGeometry y="110" width="180" height="20" as="geometry" />
        </mxCell>
        <mxCell id="Ljxgw_pO9pq_WJSmn5HZ-43" value="" style="shape=partialRectangle;connectable=0;fillColor=none;top=0;left=0;bottom=0;right=0;editable=1;overflow=hidden;html=1;whiteSpace=wrap;" vertex="1" parent="Ljxgw_pO9pq_WJSmn5HZ-42">
          <mxGeometry width="60" height="20" as="geometry">
            <mxRectangle width="60" height="20" as="alternateBounds" />
          </mxGeometry>
        </mxCell>
        <mxCell id="Ljxgw_pO9pq_WJSmn5HZ-44" value="" style="shape=partialRectangle;connectable=0;fillColor=none;top=0;left=0;bottom=0;right=0;align=left;spacingLeft=6;overflow=hidden;html=1;whiteSpace=wrap;" vertex="1" parent="Ljxgw_pO9pq_WJSmn5HZ-42">
          <mxGeometry x="60" width="120" height="20" as="geometry">
            <mxRectangle width="120" height="20" as="alternateBounds" />
          </mxGeometry>
        </mxCell>
        <mxCell id="Ljxgw_pO9pq_WJSmn5HZ-45" value="usuario_role" style="shape=table;startSize=30;container=1;collapsible=1;childLayout=tableLayout;fixedRows=1;rowLines=0;fontStyle=1;align=center;resizeLast=1;html=1;whiteSpace=wrap;" vertex="1" parent="1">
          <mxGeometry x="420" y="170" width="180" height="130" as="geometry" />
        </mxCell>
        <mxCell id="Ljxgw_pO9pq_WJSmn5HZ-46" value="" style="shape=tableRow;horizontal=0;startSize=0;swimlaneHead=0;swimlaneBody=0;fillColor=none;collapsible=0;dropTarget=0;points=[[0,0.5],[1,0.5]];portConstraint=eastwest;top=0;left=0;right=0;bottom=0;html=1;" vertex="1" parent="Ljxgw_pO9pq_WJSmn5HZ-45">
          <mxGeometry y="30" width="180" height="20" as="geometry" />
        </mxCell>
        <mxCell id="Ljxgw_pO9pq_WJSmn5HZ-47" value="PK,FK1" style="shape=partialRectangle;connectable=0;fillColor=none;top=0;left=0;bottom=0;right=0;fontStyle=1;overflow=hidden;html=1;whiteSpace=wrap;" vertex="1" parent="Ljxgw_pO9pq_WJSmn5HZ-46">
          <mxGeometry width="60" height="20" as="geometry">
            <mxRectangle width="60" height="20" as="alternateBounds" />
          </mxGeometry>
        </mxCell>
        <mxCell id="Ljxgw_pO9pq_WJSmn5HZ-48" value="id_usuario" style="shape=partialRectangle;connectable=0;fillColor=none;top=0;left=0;bottom=0;right=0;align=left;spacingLeft=6;fontStyle=5;overflow=hidden;html=1;whiteSpace=wrap;" vertex="1" parent="Ljxgw_pO9pq_WJSmn5HZ-46">
          <mxGeometry x="60" width="120" height="20" as="geometry">
            <mxRectangle width="120" height="20" as="alternateBounds" />
          </mxGeometry>
        </mxCell>
        <mxCell id="Ljxgw_pO9pq_WJSmn5HZ-49" value="" style="shape=tableRow;horizontal=0;startSize=0;swimlaneHead=0;swimlaneBody=0;fillColor=none;collapsible=0;dropTarget=0;points=[[0,0.5],[1,0.5]];portConstraint=eastwest;top=0;left=0;right=0;bottom=1;html=1;" vertex="1" parent="Ljxgw_pO9pq_WJSmn5HZ-45">
          <mxGeometry y="50" width="180" height="30" as="geometry" />
        </mxCell>
        <mxCell id="Ljxgw_pO9pq_WJSmn5HZ-50" value="PK,FK2" style="shape=partialRectangle;connectable=0;fillColor=none;top=0;left=0;bottom=0;right=0;fontStyle=1;overflow=hidden;html=1;whiteSpace=wrap;" vertex="1" parent="Ljxgw_pO9pq_WJSmn5HZ-49">
          <mxGeometry width="60" height="30" as="geometry">
            <mxRectangle width="60" height="30" as="alternateBounds" />
          </mxGeometry>
        </mxCell>
        <mxCell id="Ljxgw_pO9pq_WJSmn5HZ-51" value="id_rol" style="shape=partialRectangle;connectable=0;fillColor=none;top=0;left=0;bottom=0;right=0;align=left;spacingLeft=6;fontStyle=5;overflow=hidden;html=1;whiteSpace=wrap;" vertex="1" parent="Ljxgw_pO9pq_WJSmn5HZ-49">
          <mxGeometry x="60" width="120" height="30" as="geometry">
            <mxRectangle width="120" height="30" as="alternateBounds" />
          </mxGeometry>
        </mxCell>
        <mxCell id="Ljxgw_pO9pq_WJSmn5HZ-52" value="" style="shape=tableRow;horizontal=0;startSize=0;swimlaneHead=0;swimlaneBody=0;fillColor=none;collapsible=0;dropTarget=0;points=[[0,0.5],[1,0.5]];portConstraint=eastwest;top=0;left=0;right=0;bottom=0;html=1;" vertex="1" parent="Ljxgw_pO9pq_WJSmn5HZ-45">
          <mxGeometry y="80" width="180" height="30" as="geometry" />
        </mxCell>
        <mxCell id="Ljxgw_pO9pq_WJSmn5HZ-53" value="" style="shape=partialRectangle;connectable=0;fillColor=none;top=0;left=0;bottom=0;right=0;editable=1;overflow=hidden;html=1;whiteSpace=wrap;" vertex="1" parent="Ljxgw_pO9pq_WJSmn5HZ-52">
          <mxGeometry width="60" height="30" as="geometry">
            <mxRectangle width="60" height="30" as="alternateBounds" />
          </mxGeometry>
        </mxCell>
        <mxCell id="Ljxgw_pO9pq_WJSmn5HZ-54" value="" style="shape=partialRectangle;connectable=0;fillColor=none;top=0;left=0;bottom=0;right=0;align=left;spacingLeft=6;overflow=hidden;html=1;whiteSpace=wrap;" vertex="1" parent="Ljxgw_pO9pq_WJSmn5HZ-52">
          <mxGeometry x="60" width="120" height="30" as="geometry">
            <mxRectangle width="120" height="30" as="alternateBounds" />
          </mxGeometry>
        </mxCell>
        <mxCell id="Ljxgw_pO9pq_WJSmn5HZ-55" value="" style="shape=tableRow;horizontal=0;startSize=0;swimlaneHead=0;swimlaneBody=0;fillColor=none;collapsible=0;dropTarget=0;points=[[0,0.5],[1,0.5]];portConstraint=eastwest;top=0;left=0;right=0;bottom=0;html=1;" vertex="1" parent="Ljxgw_pO9pq_WJSmn5HZ-45">
          <mxGeometry y="110" width="180" height="20" as="geometry" />
        </mxCell>
        <mxCell id="Ljxgw_pO9pq_WJSmn5HZ-56" value="" style="shape=partialRectangle;connectable=0;fillColor=none;top=0;left=0;bottom=0;right=0;editable=1;overflow=hidden;html=1;whiteSpace=wrap;" vertex="1" parent="Ljxgw_pO9pq_WJSmn5HZ-55">
          <mxGeometry width="60" height="20" as="geometry">
            <mxRectangle width="60" height="20" as="alternateBounds" />
          </mxGeometry>
        </mxCell>
        <mxCell id="Ljxgw_pO9pq_WJSmn5HZ-57" value="" style="shape=partialRectangle;connectable=0;fillColor=none;top=0;left=0;bottom=0;right=0;align=left;spacingLeft=6;overflow=hidden;html=1;whiteSpace=wrap;" vertex="1" parent="Ljxgw_pO9pq_WJSmn5HZ-55">
          <mxGeometry x="60" width="120" height="20" as="geometry">
            <mxRectangle width="120" height="20" as="alternateBounds" />
          </mxGeometry>
        </mxCell>
        <mxCell id="Ljxgw_pO9pq_WJSmn5HZ-58" value="usuario" style="shape=table;startSize=30;container=1;collapsible=1;childLayout=tableLayout;fixedRows=1;rowLines=0;fontStyle=1;align=center;resizeLast=1;html=1;" vertex="1" parent="1">
          <mxGeometry x="140" y="270" width="180" height="210" as="geometry">
            <mxRectangle x="240" y="30" width="80" height="30" as="alternateBounds" />
          </mxGeometry>
        </mxCell>
        <mxCell id="Ljxgw_pO9pq_WJSmn5HZ-59" value="" style="shape=tableRow;horizontal=0;startSize=0;swimlaneHead=0;swimlaneBody=0;fillColor=none;collapsible=0;dropTarget=0;points=[[0,0.5],[1,0.5]];portConstraint=eastwest;top=0;left=0;right=0;bottom=1;" vertex="1" parent="Ljxgw_pO9pq_WJSmn5HZ-58">
          <mxGeometry y="30" width="180" height="30" as="geometry" />
        </mxCell>
        <mxCell id="Ljxgw_pO9pq_WJSmn5HZ-60" value="PK" style="shape=partialRectangle;connectable=0;fillColor=none;top=0;left=0;bottom=0;right=0;fontStyle=1;overflow=hidden;whiteSpace=wrap;html=1;" vertex="1" parent="Ljxgw_pO9pq_WJSmn5HZ-59">
          <mxGeometry width="30" height="30" as="geometry">
            <mxRectangle width="30" height="30" as="alternateBounds" />
          </mxGeometry>
        </mxCell>
        <mxCell id="Ljxgw_pO9pq_WJSmn5HZ-61" value="id_usuario" style="shape=partialRectangle;connectable=0;fillColor=none;top=0;left=0;bottom=0;right=0;align=left;spacingLeft=6;fontStyle=5;overflow=hidden;whiteSpace=wrap;html=1;" vertex="1" parent="Ljxgw_pO9pq_WJSmn5HZ-59">
          <mxGeometry x="30" width="150" height="30" as="geometry">
            <mxRectangle width="150" height="30" as="alternateBounds" />
          </mxGeometry>
        </mxCell>
        <mxCell id="Ljxgw_pO9pq_WJSmn5HZ-62" value="" style="shape=tableRow;horizontal=0;startSize=0;swimlaneHead=0;swimlaneBody=0;fillColor=none;collapsible=0;dropTarget=0;points=[[0,0.5],[1,0.5]];portConstraint=eastwest;top=0;left=0;right=0;bottom=0;" vertex="1" parent="Ljxgw_pO9pq_WJSmn5HZ-58">
          <mxGeometry y="60" width="180" height="30" as="geometry" />
        </mxCell>
        <mxCell id="Ljxgw_pO9pq_WJSmn5HZ-63" value="" style="shape=partialRectangle;connectable=0;fillColor=none;top=0;left=0;bottom=0;right=0;editable=1;overflow=hidden;whiteSpace=wrap;html=1;" vertex="1" parent="Ljxgw_pO9pq_WJSmn5HZ-62">
          <mxGeometry width="30" height="30" as="geometry">
            <mxRectangle width="30" height="30" as="alternateBounds" />
          </mxGeometry>
        </mxCell>
        <mxCell id="Ljxgw_pO9pq_WJSmn5HZ-64" value="nombre" style="shape=partialRectangle;connectable=0;fillColor=none;top=0;left=0;bottom=0;right=0;align=left;spacingLeft=6;overflow=hidden;whiteSpace=wrap;html=1;" vertex="1" parent="Ljxgw_pO9pq_WJSmn5HZ-62">
          <mxGeometry x="30" width="150" height="30" as="geometry">
            <mxRectangle width="150" height="30" as="alternateBounds" />
          </mxGeometry>
        </mxCell>
        <mxCell id="Ljxgw_pO9pq_WJSmn5HZ-65" value="" style="shape=tableRow;horizontal=0;startSize=0;swimlaneHead=0;swimlaneBody=0;fillColor=none;collapsible=0;dropTarget=0;points=[[0,0.5],[1,0.5]];portConstraint=eastwest;top=0;left=0;right=0;bottom=0;" vertex="1" parent="Ljxgw_pO9pq_WJSmn5HZ-58">
          <mxGeometry y="90" width="180" height="30" as="geometry" />
        </mxCell>
        <mxCell id="Ljxgw_pO9pq_WJSmn5HZ-66" value="" style="shape=partialRectangle;connectable=0;fillColor=none;top=0;left=0;bottom=0;right=0;editable=1;overflow=hidden;whiteSpace=wrap;html=1;" vertex="1" parent="Ljxgw_pO9pq_WJSmn5HZ-65">
          <mxGeometry width="30" height="30" as="geometry">
            <mxRectangle width="30" height="30" as="alternateBounds" />
          </mxGeometry>
        </mxCell>
        <mxCell id="Ljxgw_pO9pq_WJSmn5HZ-67" value="apellido" style="shape=partialRectangle;connectable=0;fillColor=none;top=0;left=0;bottom=0;right=0;align=left;spacingLeft=6;overflow=hidden;whiteSpace=wrap;html=1;" vertex="1" parent="Ljxgw_pO9pq_WJSmn5HZ-65">
          <mxGeometry x="30" width="150" height="30" as="geometry">
            <mxRectangle width="150" height="30" as="alternateBounds" />
          </mxGeometry>
        </mxCell>
        <mxCell id="Ljxgw_pO9pq_WJSmn5HZ-68" value="" style="shape=tableRow;horizontal=0;startSize=0;swimlaneHead=0;swimlaneBody=0;fillColor=none;collapsible=0;dropTarget=0;points=[[0,0.5],[1,0.5]];portConstraint=eastwest;top=0;left=0;right=0;bottom=0;" vertex="1" parent="Ljxgw_pO9pq_WJSmn5HZ-58">
          <mxGeometry y="120" width="180" height="30" as="geometry" />
        </mxCell>
        <mxCell id="Ljxgw_pO9pq_WJSmn5HZ-69" value="" style="shape=partialRectangle;connectable=0;fillColor=none;top=0;left=0;bottom=0;right=0;editable=1;overflow=hidden;whiteSpace=wrap;html=1;" vertex="1" parent="Ljxgw_pO9pq_WJSmn5HZ-68">
          <mxGeometry width="30" height="30" as="geometry">
            <mxRectangle width="30" height="30" as="alternateBounds" />
          </mxGeometry>
        </mxCell>
        <mxCell id="Ljxgw_pO9pq_WJSmn5HZ-70" value="email" style="shape=partialRectangle;connectable=0;fillColor=none;top=0;left=0;bottom=0;right=0;align=left;spacingLeft=6;overflow=hidden;whiteSpace=wrap;html=1;" vertex="1" parent="Ljxgw_pO9pq_WJSmn5HZ-68">
          <mxGeometry x="30" width="150" height="30" as="geometry">
            <mxRectangle width="150" height="30" as="alternateBounds" />
          </mxGeometry>
        </mxCell>
        <mxCell id="Ljxgw_pO9pq_WJSmn5HZ-71" value="" style="shape=tableRow;horizontal=0;startSize=0;swimlaneHead=0;swimlaneBody=0;fillColor=none;collapsible=0;dropTarget=0;points=[[0,0.5],[1,0.5]];portConstraint=eastwest;top=0;left=0;right=0;bottom=0;" vertex="1" parent="Ljxgw_pO9pq_WJSmn5HZ-58">
          <mxGeometry y="150" width="180" height="30" as="geometry" />
        </mxCell>
        <mxCell id="Ljxgw_pO9pq_WJSmn5HZ-72" value="" style="shape=partialRectangle;connectable=0;fillColor=none;top=0;left=0;bottom=0;right=0;editable=1;overflow=hidden;whiteSpace=wrap;html=1;" vertex="1" parent="Ljxgw_pO9pq_WJSmn5HZ-71">
          <mxGeometry width="30" height="30" as="geometry">
            <mxRectangle width="30" height="30" as="alternateBounds" />
          </mxGeometry>
        </mxCell>
        <mxCell id="Ljxgw_pO9pq_WJSmn5HZ-73" value="contraseña" style="shape=partialRectangle;connectable=0;fillColor=none;top=0;left=0;bottom=0;right=0;align=left;spacingLeft=6;overflow=hidden;whiteSpace=wrap;html=1;" vertex="1" parent="Ljxgw_pO9pq_WJSmn5HZ-71">
          <mxGeometry x="30" width="150" height="30" as="geometry">
            <mxRectangle width="150" height="30" as="alternateBounds" />
          </mxGeometry>
        </mxCell>
        <mxCell id="Ljxgw_pO9pq_WJSmn5HZ-74" value="" style="shape=tableRow;horizontal=0;startSize=0;swimlaneHead=0;swimlaneBody=0;fillColor=none;collapsible=0;dropTarget=0;points=[[0,0.5],[1,0.5]];portConstraint=eastwest;top=0;left=0;right=0;bottom=0;" vertex="1" parent="Ljxgw_pO9pq_WJSmn5HZ-58">
          <mxGeometry y="180" width="180" height="30" as="geometry" />
        </mxCell>
        <mxCell id="Ljxgw_pO9pq_WJSmn5HZ-75" value="" style="shape=partialRectangle;connectable=0;fillColor=none;top=0;left=0;bottom=0;right=0;editable=1;overflow=hidden;whiteSpace=wrap;html=1;" vertex="1" parent="Ljxgw_pO9pq_WJSmn5HZ-74">
          <mxGeometry width="30" height="30" as="geometry">
            <mxRectangle width="30" height="30" as="alternateBounds" />
          </mxGeometry>
        </mxCell>
        <mxCell id="Ljxgw_pO9pq_WJSmn5HZ-76" value="fecha_creacion" style="shape=partialRectangle;connectable=0;fillColor=none;top=0;left=0;bottom=0;right=0;align=left;spacingLeft=6;overflow=hidden;whiteSpace=wrap;html=1;" vertex="1" parent="Ljxgw_pO9pq_WJSmn5HZ-74">
          <mxGeometry x="30" width="150" height="30" as="geometry">
            <mxRectangle width="150" height="30" as="alternateBounds" />
          </mxGeometry>
        </mxCell>
        <mxCell id="Ljxgw_pO9pq_WJSmn5HZ-77" value="permiso" style="shape=table;startSize=30;container=1;collapsible=1;childLayout=tableLayout;fixedRows=1;rowLines=0;fontStyle=1;align=center;resizeLast=1;html=1;" vertex="1" parent="1">
          <mxGeometry x="660" y="370" width="180" height="150" as="geometry">
            <mxRectangle x="240" y="30" width="80" height="30" as="alternateBounds" />
          </mxGeometry>
        </mxCell>
        <mxCell id="Ljxgw_pO9pq_WJSmn5HZ-78" value="" style="shape=tableRow;horizontal=0;startSize=0;swimlaneHead=0;swimlaneBody=0;fillColor=none;collapsible=0;dropTarget=0;points=[[0,0.5],[1,0.5]];portConstraint=eastwest;top=0;left=0;right=0;bottom=1;" vertex="1" parent="Ljxgw_pO9pq_WJSmn5HZ-77">
          <mxGeometry y="30" width="180" height="30" as="geometry" />
        </mxCell>
        <mxCell id="Ljxgw_pO9pq_WJSmn5HZ-79" value="PK" style="shape=partialRectangle;connectable=0;fillColor=none;top=0;left=0;bottom=0;right=0;fontStyle=1;overflow=hidden;whiteSpace=wrap;html=1;" vertex="1" parent="Ljxgw_pO9pq_WJSmn5HZ-78">
          <mxGeometry width="30" height="30" as="geometry">
            <mxRectangle width="30" height="30" as="alternateBounds" />
          </mxGeometry>
        </mxCell>
        <mxCell id="Ljxgw_pO9pq_WJSmn5HZ-80" value="id_permiso" style="shape=partialRectangle;connectable=0;fillColor=none;top=0;left=0;bottom=0;right=0;align=left;spacingLeft=6;fontStyle=5;overflow=hidden;whiteSpace=wrap;html=1;" vertex="1" parent="Ljxgw_pO9pq_WJSmn5HZ-78">
          <mxGeometry x="30" width="150" height="30" as="geometry">
            <mxRectangle width="150" height="30" as="alternateBounds" />
          </mxGeometry>
        </mxCell>
        <mxCell id="Ljxgw_pO9pq_WJSmn5HZ-81" value="" style="shape=tableRow;horizontal=0;startSize=0;swimlaneHead=0;swimlaneBody=0;fillColor=none;collapsible=0;dropTarget=0;points=[[0,0.5],[1,0.5]];portConstraint=eastwest;top=0;left=0;right=0;bottom=0;" vertex="1" parent="Ljxgw_pO9pq_WJSmn5HZ-77">
          <mxGeometry y="60" width="180" height="30" as="geometry" />
        </mxCell>
        <mxCell id="Ljxgw_pO9pq_WJSmn5HZ-82" value="" style="shape=partialRectangle;connectable=0;fillColor=none;top=0;left=0;bottom=0;right=0;editable=1;overflow=hidden;whiteSpace=wrap;html=1;" vertex="1" parent="Ljxgw_pO9pq_WJSmn5HZ-81">
          <mxGeometry width="30" height="30" as="geometry">
            <mxRectangle width="30" height="30" as="alternateBounds" />
          </mxGeometry>
        </mxCell>
        <mxCell id="Ljxgw_pO9pq_WJSmn5HZ-83" value="nombre_permiso" style="shape=partialRectangle;connectable=0;fillColor=none;top=0;left=0;bottom=0;right=0;align=left;spacingLeft=6;overflow=hidden;whiteSpace=wrap;html=1;" vertex="1" parent="Ljxgw_pO9pq_WJSmn5HZ-81">
          <mxGeometry x="30" width="150" height="30" as="geometry">
            <mxRectangle width="150" height="30" as="alternateBounds" />
          </mxGeometry>
        </mxCell>
        <mxCell id="Ljxgw_pO9pq_WJSmn5HZ-84" value="" style="shape=tableRow;horizontal=0;startSize=0;swimlaneHead=0;swimlaneBody=0;fillColor=none;collapsible=0;dropTarget=0;points=[[0,0.5],[1,0.5]];portConstraint=eastwest;top=0;left=0;right=0;bottom=0;" vertex="1" parent="Ljxgw_pO9pq_WJSmn5HZ-77">
          <mxGeometry y="90" width="180" height="30" as="geometry" />
        </mxCell>
        <mxCell id="Ljxgw_pO9pq_WJSmn5HZ-85" value="" style="shape=partialRectangle;connectable=0;fillColor=none;top=0;left=0;bottom=0;right=0;editable=1;overflow=hidden;whiteSpace=wrap;html=1;" vertex="1" parent="Ljxgw_pO9pq_WJSmn5HZ-84">
          <mxGeometry width="30" height="30" as="geometry">
            <mxRectangle width="30" height="30" as="alternateBounds" />
          </mxGeometry>
        </mxCell>
        <mxCell id="Ljxgw_pO9pq_WJSmn5HZ-86" value="descripcion" style="shape=partialRectangle;connectable=0;fillColor=none;top=0;left=0;bottom=0;right=0;align=left;spacingLeft=6;overflow=hidden;whiteSpace=wrap;html=1;" vertex="1" parent="Ljxgw_pO9pq_WJSmn5HZ-84">
          <mxGeometry x="30" width="150" height="30" as="geometry">
            <mxRectangle width="150" height="30" as="alternateBounds" />
          </mxGeometry>
        </mxCell>
        <mxCell id="Ljxgw_pO9pq_WJSmn5HZ-87" value="" style="shape=tableRow;horizontal=0;startSize=0;swimlaneHead=0;swimlaneBody=0;fillColor=none;collapsible=0;dropTarget=0;points=[[0,0.5],[1,0.5]];portConstraint=eastwest;top=0;left=0;right=0;bottom=0;" vertex="1" parent="Ljxgw_pO9pq_WJSmn5HZ-77">
          <mxGeometry y="120" width="180" height="30" as="geometry" />
        </mxCell>
        <mxCell id="Ljxgw_pO9pq_WJSmn5HZ-88" value="" style="shape=partialRectangle;connectable=0;fillColor=none;top=0;left=0;bottom=0;right=0;editable=1;overflow=hidden;whiteSpace=wrap;html=1;" vertex="1" parent="Ljxgw_pO9pq_WJSmn5HZ-87">
          <mxGeometry width="30" height="30" as="geometry">
            <mxRectangle width="30" height="30" as="alternateBounds" />
          </mxGeometry>
        </mxCell>
        <mxCell id="Ljxgw_pO9pq_WJSmn5HZ-89" value="fecha_creacion" style="shape=partialRectangle;connectable=0;fillColor=none;top=0;left=0;bottom=0;right=0;align=left;spacingLeft=6;overflow=hidden;whiteSpace=wrap;html=1;" vertex="1" parent="Ljxgw_pO9pq_WJSmn5HZ-87">
          <mxGeometry x="30" width="150" height="30" as="geometry">
            <mxRectangle width="150" height="30" as="alternateBounds" />
          </mxGeometry>
        </mxCell>
        <mxCell id="Ljxgw_pO9pq_WJSmn5HZ-90" value="jugador" style="shape=table;startSize=30;container=1;collapsible=1;childLayout=tableLayout;fixedRows=1;rowLines=0;fontStyle=1;align=center;resizeLast=1;html=1;" vertex="1" parent="1">
          <mxGeometry x="-100" y="270" width="180" height="210" as="geometry">
            <mxRectangle x="240" y="30" width="80" height="30" as="alternateBounds" />
          </mxGeometry>
        </mxCell>
        <mxCell id="Ljxgw_pO9pq_WJSmn5HZ-91" value="" style="shape=tableRow;horizontal=0;startSize=0;swimlaneHead=0;swimlaneBody=0;fillColor=none;collapsible=0;dropTarget=0;points=[[0,0.5],[1,0.5]];portConstraint=eastwest;top=0;left=0;right=0;bottom=1;" vertex="1" parent="Ljxgw_pO9pq_WJSmn5HZ-90">
          <mxGeometry y="30" width="180" height="30" as="geometry" />
        </mxCell>
        <mxCell id="Ljxgw_pO9pq_WJSmn5HZ-92" value="PK" style="shape=partialRectangle;connectable=0;fillColor=none;top=0;left=0;bottom=0;right=0;fontStyle=1;overflow=hidden;whiteSpace=wrap;html=1;" vertex="1" parent="Ljxgw_pO9pq_WJSmn5HZ-91">
          <mxGeometry width="30" height="30" as="geometry">
            <mxRectangle width="30" height="30" as="alternateBounds" />
          </mxGeometry>
        </mxCell>
        <mxCell id="Ljxgw_pO9pq_WJSmn5HZ-93" value="id_jugador" style="shape=partialRectangle;connectable=0;fillColor=none;top=0;left=0;bottom=0;right=0;align=left;spacingLeft=6;fontStyle=5;overflow=hidden;whiteSpace=wrap;html=1;" vertex="1" parent="Ljxgw_pO9pq_WJSmn5HZ-91">
          <mxGeometry x="30" width="150" height="30" as="geometry">
            <mxRectangle width="150" height="30" as="alternateBounds" />
          </mxGeometry>
        </mxCell>
        <mxCell id="Ljxgw_pO9pq_WJSmn5HZ-94" value="" style="shape=tableRow;horizontal=0;startSize=0;swimlaneHead=0;swimlaneBody=0;fillColor=none;collapsible=0;dropTarget=0;points=[[0,0.5],[1,0.5]];portConstraint=eastwest;top=0;left=0;right=0;bottom=0;" vertex="1" parent="Ljxgw_pO9pq_WJSmn5HZ-90">
          <mxGeometry y="60" width="180" height="30" as="geometry" />
        </mxCell>
        <mxCell id="Ljxgw_pO9pq_WJSmn5HZ-95" value="FK" style="shape=partialRectangle;connectable=0;fillColor=none;top=0;left=0;bottom=0;right=0;editable=1;overflow=hidden;whiteSpace=wrap;html=1;" vertex="1" parent="Ljxgw_pO9pq_WJSmn5HZ-94">
          <mxGeometry width="30" height="30" as="geometry">
            <mxRectangle width="30" height="30" as="alternateBounds" />
          </mxGeometry>
        </mxCell>
        <mxCell id="Ljxgw_pO9pq_WJSmn5HZ-96" value="id_usuario" style="shape=partialRectangle;connectable=0;fillColor=none;top=0;left=0;bottom=0;right=0;align=left;spacingLeft=6;overflow=hidden;whiteSpace=wrap;html=1;" vertex="1" parent="Ljxgw_pO9pq_WJSmn5HZ-94">
          <mxGeometry x="30" width="150" height="30" as="geometry">
            <mxRectangle width="150" height="30" as="alternateBounds" />
          </mxGeometry>
        </mxCell>
        <mxCell id="Ljxgw_pO9pq_WJSmn5HZ-97" value="" style="shape=tableRow;horizontal=0;startSize=0;swimlaneHead=0;swimlaneBody=0;fillColor=none;collapsible=0;dropTarget=0;points=[[0,0.5],[1,0.5]];portConstraint=eastwest;top=0;left=0;right=0;bottom=0;" vertex="1" parent="Ljxgw_pO9pq_WJSmn5HZ-90">
          <mxGeometry y="90" width="180" height="30" as="geometry" />
        </mxCell>
        <mxCell id="Ljxgw_pO9pq_WJSmn5HZ-98" value="FK" style="shape=partialRectangle;connectable=0;fillColor=none;top=0;left=0;bottom=0;right=0;editable=1;overflow=hidden;whiteSpace=wrap;html=1;" vertex="1" parent="Ljxgw_pO9pq_WJSmn5HZ-97">
          <mxGeometry width="30" height="30" as="geometry">
            <mxRectangle width="30" height="30" as="alternateBounds" />
          </mxGeometry>
        </mxCell>
        <mxCell id="Ljxgw_pO9pq_WJSmn5HZ-99" value="id_equipo" style="shape=partialRectangle;connectable=0;fillColor=none;top=0;left=0;bottom=0;right=0;align=left;spacingLeft=6;overflow=hidden;whiteSpace=wrap;html=1;" vertex="1" parent="Ljxgw_pO9pq_WJSmn5HZ-97">
          <mxGeometry x="30" width="150" height="30" as="geometry">
            <mxRectangle width="150" height="30" as="alternateBounds" />
          </mxGeometry>
        </mxCell>
        <mxCell id="Ljxgw_pO9pq_WJSmn5HZ-100" value="" style="shape=tableRow;horizontal=0;startSize=0;swimlaneHead=0;swimlaneBody=0;fillColor=none;collapsible=0;dropTarget=0;points=[[0,0.5],[1,0.5]];portConstraint=eastwest;top=0;left=0;right=0;bottom=0;" vertex="1" parent="Ljxgw_pO9pq_WJSmn5HZ-90">
          <mxGeometry y="120" width="180" height="30" as="geometry" />
        </mxCell>
        <mxCell id="Ljxgw_pO9pq_WJSmn5HZ-101" value="" style="shape=partialRectangle;connectable=0;fillColor=none;top=0;left=0;bottom=0;right=0;editable=1;overflow=hidden;whiteSpace=wrap;html=1;" vertex="1" parent="Ljxgw_pO9pq_WJSmn5HZ-100">
          <mxGeometry width="30" height="30" as="geometry">
            <mxRectangle width="30" height="30" as="alternateBounds" />
          </mxGeometry>
        </mxCell>
        <mxCell id="Ljxgw_pO9pq_WJSmn5HZ-102" value="posicion" style="shape=partialRectangle;connectable=0;fillColor=none;top=0;left=0;bottom=0;right=0;align=left;spacingLeft=6;overflow=hidden;whiteSpace=wrap;html=1;" vertex="1" parent="Ljxgw_pO9pq_WJSmn5HZ-100">
          <mxGeometry x="30" width="150" height="30" as="geometry">
            <mxRectangle width="150" height="30" as="alternateBounds" />
          </mxGeometry>
        </mxCell>
        <mxCell id="Ljxgw_pO9pq_WJSmn5HZ-103" value="" style="shape=tableRow;horizontal=0;startSize=0;swimlaneHead=0;swimlaneBody=0;fillColor=none;collapsible=0;dropTarget=0;points=[[0,0.5],[1,0.5]];portConstraint=eastwest;top=0;left=0;right=0;bottom=0;" vertex="1" parent="Ljxgw_pO9pq_WJSmn5HZ-90">
          <mxGeometry y="150" width="180" height="30" as="geometry" />
        </mxCell>
        <mxCell id="Ljxgw_pO9pq_WJSmn5HZ-104" value="" style="shape=partialRectangle;connectable=0;fillColor=none;top=0;left=0;bottom=0;right=0;editable=1;overflow=hidden;whiteSpace=wrap;html=1;" vertex="1" parent="Ljxgw_pO9pq_WJSmn5HZ-103">
          <mxGeometry width="30" height="30" as="geometry">
            <mxRectangle width="30" height="30" as="alternateBounds" />
          </mxGeometry>
        </mxCell>
        <mxCell id="Ljxgw_pO9pq_WJSmn5HZ-105" value="numero_camiseta" style="shape=partialRectangle;connectable=0;fillColor=none;top=0;left=0;bottom=0;right=0;align=left;spacingLeft=6;overflow=hidden;whiteSpace=wrap;html=1;" vertex="1" parent="Ljxgw_pO9pq_WJSmn5HZ-103">
          <mxGeometry x="30" width="150" height="30" as="geometry">
            <mxRectangle width="150" height="30" as="alternateBounds" />
          </mxGeometry>
        </mxCell>
        <mxCell id="Ljxgw_pO9pq_WJSmn5HZ-106" value="" style="shape=tableRow;horizontal=0;startSize=0;swimlaneHead=0;swimlaneBody=0;fillColor=none;collapsible=0;dropTarget=0;points=[[0,0.5],[1,0.5]];portConstraint=eastwest;top=0;left=0;right=0;bottom=0;" vertex="1" parent="Ljxgw_pO9pq_WJSmn5HZ-90">
          <mxGeometry y="180" width="180" height="30" as="geometry" />
        </mxCell>
        <mxCell id="Ljxgw_pO9pq_WJSmn5HZ-107" value="" style="shape=partialRectangle;connectable=0;fillColor=none;top=0;left=0;bottom=0;right=0;editable=1;overflow=hidden;whiteSpace=wrap;html=1;" vertex="1" parent="Ljxgw_pO9pq_WJSmn5HZ-106">
          <mxGeometry width="30" height="30" as="geometry">
            <mxRectangle width="30" height="30" as="alternateBounds" />
          </mxGeometry>
        </mxCell>
        <mxCell id="Ljxgw_pO9pq_WJSmn5HZ-108" value="fecha_creacion" style="shape=partialRectangle;connectable=0;fillColor=none;top=0;left=0;bottom=0;right=0;align=left;spacingLeft=6;overflow=hidden;whiteSpace=wrap;html=1;" vertex="1" parent="Ljxgw_pO9pq_WJSmn5HZ-106">
          <mxGeometry x="30" width="150" height="30" as="geometry">
            <mxRectangle width="150" height="30" as="alternateBounds" />
          </mxGeometry>
        </mxCell>
        <mxCell id="Ljxgw_pO9pq_WJSmn5HZ-109" value="Partido" style="shape=table;startSize=30;container=1;collapsible=1;childLayout=tableLayout;fixedRows=1;rowLines=0;fontStyle=1;align=center;resizeLast=1;html=1;" vertex="1" parent="1">
          <mxGeometry x="-720" width="180" height="300" as="geometry">
            <mxRectangle x="240" y="30" width="80" height="30" as="alternateBounds" />
          </mxGeometry>
        </mxCell>
        <mxCell id="Ljxgw_pO9pq_WJSmn5HZ-110" value="" style="shape=tableRow;horizontal=0;startSize=0;swimlaneHead=0;swimlaneBody=0;fillColor=none;collapsible=0;dropTarget=0;points=[[0,0.5],[1,0.5]];portConstraint=eastwest;top=0;left=0;right=0;bottom=1;" vertex="1" parent="Ljxgw_pO9pq_WJSmn5HZ-109">
          <mxGeometry y="30" width="180" height="30" as="geometry" />
        </mxCell>
        <mxCell id="Ljxgw_pO9pq_WJSmn5HZ-111" value="PK" style="shape=partialRectangle;connectable=0;fillColor=none;top=0;left=0;bottom=0;right=0;fontStyle=1;overflow=hidden;whiteSpace=wrap;html=1;" vertex="1" parent="Ljxgw_pO9pq_WJSmn5HZ-110">
          <mxGeometry width="30" height="30" as="geometry">
            <mxRectangle width="30" height="30" as="alternateBounds" />
          </mxGeometry>
        </mxCell>
        <mxCell id="Ljxgw_pO9pq_WJSmn5HZ-112" value="id_partido" style="shape=partialRectangle;connectable=0;fillColor=none;top=0;left=0;bottom=0;right=0;align=left;spacingLeft=6;fontStyle=5;overflow=hidden;whiteSpace=wrap;html=1;" vertex="1" parent="Ljxgw_pO9pq_WJSmn5HZ-110">
          <mxGeometry x="30" width="150" height="30" as="geometry">
            <mxRectangle width="150" height="30" as="alternateBounds" />
          </mxGeometry>
        </mxCell>
        <mxCell id="Ljxgw_pO9pq_WJSmn5HZ-113" value="" style="shape=tableRow;horizontal=0;startSize=0;swimlaneHead=0;swimlaneBody=0;fillColor=none;collapsible=0;dropTarget=0;points=[[0,0.5],[1,0.5]];portConstraint=eastwest;top=0;left=0;right=0;bottom=0;" vertex="1" parent="Ljxgw_pO9pq_WJSmn5HZ-109">
          <mxGeometry y="60" width="180" height="30" as="geometry" />
        </mxCell>
        <mxCell id="Ljxgw_pO9pq_WJSmn5HZ-114" value="FK" style="shape=partialRectangle;connectable=0;fillColor=none;top=0;left=0;bottom=0;right=0;editable=1;overflow=hidden;whiteSpace=wrap;html=1;" vertex="1" parent="Ljxgw_pO9pq_WJSmn5HZ-113">
          <mxGeometry width="30" height="30" as="geometry">
            <mxRectangle width="30" height="30" as="alternateBounds" />
          </mxGeometry>
        </mxCell>
        <mxCell id="Ljxgw_pO9pq_WJSmn5HZ-115" value="id_torneo" style="shape=partialRectangle;connectable=0;fillColor=none;top=0;left=0;bottom=0;right=0;align=left;spacingLeft=6;overflow=hidden;whiteSpace=wrap;html=1;" vertex="1" parent="Ljxgw_pO9pq_WJSmn5HZ-113">
          <mxGeometry x="30" width="150" height="30" as="geometry">
            <mxRectangle width="150" height="30" as="alternateBounds" />
          </mxGeometry>
        </mxCell>
        <mxCell id="Ljxgw_pO9pq_WJSmn5HZ-116" value="" style="shape=tableRow;horizontal=0;startSize=0;swimlaneHead=0;swimlaneBody=0;fillColor=none;collapsible=0;dropTarget=0;points=[[0,0.5],[1,0.5]];portConstraint=eastwest;top=0;left=0;right=0;bottom=0;" vertex="1" parent="Ljxgw_pO9pq_WJSmn5HZ-109">
          <mxGeometry y="90" width="180" height="30" as="geometry" />
        </mxCell>
        <mxCell id="Ljxgw_pO9pq_WJSmn5HZ-117" value="" style="shape=partialRectangle;connectable=0;fillColor=none;top=0;left=0;bottom=0;right=0;editable=1;overflow=hidden;whiteSpace=wrap;html=1;" vertex="1" parent="Ljxgw_pO9pq_WJSmn5HZ-116">
          <mxGeometry width="30" height="30" as="geometry">
            <mxRectangle width="30" height="30" as="alternateBounds" />
          </mxGeometry>
        </mxCell>
        <mxCell id="Ljxgw_pO9pq_WJSmn5HZ-118" value="equipo_local" style="shape=partialRectangle;connectable=0;fillColor=none;top=0;left=0;bottom=0;right=0;align=left;spacingLeft=6;overflow=hidden;whiteSpace=wrap;html=1;" vertex="1" parent="Ljxgw_pO9pq_WJSmn5HZ-116">
          <mxGeometry x="30" width="150" height="30" as="geometry">
            <mxRectangle width="150" height="30" as="alternateBounds" />
          </mxGeometry>
        </mxCell>
        <mxCell id="Ljxgw_pO9pq_WJSmn5HZ-119" value="" style="shape=tableRow;horizontal=0;startSize=0;swimlaneHead=0;swimlaneBody=0;fillColor=none;collapsible=0;dropTarget=0;points=[[0,0.5],[1,0.5]];portConstraint=eastwest;top=0;left=0;right=0;bottom=0;" vertex="1" parent="Ljxgw_pO9pq_WJSmn5HZ-109">
          <mxGeometry y="120" width="180" height="30" as="geometry" />
        </mxCell>
        <mxCell id="Ljxgw_pO9pq_WJSmn5HZ-120" value="" style="shape=partialRectangle;connectable=0;fillColor=none;top=0;left=0;bottom=0;right=0;editable=1;overflow=hidden;whiteSpace=wrap;html=1;" vertex="1" parent="Ljxgw_pO9pq_WJSmn5HZ-119">
          <mxGeometry width="30" height="30" as="geometry">
            <mxRectangle width="30" height="30" as="alternateBounds" />
          </mxGeometry>
        </mxCell>
        <mxCell id="Ljxgw_pO9pq_WJSmn5HZ-121" value="equipo_visitante" style="shape=partialRectangle;connectable=0;fillColor=none;top=0;left=0;bottom=0;right=0;align=left;spacingLeft=6;overflow=hidden;whiteSpace=wrap;html=1;" vertex="1" parent="Ljxgw_pO9pq_WJSmn5HZ-119">
          <mxGeometry x="30" width="150" height="30" as="geometry">
            <mxRectangle width="150" height="30" as="alternateBounds" />
          </mxGeometry>
        </mxCell>
        <mxCell id="Ljxgw_pO9pq_WJSmn5HZ-122" value="" style="shape=tableRow;horizontal=0;startSize=0;swimlaneHead=0;swimlaneBody=0;fillColor=none;collapsible=0;dropTarget=0;points=[[0,0.5],[1,0.5]];portConstraint=eastwest;top=0;left=0;right=0;bottom=0;" vertex="1" parent="Ljxgw_pO9pq_WJSmn5HZ-109">
          <mxGeometry y="150" width="180" height="30" as="geometry" />
        </mxCell>
        <mxCell id="Ljxgw_pO9pq_WJSmn5HZ-123" value="" style="shape=partialRectangle;connectable=0;fillColor=none;top=0;left=0;bottom=0;right=0;editable=1;overflow=hidden;whiteSpace=wrap;html=1;" vertex="1" parent="Ljxgw_pO9pq_WJSmn5HZ-122">
          <mxGeometry width="30" height="30" as="geometry">
            <mxRectangle width="30" height="30" as="alternateBounds" />
          </mxGeometry>
        </mxCell>
        <mxCell id="Ljxgw_pO9pq_WJSmn5HZ-124" value="fecha_partido" style="shape=partialRectangle;connectable=0;fillColor=none;top=0;left=0;bottom=0;right=0;align=left;spacingLeft=6;overflow=hidden;whiteSpace=wrap;html=1;" vertex="1" parent="Ljxgw_pO9pq_WJSmn5HZ-122">
          <mxGeometry x="30" width="150" height="30" as="geometry">
            <mxRectangle width="150" height="30" as="alternateBounds" />
          </mxGeometry>
        </mxCell>
        <mxCell id="Ljxgw_pO9pq_WJSmn5HZ-125" value="" style="shape=tableRow;horizontal=0;startSize=0;swimlaneHead=0;swimlaneBody=0;fillColor=none;collapsible=0;dropTarget=0;points=[[0,0.5],[1,0.5]];portConstraint=eastwest;top=0;left=0;right=0;bottom=0;" vertex="1" parent="Ljxgw_pO9pq_WJSmn5HZ-109">
          <mxGeometry y="180" width="180" height="30" as="geometry" />
        </mxCell>
        <mxCell id="Ljxgw_pO9pq_WJSmn5HZ-126" value="" style="shape=partialRectangle;connectable=0;fillColor=none;top=0;left=0;bottom=0;right=0;editable=1;overflow=hidden;whiteSpace=wrap;html=1;" vertex="1" parent="Ljxgw_pO9pq_WJSmn5HZ-125">
          <mxGeometry width="30" height="30" as="geometry">
            <mxRectangle width="30" height="30" as="alternateBounds" />
          </mxGeometry>
        </mxCell>
        <mxCell id="Ljxgw_pO9pq_WJSmn5HZ-127" value="goles_local" style="shape=partialRectangle;connectable=0;fillColor=none;top=0;left=0;bottom=0;right=0;align=left;spacingLeft=6;overflow=hidden;whiteSpace=wrap;html=1;" vertex="1" parent="Ljxgw_pO9pq_WJSmn5HZ-125">
          <mxGeometry x="30" width="150" height="30" as="geometry">
            <mxRectangle width="150" height="30" as="alternateBounds" />
          </mxGeometry>
        </mxCell>
        <mxCell id="Ljxgw_pO9pq_WJSmn5HZ-128" value="" style="shape=tableRow;horizontal=0;startSize=0;swimlaneHead=0;swimlaneBody=0;fillColor=none;collapsible=0;dropTarget=0;points=[[0,0.5],[1,0.5]];portConstraint=eastwest;top=0;left=0;right=0;bottom=0;" vertex="1" parent="Ljxgw_pO9pq_WJSmn5HZ-109">
          <mxGeometry y="210" width="180" height="30" as="geometry" />
        </mxCell>
        <mxCell id="Ljxgw_pO9pq_WJSmn5HZ-129" value="" style="shape=partialRectangle;connectable=0;fillColor=none;top=0;left=0;bottom=0;right=0;editable=1;overflow=hidden;whiteSpace=wrap;html=1;" vertex="1" parent="Ljxgw_pO9pq_WJSmn5HZ-128">
          <mxGeometry width="30" height="30" as="geometry">
            <mxRectangle width="30" height="30" as="alternateBounds" />
          </mxGeometry>
        </mxCell>
        <mxCell id="Ljxgw_pO9pq_WJSmn5HZ-130" value="goles_visitante" style="shape=partialRectangle;connectable=0;fillColor=none;top=0;left=0;bottom=0;right=0;align=left;spacingLeft=6;overflow=hidden;whiteSpace=wrap;html=1;" vertex="1" parent="Ljxgw_pO9pq_WJSmn5HZ-128">
          <mxGeometry x="30" width="150" height="30" as="geometry">
            <mxRectangle width="150" height="30" as="alternateBounds" />
          </mxGeometry>
        </mxCell>
        <mxCell id="Ljxgw_pO9pq_WJSmn5HZ-131" value="" style="shape=tableRow;horizontal=0;startSize=0;swimlaneHead=0;swimlaneBody=0;fillColor=none;collapsible=0;dropTarget=0;points=[[0,0.5],[1,0.5]];portConstraint=eastwest;top=0;left=0;right=0;bottom=0;" vertex="1" parent="Ljxgw_pO9pq_WJSmn5HZ-109">
          <mxGeometry y="240" width="180" height="30" as="geometry" />
        </mxCell>
        <mxCell id="Ljxgw_pO9pq_WJSmn5HZ-132" value="" style="shape=partialRectangle;connectable=0;fillColor=none;top=0;left=0;bottom=0;right=0;editable=1;overflow=hidden;whiteSpace=wrap;html=1;" vertex="1" parent="Ljxgw_pO9pq_WJSmn5HZ-131">
          <mxGeometry width="30" height="30" as="geometry">
            <mxRectangle width="30" height="30" as="alternateBounds" />
          </mxGeometry>
        </mxCell>
        <mxCell id="Ljxgw_pO9pq_WJSmn5HZ-133" value="estado" style="shape=partialRectangle;connectable=0;fillColor=none;top=0;left=0;bottom=0;right=0;align=left;spacingLeft=6;overflow=hidden;whiteSpace=wrap;html=1;" vertex="1" parent="Ljxgw_pO9pq_WJSmn5HZ-131">
          <mxGeometry x="30" width="150" height="30" as="geometry">
            <mxRectangle width="150" height="30" as="alternateBounds" />
          </mxGeometry>
        </mxCell>
        <mxCell id="Ljxgw_pO9pq_WJSmn5HZ-134" value="" style="shape=tableRow;horizontal=0;startSize=0;swimlaneHead=0;swimlaneBody=0;fillColor=none;collapsible=0;dropTarget=0;points=[[0,0.5],[1,0.5]];portConstraint=eastwest;top=0;left=0;right=0;bottom=0;" vertex="1" parent="Ljxgw_pO9pq_WJSmn5HZ-109">
          <mxGeometry y="270" width="180" height="30" as="geometry" />
        </mxCell>
        <mxCell id="Ljxgw_pO9pq_WJSmn5HZ-135" value="" style="shape=partialRectangle;connectable=0;fillColor=none;top=0;left=0;bottom=0;right=0;editable=1;overflow=hidden;whiteSpace=wrap;html=1;" vertex="1" parent="Ljxgw_pO9pq_WJSmn5HZ-134">
          <mxGeometry width="30" height="30" as="geometry">
            <mxRectangle width="30" height="30" as="alternateBounds" />
          </mxGeometry>
        </mxCell>
        <mxCell id="Ljxgw_pO9pq_WJSmn5HZ-136" value="fecha_creacion" style="shape=partialRectangle;connectable=0;fillColor=none;top=0;left=0;bottom=0;right=0;align=left;spacingLeft=6;overflow=hidden;whiteSpace=wrap;html=1;" vertex="1" parent="Ljxgw_pO9pq_WJSmn5HZ-134">
          <mxGeometry x="30" width="150" height="30" as="geometry">
            <mxRectangle width="150" height="30" as="alternateBounds" />
          </mxGeometry>
        </mxCell>
        <mxCell id="Ljxgw_pO9pq_WJSmn5HZ-137" value="colegio" style="shape=table;startSize=30;container=1;collapsible=1;childLayout=tableLayout;fixedRows=1;rowLines=0;fontStyle=1;align=center;resizeLast=1;html=1;" vertex="1" parent="1">
          <mxGeometry x="-720" y="770" width="180" height="210" as="geometry">
            <mxRectangle x="240" y="30" width="80" height="30" as="alternateBounds" />
          </mxGeometry>
        </mxCell>
        <mxCell id="Ljxgw_pO9pq_WJSmn5HZ-138" value="" style="shape=tableRow;horizontal=0;startSize=0;swimlaneHead=0;swimlaneBody=0;fillColor=none;collapsible=0;dropTarget=0;points=[[0,0.5],[1,0.5]];portConstraint=eastwest;top=0;left=0;right=0;bottom=1;" vertex="1" parent="Ljxgw_pO9pq_WJSmn5HZ-137">
          <mxGeometry y="30" width="180" height="30" as="geometry" />
        </mxCell>
        <mxCell id="Ljxgw_pO9pq_WJSmn5HZ-139" value="PK" style="shape=partialRectangle;connectable=0;fillColor=none;top=0;left=0;bottom=0;right=0;fontStyle=1;overflow=hidden;whiteSpace=wrap;html=1;" vertex="1" parent="Ljxgw_pO9pq_WJSmn5HZ-138">
          <mxGeometry width="30" height="30" as="geometry">
            <mxRectangle width="30" height="30" as="alternateBounds" />
          </mxGeometry>
        </mxCell>
        <mxCell id="Ljxgw_pO9pq_WJSmn5HZ-140" value="id_colegio" style="shape=partialRectangle;connectable=0;fillColor=none;top=0;left=0;bottom=0;right=0;align=left;spacingLeft=6;fontStyle=5;overflow=hidden;whiteSpace=wrap;html=1;" vertex="1" parent="Ljxgw_pO9pq_WJSmn5HZ-138">
          <mxGeometry x="30" width="150" height="30" as="geometry">
            <mxRectangle width="150" height="30" as="alternateBounds" />
          </mxGeometry>
        </mxCell>
        <mxCell id="Ljxgw_pO9pq_WJSmn5HZ-141" value="" style="shape=tableRow;horizontal=0;startSize=0;swimlaneHead=0;swimlaneBody=0;fillColor=none;collapsible=0;dropTarget=0;points=[[0,0.5],[1,0.5]];portConstraint=eastwest;top=0;left=0;right=0;bottom=0;" vertex="1" parent="Ljxgw_pO9pq_WJSmn5HZ-137">
          <mxGeometry y="60" width="180" height="30" as="geometry" />
        </mxCell>
        <mxCell id="Ljxgw_pO9pq_WJSmn5HZ-142" value="" style="shape=partialRectangle;connectable=0;fillColor=none;top=0;left=0;bottom=0;right=0;editable=1;overflow=hidden;whiteSpace=wrap;html=1;" vertex="1" parent="Ljxgw_pO9pq_WJSmn5HZ-141">
          <mxGeometry width="30" height="30" as="geometry">
            <mxRectangle width="30" height="30" as="alternateBounds" />
          </mxGeometry>
        </mxCell>
        <mxCell id="Ljxgw_pO9pq_WJSmn5HZ-143" value="nombre" style="shape=partialRectangle;connectable=0;fillColor=none;top=0;left=0;bottom=0;right=0;align=left;spacingLeft=6;overflow=hidden;whiteSpace=wrap;html=1;" vertex="1" parent="Ljxgw_pO9pq_WJSmn5HZ-141">
          <mxGeometry x="30" width="150" height="30" as="geometry">
            <mxRectangle width="150" height="30" as="alternateBounds" />
          </mxGeometry>
        </mxCell>
        <mxCell id="Ljxgw_pO9pq_WJSmn5HZ-144" value="" style="shape=tableRow;horizontal=0;startSize=0;swimlaneHead=0;swimlaneBody=0;fillColor=none;collapsible=0;dropTarget=0;points=[[0,0.5],[1,0.5]];portConstraint=eastwest;top=0;left=0;right=0;bottom=0;" vertex="1" parent="Ljxgw_pO9pq_WJSmn5HZ-137">
          <mxGeometry y="90" width="180" height="30" as="geometry" />
        </mxCell>
        <mxCell id="Ljxgw_pO9pq_WJSmn5HZ-145" value="" style="shape=partialRectangle;connectable=0;fillColor=none;top=0;left=0;bottom=0;right=0;editable=1;overflow=hidden;whiteSpace=wrap;html=1;" vertex="1" parent="Ljxgw_pO9pq_WJSmn5HZ-144">
          <mxGeometry width="30" height="30" as="geometry">
            <mxRectangle width="30" height="30" as="alternateBounds" />
          </mxGeometry>
        </mxCell>
        <mxCell id="Ljxgw_pO9pq_WJSmn5HZ-146" value="direccion" style="shape=partialRectangle;connectable=0;fillColor=none;top=0;left=0;bottom=0;right=0;align=left;spacingLeft=6;overflow=hidden;whiteSpace=wrap;html=1;" vertex="1" parent="Ljxgw_pO9pq_WJSmn5HZ-144">
          <mxGeometry x="30" width="150" height="30" as="geometry">
            <mxRectangle width="150" height="30" as="alternateBounds" />
          </mxGeometry>
        </mxCell>
        <mxCell id="Ljxgw_pO9pq_WJSmn5HZ-147" value="" style="shape=tableRow;horizontal=0;startSize=0;swimlaneHead=0;swimlaneBody=0;fillColor=none;collapsible=0;dropTarget=0;points=[[0,0.5],[1,0.5]];portConstraint=eastwest;top=0;left=0;right=0;bottom=0;" vertex="1" parent="Ljxgw_pO9pq_WJSmn5HZ-137">
          <mxGeometry y="120" width="180" height="30" as="geometry" />
        </mxCell>
        <mxCell id="Ljxgw_pO9pq_WJSmn5HZ-148" value="" style="shape=partialRectangle;connectable=0;fillColor=none;top=0;left=0;bottom=0;right=0;editable=1;overflow=hidden;whiteSpace=wrap;html=1;" vertex="1" parent="Ljxgw_pO9pq_WJSmn5HZ-147">
          <mxGeometry width="30" height="30" as="geometry">
            <mxRectangle width="30" height="30" as="alternateBounds" />
          </mxGeometry>
        </mxCell>
        <mxCell id="Ljxgw_pO9pq_WJSmn5HZ-149" value="telefono" style="shape=partialRectangle;connectable=0;fillColor=none;top=0;left=0;bottom=0;right=0;align=left;spacingLeft=6;overflow=hidden;whiteSpace=wrap;html=1;" vertex="1" parent="Ljxgw_pO9pq_WJSmn5HZ-147">
          <mxGeometry x="30" width="150" height="30" as="geometry">
            <mxRectangle width="150" height="30" as="alternateBounds" />
          </mxGeometry>
        </mxCell>
        <mxCell id="Ljxgw_pO9pq_WJSmn5HZ-150" value="" style="shape=tableRow;horizontal=0;startSize=0;swimlaneHead=0;swimlaneBody=0;fillColor=none;collapsible=0;dropTarget=0;points=[[0,0.5],[1,0.5]];portConstraint=eastwest;top=0;left=0;right=0;bottom=0;" vertex="1" parent="Ljxgw_pO9pq_WJSmn5HZ-137">
          <mxGeometry y="150" width="180" height="30" as="geometry" />
        </mxCell>
        <mxCell id="Ljxgw_pO9pq_WJSmn5HZ-151" value="" style="shape=partialRectangle;connectable=0;fillColor=none;top=0;left=0;bottom=0;right=0;editable=1;overflow=hidden;whiteSpace=wrap;html=1;" vertex="1" parent="Ljxgw_pO9pq_WJSmn5HZ-150">
          <mxGeometry width="30" height="30" as="geometry">
            <mxRectangle width="30" height="30" as="alternateBounds" />
          </mxGeometry>
        </mxCell>
        <mxCell id="Ljxgw_pO9pq_WJSmn5HZ-152" value="email" style="shape=partialRectangle;connectable=0;fillColor=none;top=0;left=0;bottom=0;right=0;align=left;spacingLeft=6;overflow=hidden;whiteSpace=wrap;html=1;" vertex="1" parent="Ljxgw_pO9pq_WJSmn5HZ-150">
          <mxGeometry x="30" width="150" height="30" as="geometry">
            <mxRectangle width="150" height="30" as="alternateBounds" />
          </mxGeometry>
        </mxCell>
        <mxCell id="Ljxgw_pO9pq_WJSmn5HZ-153" value="" style="shape=tableRow;horizontal=0;startSize=0;swimlaneHead=0;swimlaneBody=0;fillColor=none;collapsible=0;dropTarget=0;points=[[0,0.5],[1,0.5]];portConstraint=eastwest;top=0;left=0;right=0;bottom=0;" vertex="1" parent="Ljxgw_pO9pq_WJSmn5HZ-137">
          <mxGeometry y="180" width="180" height="30" as="geometry" />
        </mxCell>
        <mxCell id="Ljxgw_pO9pq_WJSmn5HZ-154" value="" style="shape=partialRectangle;connectable=0;fillColor=none;top=0;left=0;bottom=0;right=0;editable=1;overflow=hidden;whiteSpace=wrap;html=1;" vertex="1" parent="Ljxgw_pO9pq_WJSmn5HZ-153">
          <mxGeometry width="30" height="30" as="geometry">
            <mxRectangle width="30" height="30" as="alternateBounds" />
          </mxGeometry>
        </mxCell>
        <mxCell id="Ljxgw_pO9pq_WJSmn5HZ-155" value="fecha_creacion" style="shape=partialRectangle;connectable=0;fillColor=none;top=0;left=0;bottom=0;right=0;align=left;spacingLeft=6;overflow=hidden;whiteSpace=wrap;html=1;" vertex="1" parent="Ljxgw_pO9pq_WJSmn5HZ-153">
          <mxGeometry x="30" width="150" height="30" as="geometry">
            <mxRectangle width="150" height="30" as="alternateBounds" />
          </mxGeometry>
        </mxCell>
        <mxCell id="Ljxgw_pO9pq_WJSmn5HZ-156" value="role_permiso" style="shape=table;startSize=30;container=1;collapsible=1;childLayout=tableLayout;fixedRows=1;rowLines=0;fontStyle=1;align=center;resizeLast=1;html=1;whiteSpace=wrap;" vertex="1" parent="1">
          <mxGeometry x="910" y="270" width="180" height="130" as="geometry" />
        </mxCell>
        <mxCell id="Ljxgw_pO9pq_WJSmn5HZ-157" value="" style="shape=tableRow;horizontal=0;startSize=0;swimlaneHead=0;swimlaneBody=0;fillColor=none;collapsible=0;dropTarget=0;points=[[0,0.5],[1,0.5]];portConstraint=eastwest;top=0;left=0;right=0;bottom=0;html=1;" vertex="1" parent="Ljxgw_pO9pq_WJSmn5HZ-156">
          <mxGeometry y="30" width="180" height="20" as="geometry" />
        </mxCell>
        <mxCell id="Ljxgw_pO9pq_WJSmn5HZ-158" value="PK,FK1" style="shape=partialRectangle;connectable=0;fillColor=none;top=0;left=0;bottom=0;right=0;fontStyle=1;overflow=hidden;html=1;whiteSpace=wrap;" vertex="1" parent="Ljxgw_pO9pq_WJSmn5HZ-157">
          <mxGeometry width="60" height="20" as="geometry">
            <mxRectangle width="60" height="20" as="alternateBounds" />
          </mxGeometry>
        </mxCell>
        <mxCell id="Ljxgw_pO9pq_WJSmn5HZ-159" value="id_rol" style="shape=partialRectangle;connectable=0;fillColor=none;top=0;left=0;bottom=0;right=0;align=left;spacingLeft=6;fontStyle=5;overflow=hidden;html=1;whiteSpace=wrap;" vertex="1" parent="Ljxgw_pO9pq_WJSmn5HZ-157">
          <mxGeometry x="60" width="120" height="20" as="geometry">
            <mxRectangle width="120" height="20" as="alternateBounds" />
          </mxGeometry>
        </mxCell>
        <mxCell id="Ljxgw_pO9pq_WJSmn5HZ-160" value="" style="shape=tableRow;horizontal=0;startSize=0;swimlaneHead=0;swimlaneBody=0;fillColor=none;collapsible=0;dropTarget=0;points=[[0,0.5],[1,0.5]];portConstraint=eastwest;top=0;left=0;right=0;bottom=1;html=1;" vertex="1" parent="Ljxgw_pO9pq_WJSmn5HZ-156">
          <mxGeometry y="50" width="180" height="30" as="geometry" />
        </mxCell>
        <mxCell id="Ljxgw_pO9pq_WJSmn5HZ-161" value="PK,FK2" style="shape=partialRectangle;connectable=0;fillColor=none;top=0;left=0;bottom=0;right=0;fontStyle=1;overflow=hidden;html=1;whiteSpace=wrap;" vertex="1" parent="Ljxgw_pO9pq_WJSmn5HZ-160">
          <mxGeometry width="60" height="30" as="geometry">
            <mxRectangle width="60" height="30" as="alternateBounds" />
          </mxGeometry>
        </mxCell>
        <mxCell id="Ljxgw_pO9pq_WJSmn5HZ-162" value="id_permiso" style="shape=partialRectangle;connectable=0;fillColor=none;top=0;left=0;bottom=0;right=0;align=left;spacingLeft=6;fontStyle=5;overflow=hidden;html=1;whiteSpace=wrap;" vertex="1" parent="Ljxgw_pO9pq_WJSmn5HZ-160">
          <mxGeometry x="60" width="120" height="30" as="geometry">
            <mxRectangle width="120" height="30" as="alternateBounds" />
          </mxGeometry>
        </mxCell>
        <mxCell id="Ljxgw_pO9pq_WJSmn5HZ-163" value="" style="shape=tableRow;horizontal=0;startSize=0;swimlaneHead=0;swimlaneBody=0;fillColor=none;collapsible=0;dropTarget=0;points=[[0,0.5],[1,0.5]];portConstraint=eastwest;top=0;left=0;right=0;bottom=0;html=1;" vertex="1" parent="Ljxgw_pO9pq_WJSmn5HZ-156">
          <mxGeometry y="80" width="180" height="30" as="geometry" />
        </mxCell>
        <mxCell id="Ljxgw_pO9pq_WJSmn5HZ-164" value="" style="shape=partialRectangle;connectable=0;fillColor=none;top=0;left=0;bottom=0;right=0;editable=1;overflow=hidden;html=1;whiteSpace=wrap;" vertex="1" parent="Ljxgw_pO9pq_WJSmn5HZ-163">
          <mxGeometry width="60" height="30" as="geometry">
            <mxRectangle width="60" height="30" as="alternateBounds" />
          </mxGeometry>
        </mxCell>
        <mxCell id="Ljxgw_pO9pq_WJSmn5HZ-165" value="" style="shape=partialRectangle;connectable=0;fillColor=none;top=0;left=0;bottom=0;right=0;align=left;spacingLeft=6;overflow=hidden;html=1;whiteSpace=wrap;" vertex="1" parent="Ljxgw_pO9pq_WJSmn5HZ-163">
          <mxGeometry x="60" width="120" height="30" as="geometry">
            <mxRectangle width="120" height="30" as="alternateBounds" />
          </mxGeometry>
        </mxCell>
        <mxCell id="Ljxgw_pO9pq_WJSmn5HZ-166" value="" style="shape=tableRow;horizontal=0;startSize=0;swimlaneHead=0;swimlaneBody=0;fillColor=none;collapsible=0;dropTarget=0;points=[[0,0.5],[1,0.5]];portConstraint=eastwest;top=0;left=0;right=0;bottom=0;html=1;" vertex="1" parent="Ljxgw_pO9pq_WJSmn5HZ-156">
          <mxGeometry y="110" width="180" height="20" as="geometry" />
        </mxCell>
        <mxCell id="Ljxgw_pO9pq_WJSmn5HZ-167" value="" style="shape=partialRectangle;connectable=0;fillColor=none;top=0;left=0;bottom=0;right=0;editable=1;overflow=hidden;html=1;whiteSpace=wrap;" vertex="1" parent="Ljxgw_pO9pq_WJSmn5HZ-166">
          <mxGeometry width="60" height="20" as="geometry">
            <mxRectangle width="60" height="20" as="alternateBounds" />
          </mxGeometry>
        </mxCell>
        <mxCell id="Ljxgw_pO9pq_WJSmn5HZ-168" value="" style="shape=partialRectangle;connectable=0;fillColor=none;top=0;left=0;bottom=0;right=0;align=left;spacingLeft=6;overflow=hidden;html=1;whiteSpace=wrap;" vertex="1" parent="Ljxgw_pO9pq_WJSmn5HZ-166">
          <mxGeometry x="60" width="120" height="20" as="geometry">
            <mxRectangle width="120" height="20" as="alternateBounds" />
          </mxGeometry>
        </mxCell>
        <mxCell id="Ljxgw_pO9pq_WJSmn5HZ-169" value="rol" style="shape=table;startSize=30;container=1;collapsible=1;childLayout=tableLayout;fixedRows=1;rowLines=0;fontStyle=1;align=center;resizeLast=1;html=1;" vertex="1" parent="1">
          <mxGeometry x="660" y="150" width="180" height="150" as="geometry">
            <mxRectangle x="240" y="30" width="80" height="30" as="alternateBounds" />
          </mxGeometry>
        </mxCell>
        <mxCell id="Ljxgw_pO9pq_WJSmn5HZ-170" value="" style="shape=tableRow;horizontal=0;startSize=0;swimlaneHead=0;swimlaneBody=0;fillColor=none;collapsible=0;dropTarget=0;points=[[0,0.5],[1,0.5]];portConstraint=eastwest;top=0;left=0;right=0;bottom=1;" vertex="1" parent="Ljxgw_pO9pq_WJSmn5HZ-169">
          <mxGeometry y="30" width="180" height="30" as="geometry" />
        </mxCell>
        <mxCell id="Ljxgw_pO9pq_WJSmn5HZ-171" value="PK" style="shape=partialRectangle;connectable=0;fillColor=none;top=0;left=0;bottom=0;right=0;fontStyle=1;overflow=hidden;whiteSpace=wrap;html=1;" vertex="1" parent="Ljxgw_pO9pq_WJSmn5HZ-170">
          <mxGeometry width="30" height="30" as="geometry">
            <mxRectangle width="30" height="30" as="alternateBounds" />
          </mxGeometry>
        </mxCell>
        <mxCell id="Ljxgw_pO9pq_WJSmn5HZ-172" value="id_rol" style="shape=partialRectangle;connectable=0;fillColor=none;top=0;left=0;bottom=0;right=0;align=left;spacingLeft=6;fontStyle=5;overflow=hidden;whiteSpace=wrap;html=1;" vertex="1" parent="Ljxgw_pO9pq_WJSmn5HZ-170">
          <mxGeometry x="30" width="150" height="30" as="geometry">
            <mxRectangle width="150" height="30" as="alternateBounds" />
          </mxGeometry>
        </mxCell>
        <mxCell id="Ljxgw_pO9pq_WJSmn5HZ-173" value="" style="shape=tableRow;horizontal=0;startSize=0;swimlaneHead=0;swimlaneBody=0;fillColor=none;collapsible=0;dropTarget=0;points=[[0,0.5],[1,0.5]];portConstraint=eastwest;top=0;left=0;right=0;bottom=0;" vertex="1" parent="Ljxgw_pO9pq_WJSmn5HZ-169">
          <mxGeometry y="60" width="180" height="30" as="geometry" />
        </mxCell>
        <mxCell id="Ljxgw_pO9pq_WJSmn5HZ-174" value="" style="shape=partialRectangle;connectable=0;fillColor=none;top=0;left=0;bottom=0;right=0;editable=1;overflow=hidden;whiteSpace=wrap;html=1;" vertex="1" parent="Ljxgw_pO9pq_WJSmn5HZ-173">
          <mxGeometry width="30" height="30" as="geometry">
            <mxRectangle width="30" height="30" as="alternateBounds" />
          </mxGeometry>
        </mxCell>
        <mxCell id="Ljxgw_pO9pq_WJSmn5HZ-175" value="nombre_rol" style="shape=partialRectangle;connectable=0;fillColor=none;top=0;left=0;bottom=0;right=0;align=left;spacingLeft=6;overflow=hidden;whiteSpace=wrap;html=1;" vertex="1" parent="Ljxgw_pO9pq_WJSmn5HZ-173">
          <mxGeometry x="30" width="150" height="30" as="geometry">
            <mxRectangle width="150" height="30" as="alternateBounds" />
          </mxGeometry>
        </mxCell>
        <mxCell id="Ljxgw_pO9pq_WJSmn5HZ-176" value="" style="shape=tableRow;horizontal=0;startSize=0;swimlaneHead=0;swimlaneBody=0;fillColor=none;collapsible=0;dropTarget=0;points=[[0,0.5],[1,0.5]];portConstraint=eastwest;top=0;left=0;right=0;bottom=0;" vertex="1" parent="Ljxgw_pO9pq_WJSmn5HZ-169">
          <mxGeometry y="90" width="180" height="30" as="geometry" />
        </mxCell>
        <mxCell id="Ljxgw_pO9pq_WJSmn5HZ-177" value="" style="shape=partialRectangle;connectable=0;fillColor=none;top=0;left=0;bottom=0;right=0;editable=1;overflow=hidden;whiteSpace=wrap;html=1;" vertex="1" parent="Ljxgw_pO9pq_WJSmn5HZ-176">
          <mxGeometry width="30" height="30" as="geometry">
            <mxRectangle width="30" height="30" as="alternateBounds" />
          </mxGeometry>
        </mxCell>
        <mxCell id="Ljxgw_pO9pq_WJSmn5HZ-178" value="descripcion" style="shape=partialRectangle;connectable=0;fillColor=none;top=0;left=0;bottom=0;right=0;align=left;spacingLeft=6;overflow=hidden;whiteSpace=wrap;html=1;" vertex="1" parent="Ljxgw_pO9pq_WJSmn5HZ-176">
          <mxGeometry x="30" width="150" height="30" as="geometry">
            <mxRectangle width="150" height="30" as="alternateBounds" />
          </mxGeometry>
        </mxCell>
        <mxCell id="Ljxgw_pO9pq_WJSmn5HZ-179" value="" style="shape=tableRow;horizontal=0;startSize=0;swimlaneHead=0;swimlaneBody=0;fillColor=none;collapsible=0;dropTarget=0;points=[[0,0.5],[1,0.5]];portConstraint=eastwest;top=0;left=0;right=0;bottom=0;" vertex="1" parent="Ljxgw_pO9pq_WJSmn5HZ-169">
          <mxGeometry y="120" width="180" height="30" as="geometry" />
        </mxCell>
        <mxCell id="Ljxgw_pO9pq_WJSmn5HZ-180" value="" style="shape=partialRectangle;connectable=0;fillColor=none;top=0;left=0;bottom=0;right=0;editable=1;overflow=hidden;whiteSpace=wrap;html=1;" vertex="1" parent="Ljxgw_pO9pq_WJSmn5HZ-179">
          <mxGeometry width="30" height="30" as="geometry">
            <mxRectangle width="30" height="30" as="alternateBounds" />
          </mxGeometry>
        </mxCell>
        <mxCell id="Ljxgw_pO9pq_WJSmn5HZ-181" value="fecha_creacion" style="shape=partialRectangle;connectable=0;fillColor=none;top=0;left=0;bottom=0;right=0;align=left;spacingLeft=6;overflow=hidden;whiteSpace=wrap;html=1;" vertex="1" parent="Ljxgw_pO9pq_WJSmn5HZ-179">
          <mxGeometry x="30" width="150" height="30" as="geometry">
            <mxRectangle width="150" height="30" as="alternateBounds" />
          </mxGeometry>
        </mxCell>
        <mxCell id="Ljxgw_pO9pq_WJSmn5HZ-182" value="torneo" style="shape=table;startSize=30;container=1;collapsible=1;childLayout=tableLayout;fixedRows=1;rowLines=0;fontStyle=1;align=center;resizeLast=1;html=1;" vertex="1" parent="1">
          <mxGeometry x="-720" y="470" width="180" height="240" as="geometry">
            <mxRectangle x="240" y="30" width="80" height="30" as="alternateBounds" />
          </mxGeometry>
        </mxCell>
        <mxCell id="Ljxgw_pO9pq_WJSmn5HZ-183" value="" style="shape=tableRow;horizontal=0;startSize=0;swimlaneHead=0;swimlaneBody=0;fillColor=none;collapsible=0;dropTarget=0;points=[[0,0.5],[1,0.5]];portConstraint=eastwest;top=0;left=0;right=0;bottom=1;" vertex="1" parent="Ljxgw_pO9pq_WJSmn5HZ-182">
          <mxGeometry y="30" width="180" height="30" as="geometry" />
        </mxCell>
        <mxCell id="Ljxgw_pO9pq_WJSmn5HZ-184" value="PK" style="shape=partialRectangle;connectable=0;fillColor=none;top=0;left=0;bottom=0;right=0;fontStyle=1;overflow=hidden;whiteSpace=wrap;html=1;" vertex="1" parent="Ljxgw_pO9pq_WJSmn5HZ-183">
          <mxGeometry width="30" height="30" as="geometry">
            <mxRectangle width="30" height="30" as="alternateBounds" />
          </mxGeometry>
        </mxCell>
        <mxCell id="Ljxgw_pO9pq_WJSmn5HZ-185" value="id_torneo" style="shape=partialRectangle;connectable=0;fillColor=none;top=0;left=0;bottom=0;right=0;align=left;spacingLeft=6;fontStyle=5;overflow=hidden;whiteSpace=wrap;html=1;" vertex="1" parent="Ljxgw_pO9pq_WJSmn5HZ-183">
          <mxGeometry x="30" width="150" height="30" as="geometry">
            <mxRectangle width="150" height="30" as="alternateBounds" />
          </mxGeometry>
        </mxCell>
        <mxCell id="Ljxgw_pO9pq_WJSmn5HZ-186" value="" style="shape=tableRow;horizontal=0;startSize=0;swimlaneHead=0;swimlaneBody=0;fillColor=none;collapsible=0;dropTarget=0;points=[[0,0.5],[1,0.5]];portConstraint=eastwest;top=0;left=0;right=0;bottom=0;" vertex="1" parent="Ljxgw_pO9pq_WJSmn5HZ-182">
          <mxGeometry y="60" width="180" height="30" as="geometry" />
        </mxCell>
        <mxCell id="Ljxgw_pO9pq_WJSmn5HZ-187" value="" style="shape=partialRectangle;connectable=0;fillColor=none;top=0;left=0;bottom=0;right=0;editable=1;overflow=hidden;whiteSpace=wrap;html=1;" vertex="1" parent="Ljxgw_pO9pq_WJSmn5HZ-186">
          <mxGeometry width="30" height="30" as="geometry">
            <mxRectangle width="30" height="30" as="alternateBounds" />
          </mxGeometry>
        </mxCell>
        <mxCell id="Ljxgw_pO9pq_WJSmn5HZ-188" value="nombre" style="shape=partialRectangle;connectable=0;fillColor=none;top=0;left=0;bottom=0;right=0;align=left;spacingLeft=6;overflow=hidden;whiteSpace=wrap;html=1;" vertex="1" parent="Ljxgw_pO9pq_WJSmn5HZ-186">
          <mxGeometry x="30" width="150" height="30" as="geometry">
            <mxRectangle width="150" height="30" as="alternateBounds" />
          </mxGeometry>
        </mxCell>
        <mxCell id="Ljxgw_pO9pq_WJSmn5HZ-189" value="" style="shape=tableRow;horizontal=0;startSize=0;swimlaneHead=0;swimlaneBody=0;fillColor=none;collapsible=0;dropTarget=0;points=[[0,0.5],[1,0.5]];portConstraint=eastwest;top=0;left=0;right=0;bottom=0;" vertex="1" parent="Ljxgw_pO9pq_WJSmn5HZ-182">
          <mxGeometry y="90" width="180" height="30" as="geometry" />
        </mxCell>
        <mxCell id="Ljxgw_pO9pq_WJSmn5HZ-190" value="FK" style="shape=partialRectangle;connectable=0;fillColor=none;top=0;left=0;bottom=0;right=0;editable=1;overflow=hidden;whiteSpace=wrap;html=1;" vertex="1" parent="Ljxgw_pO9pq_WJSmn5HZ-189">
          <mxGeometry width="30" height="30" as="geometry">
            <mxRectangle width="30" height="30" as="alternateBounds" />
          </mxGeometry>
        </mxCell>
        <mxCell id="Ljxgw_pO9pq_WJSmn5HZ-191" value="id_colegio" style="shape=partialRectangle;connectable=0;fillColor=none;top=0;left=0;bottom=0;right=0;align=left;spacingLeft=6;overflow=hidden;whiteSpace=wrap;html=1;" vertex="1" parent="Ljxgw_pO9pq_WJSmn5HZ-189">
          <mxGeometry x="30" width="150" height="30" as="geometry">
            <mxRectangle width="150" height="30" as="alternateBounds" />
          </mxGeometry>
        </mxCell>
        <mxCell id="Ljxgw_pO9pq_WJSmn5HZ-192" value="" style="shape=tableRow;horizontal=0;startSize=0;swimlaneHead=0;swimlaneBody=0;fillColor=none;collapsible=0;dropTarget=0;points=[[0,0.5],[1,0.5]];portConstraint=eastwest;top=0;left=0;right=0;bottom=0;" vertex="1" parent="Ljxgw_pO9pq_WJSmn5HZ-182">
          <mxGeometry y="120" width="180" height="30" as="geometry" />
        </mxCell>
        <mxCell id="Ljxgw_pO9pq_WJSmn5HZ-193" value="" style="shape=partialRectangle;connectable=0;fillColor=none;top=0;left=0;bottom=0;right=0;editable=1;overflow=hidden;whiteSpace=wrap;html=1;" vertex="1" parent="Ljxgw_pO9pq_WJSmn5HZ-192">
          <mxGeometry width="30" height="30" as="geometry">
            <mxRectangle width="30" height="30" as="alternateBounds" />
          </mxGeometry>
        </mxCell>
        <mxCell id="Ljxgw_pO9pq_WJSmn5HZ-194" value="fecha_inicio" style="shape=partialRectangle;connectable=0;fillColor=none;top=0;left=0;bottom=0;right=0;align=left;spacingLeft=6;overflow=hidden;whiteSpace=wrap;html=1;" vertex="1" parent="Ljxgw_pO9pq_WJSmn5HZ-192">
          <mxGeometry x="30" width="150" height="30" as="geometry">
            <mxRectangle width="150" height="30" as="alternateBounds" />
          </mxGeometry>
        </mxCell>
        <mxCell id="Ljxgw_pO9pq_WJSmn5HZ-195" value="" style="shape=tableRow;horizontal=0;startSize=0;swimlaneHead=0;swimlaneBody=0;fillColor=none;collapsible=0;dropTarget=0;points=[[0,0.5],[1,0.5]];portConstraint=eastwest;top=0;left=0;right=0;bottom=0;" vertex="1" parent="Ljxgw_pO9pq_WJSmn5HZ-182">
          <mxGeometry y="150" width="180" height="30" as="geometry" />
        </mxCell>
        <mxCell id="Ljxgw_pO9pq_WJSmn5HZ-196" value="" style="shape=partialRectangle;connectable=0;fillColor=none;top=0;left=0;bottom=0;right=0;editable=1;overflow=hidden;whiteSpace=wrap;html=1;" vertex="1" parent="Ljxgw_pO9pq_WJSmn5HZ-195">
          <mxGeometry width="30" height="30" as="geometry">
            <mxRectangle width="30" height="30" as="alternateBounds" />
          </mxGeometry>
        </mxCell>
        <mxCell id="Ljxgw_pO9pq_WJSmn5HZ-197" value="fecha_fin" style="shape=partialRectangle;connectable=0;fillColor=none;top=0;left=0;bottom=0;right=0;align=left;spacingLeft=6;overflow=hidden;whiteSpace=wrap;html=1;" vertex="1" parent="Ljxgw_pO9pq_WJSmn5HZ-195">
          <mxGeometry x="30" width="150" height="30" as="geometry">
            <mxRectangle width="150" height="30" as="alternateBounds" />
          </mxGeometry>
        </mxCell>
        <mxCell id="Ljxgw_pO9pq_WJSmn5HZ-198" value="" style="shape=tableRow;horizontal=0;startSize=0;swimlaneHead=0;swimlaneBody=0;fillColor=none;collapsible=0;dropTarget=0;points=[[0,0.5],[1,0.5]];portConstraint=eastwest;top=0;left=0;right=0;bottom=0;" vertex="1" parent="Ljxgw_pO9pq_WJSmn5HZ-182">
          <mxGeometry y="180" width="180" height="30" as="geometry" />
        </mxCell>
        <mxCell id="Ljxgw_pO9pq_WJSmn5HZ-199" value="" style="shape=partialRectangle;connectable=0;fillColor=none;top=0;left=0;bottom=0;right=0;editable=1;overflow=hidden;whiteSpace=wrap;html=1;" vertex="1" parent="Ljxgw_pO9pq_WJSmn5HZ-198">
          <mxGeometry width="30" height="30" as="geometry">
            <mxRectangle width="30" height="30" as="alternateBounds" />
          </mxGeometry>
        </mxCell>
        <mxCell id="Ljxgw_pO9pq_WJSmn5HZ-200" value="estado" style="shape=partialRectangle;connectable=0;fillColor=none;top=0;left=0;bottom=0;right=0;align=left;spacingLeft=6;overflow=hidden;whiteSpace=wrap;html=1;" vertex="1" parent="Ljxgw_pO9pq_WJSmn5HZ-198">
          <mxGeometry x="30" width="150" height="30" as="geometry">
            <mxRectangle width="150" height="30" as="alternateBounds" />
          </mxGeometry>
        </mxCell>
        <mxCell id="Ljxgw_pO9pq_WJSmn5HZ-201" value="" style="shape=tableRow;horizontal=0;startSize=0;swimlaneHead=0;swimlaneBody=0;fillColor=none;collapsible=0;dropTarget=0;points=[[0,0.5],[1,0.5]];portConstraint=eastwest;top=0;left=0;right=0;bottom=0;" vertex="1" parent="Ljxgw_pO9pq_WJSmn5HZ-182">
          <mxGeometry y="210" width="180" height="30" as="geometry" />
        </mxCell>
        <mxCell id="Ljxgw_pO9pq_WJSmn5HZ-202" value="" style="shape=partialRectangle;connectable=0;fillColor=none;top=0;left=0;bottom=0;right=0;editable=1;overflow=hidden;whiteSpace=wrap;html=1;" vertex="1" parent="Ljxgw_pO9pq_WJSmn5HZ-201">
          <mxGeometry width="30" height="30" as="geometry">
            <mxRectangle width="30" height="30" as="alternateBounds" />
          </mxGeometry>
        </mxCell>
        <mxCell id="Ljxgw_pO9pq_WJSmn5HZ-203" value="fecha_creacion" style="shape=partialRectangle;connectable=0;fillColor=none;top=0;left=0;bottom=0;right=0;align=left;spacingLeft=6;overflow=hidden;whiteSpace=wrap;html=1;" vertex="1" parent="Ljxgw_pO9pq_WJSmn5HZ-201">
          <mxGeometry x="30" width="150" height="30" as="geometry">
            <mxRectangle width="150" height="30" as="alternateBounds" />
          </mxGeometry>
        </mxCell>
        <mxCell id="Ljxgw_pO9pq_WJSmn5HZ-204" style="edgeStyle=orthogonalEdgeStyle;rounded=0;orthogonalLoop=1;jettySize=auto;html=1;exitX=1;exitY=0.5;exitDx=0;exitDy=0;entryX=0;entryY=0.5;entryDx=0;entryDy=0;" edge="1" parent="1" source="Ljxgw_pO9pq_WJSmn5HZ-94" target="Ljxgw_pO9pq_WJSmn5HZ-59">
          <mxGeometry relative="1" as="geometry" />
        </mxCell>
        <mxCell id="Ljxgw_pO9pq_WJSmn5HZ-205" style="edgeStyle=orthogonalEdgeStyle;rounded=0;orthogonalLoop=1;jettySize=auto;html=1;exitX=0;exitY=0.5;exitDx=0;exitDy=0;entryX=1;entryY=0.5;entryDx=0;entryDy=0;startArrow=ERmany;startFill=0;" edge="1" parent="1" source="Ljxgw_pO9pq_WJSmn5HZ-97" target="Ljxgw_pO9pq_WJSmn5HZ-219">
          <mxGeometry relative="1" as="geometry">
            <mxPoint x="-300" y="455" as="targetPoint" />
          </mxGeometry>
        </mxCell>
        <mxCell id="Ljxgw_pO9pq_WJSmn5HZ-206" style="edgeStyle=orthogonalEdgeStyle;rounded=0;orthogonalLoop=1;jettySize=auto;html=1;exitX=0;exitY=0.5;exitDx=0;exitDy=0;entryX=1;entryY=0.5;entryDx=0;entryDy=0;" edge="1" parent="1" source="Ljxgw_pO9pq_WJSmn5HZ-46" target="Ljxgw_pO9pq_WJSmn5HZ-59">
          <mxGeometry relative="1" as="geometry" />
        </mxCell>
        <mxCell id="Ljxgw_pO9pq_WJSmn5HZ-207" style="edgeStyle=orthogonalEdgeStyle;rounded=0;orthogonalLoop=1;jettySize=auto;html=1;exitX=1;exitY=0.5;exitDx=0;exitDy=0;entryX=0;entryY=0.5;entryDx=0;entryDy=0;" edge="1" parent="1" source="Ljxgw_pO9pq_WJSmn5HZ-49" target="Ljxgw_pO9pq_WJSmn5HZ-170">
          <mxGeometry relative="1" as="geometry" />
        </mxCell>
        <mxCell id="Ljxgw_pO9pq_WJSmn5HZ-208" style="edgeStyle=orthogonalEdgeStyle;rounded=0;orthogonalLoop=1;jettySize=auto;html=1;exitX=0;exitY=0.5;exitDx=0;exitDy=0;entryX=1;entryY=0.5;entryDx=0;entryDy=0;" edge="1" parent="1" source="Ljxgw_pO9pq_WJSmn5HZ-157" target="Ljxgw_pO9pq_WJSmn5HZ-170">
          <mxGeometry relative="1" as="geometry" />
        </mxCell>
        <mxCell id="Ljxgw_pO9pq_WJSmn5HZ-209" style="edgeStyle=orthogonalEdgeStyle;rounded=0;orthogonalLoop=1;jettySize=auto;html=1;exitX=0;exitY=0.5;exitDx=0;exitDy=0;entryX=1;entryY=0.5;entryDx=0;entryDy=0;" edge="1" parent="1" source="Ljxgw_pO9pq_WJSmn5HZ-33" target="Ljxgw_pO9pq_WJSmn5HZ-59">
          <mxGeometry relative="1" as="geometry" />
        </mxCell>
        <mxCell id="Ljxgw_pO9pq_WJSmn5HZ-210" style="edgeStyle=orthogonalEdgeStyle;rounded=0;orthogonalLoop=1;jettySize=auto;html=1;exitX=1;exitY=0.5;exitDx=0;exitDy=0;entryX=0;entryY=0.5;entryDx=0;entryDy=0;" edge="1" parent="1" source="Ljxgw_pO9pq_WJSmn5HZ-36" target="Ljxgw_pO9pq_WJSmn5HZ-78">
          <mxGeometry relative="1" as="geometry" />
        </mxCell>
        <mxCell id="Ljxgw_pO9pq_WJSmn5HZ-211" style="edgeStyle=orthogonalEdgeStyle;rounded=0;orthogonalLoop=1;jettySize=auto;html=1;exitX=1;exitY=0.5;exitDx=0;exitDy=0;entryX=0;entryY=0.5;entryDx=0;entryDy=0;" edge="1" parent="1" source="Ljxgw_pO9pq_WJSmn5HZ-78" target="Ljxgw_pO9pq_WJSmn5HZ-160">
          <mxGeometry relative="1" as="geometry" />
        </mxCell>
        <mxCell id="Ljxgw_pO9pq_WJSmn5HZ-212" style="edgeStyle=orthogonalEdgeStyle;rounded=0;orthogonalLoop=1;jettySize=auto;html=1;exitX=0;exitY=0.5;exitDx=0;exitDy=0;entryX=1;entryY=0.5;entryDx=0;entryDy=0;startArrow=ERmany;startFill=0;" edge="1" parent="1" source="Ljxgw_pO9pq_WJSmn5HZ-228" target="Ljxgw_pO9pq_WJSmn5HZ-138">
          <mxGeometry relative="1" as="geometry">
            <mxPoint x="-480" y="545" as="sourcePoint" />
          </mxGeometry>
        </mxCell>
        <mxCell id="Ljxgw_pO9pq_WJSmn5HZ-213" style="edgeStyle=orthogonalEdgeStyle;rounded=0;orthogonalLoop=1;jettySize=auto;html=1;exitX=0;exitY=0.5;exitDx=0;exitDy=0;entryX=1;entryY=0.5;entryDx=0;entryDy=0;startArrow=ERmany;startFill=0;" edge="1" parent="1" source="Ljxgw_pO9pq_WJSmn5HZ-225" target="Ljxgw_pO9pq_WJSmn5HZ-183">
          <mxGeometry relative="1" as="geometry">
            <mxPoint x="-480" y="515" as="sourcePoint" />
          </mxGeometry>
        </mxCell>
        <mxCell id="Ljxgw_pO9pq_WJSmn5HZ-214" style="edgeStyle=orthogonalEdgeStyle;rounded=0;orthogonalLoop=1;jettySize=auto;html=1;exitX=0;exitY=0.5;exitDx=0;exitDy=0;entryX=0;entryY=0.5;entryDx=0;entryDy=0;" edge="1" parent="1" source="Ljxgw_pO9pq_WJSmn5HZ-189" target="Ljxgw_pO9pq_WJSmn5HZ-138">
          <mxGeometry relative="1" as="geometry" />
        </mxCell>
        <mxCell id="Ljxgw_pO9pq_WJSmn5HZ-215" style="edgeStyle=orthogonalEdgeStyle;rounded=0;orthogonalLoop=1;jettySize=auto;html=1;exitX=1;exitY=0.5;exitDx=0;exitDy=0;entryX=0;entryY=0.5;entryDx=0;entryDy=0;" edge="1" parent="1" source="Ljxgw_pO9pq_WJSmn5HZ-8" target="Ljxgw_pO9pq_WJSmn5HZ-91">
          <mxGeometry relative="1" as="geometry" />
        </mxCell>
        <mxCell id="Ljxgw_pO9pq_WJSmn5HZ-216" style="edgeStyle=orthogonalEdgeStyle;rounded=0;orthogonalLoop=1;jettySize=auto;html=1;exitX=0;exitY=0.5;exitDx=0;exitDy=0;entryX=1;entryY=0.5;entryDx=0;entryDy=0;" edge="1" parent="1" source="Ljxgw_pO9pq_WJSmn5HZ-11" target="Ljxgw_pO9pq_WJSmn5HZ-110">
          <mxGeometry relative="1" as="geometry" />
        </mxCell>
        <mxCell id="Ljxgw_pO9pq_WJSmn5HZ-217" style="edgeStyle=orthogonalEdgeStyle;rounded=0;orthogonalLoop=1;jettySize=auto;html=1;exitX=0;exitY=0.5;exitDx=0;exitDy=0;entryX=0;entryY=0.5;entryDx=0;entryDy=0;startArrow=ERmany;startFill=0;" edge="1" parent="1" source="Ljxgw_pO9pq_WJSmn5HZ-113" target="Ljxgw_pO9pq_WJSmn5HZ-183">
          <mxGeometry relative="1" as="geometry" />
        </mxCell>
        <mxCell id="Ljxgw_pO9pq_WJSmn5HZ-218" value="equipo" style="shape=table;startSize=30;container=1;collapsible=1;childLayout=tableLayout;fixedRows=1;rowLines=0;fontStyle=1;align=center;resizeLast=1;html=1;" vertex="1" parent="1">
          <mxGeometry x="-460" y="620" width="180" height="210" as="geometry">
            <mxRectangle x="240" y="30" width="80" height="30" as="alternateBounds" />
          </mxGeometry>
        </mxCell>
        <mxCell id="Ljxgw_pO9pq_WJSmn5HZ-219" value="" style="shape=tableRow;horizontal=0;startSize=0;swimlaneHead=0;swimlaneBody=0;fillColor=none;collapsible=0;dropTarget=0;points=[[0,0.5],[1,0.5]];portConstraint=eastwest;top=0;left=0;right=0;bottom=1;" vertex="1" parent="Ljxgw_pO9pq_WJSmn5HZ-218">
          <mxGeometry y="30" width="180" height="30" as="geometry" />
        </mxCell>
        <mxCell id="Ljxgw_pO9pq_WJSmn5HZ-220" value="PK" style="shape=partialRectangle;connectable=0;fillColor=none;top=0;left=0;bottom=0;right=0;fontStyle=1;overflow=hidden;whiteSpace=wrap;html=1;" vertex="1" parent="Ljxgw_pO9pq_WJSmn5HZ-219">
          <mxGeometry width="30" height="30" as="geometry">
            <mxRectangle width="30" height="30" as="alternateBounds" />
          </mxGeometry>
        </mxCell>
        <mxCell id="Ljxgw_pO9pq_WJSmn5HZ-221" value="id_equipo" style="shape=partialRectangle;connectable=0;fillColor=none;top=0;left=0;bottom=0;right=0;align=left;spacingLeft=6;fontStyle=5;overflow=hidden;whiteSpace=wrap;html=1;" vertex="1" parent="Ljxgw_pO9pq_WJSmn5HZ-219">
          <mxGeometry x="30" width="150" height="30" as="geometry">
            <mxRectangle width="150" height="30" as="alternateBounds" />
          </mxGeometry>
        </mxCell>
        <mxCell id="Ljxgw_pO9pq_WJSmn5HZ-222" value="" style="shape=tableRow;horizontal=0;startSize=0;swimlaneHead=0;swimlaneBody=0;fillColor=none;collapsible=0;dropTarget=0;points=[[0,0.5],[1,0.5]];portConstraint=eastwest;top=0;left=0;right=0;bottom=0;" vertex="1" parent="Ljxgw_pO9pq_WJSmn5HZ-218">
          <mxGeometry y="60" width="180" height="30" as="geometry" />
        </mxCell>
        <mxCell id="Ljxgw_pO9pq_WJSmn5HZ-223" value="" style="shape=partialRectangle;connectable=0;fillColor=none;top=0;left=0;bottom=0;right=0;editable=1;overflow=hidden;whiteSpace=wrap;html=1;" vertex="1" parent="Ljxgw_pO9pq_WJSmn5HZ-222">
          <mxGeometry width="30" height="30" as="geometry">
            <mxRectangle width="30" height="30" as="alternateBounds" />
          </mxGeometry>
        </mxCell>
        <mxCell id="Ljxgw_pO9pq_WJSmn5HZ-224" value="nombre" style="shape=partialRectangle;connectable=0;fillColor=none;top=0;left=0;bottom=0;right=0;align=left;spacingLeft=6;overflow=hidden;whiteSpace=wrap;html=1;" vertex="1" parent="Ljxgw_pO9pq_WJSmn5HZ-222">
          <mxGeometry x="30" width="150" height="30" as="geometry">
            <mxRectangle width="150" height="30" as="alternateBounds" />
          </mxGeometry>
        </mxCell>
        <mxCell id="Ljxgw_pO9pq_WJSmn5HZ-225" value="" style="shape=tableRow;horizontal=0;startSize=0;swimlaneHead=0;swimlaneBody=0;fillColor=none;collapsible=0;dropTarget=0;points=[[0,0.5],[1,0.5]];portConstraint=eastwest;top=0;left=0;right=0;bottom=0;" vertex="1" parent="Ljxgw_pO9pq_WJSmn5HZ-218">
          <mxGeometry y="90" width="180" height="30" as="geometry" />
        </mxCell>
        <mxCell id="Ljxgw_pO9pq_WJSmn5HZ-226" value="FK" style="shape=partialRectangle;connectable=0;fillColor=none;top=0;left=0;bottom=0;right=0;editable=1;overflow=hidden;whiteSpace=wrap;html=1;" vertex="1" parent="Ljxgw_pO9pq_WJSmn5HZ-225">
          <mxGeometry width="30" height="30" as="geometry">
            <mxRectangle width="30" height="30" as="alternateBounds" />
          </mxGeometry>
        </mxCell>
        <mxCell id="Ljxgw_pO9pq_WJSmn5HZ-227" value="id_torneo" style="shape=partialRectangle;connectable=0;fillColor=none;top=0;left=0;bottom=0;right=0;align=left;spacingLeft=6;overflow=hidden;whiteSpace=wrap;html=1;" vertex="1" parent="Ljxgw_pO9pq_WJSmn5HZ-225">
          <mxGeometry x="30" width="150" height="30" as="geometry">
            <mxRectangle width="150" height="30" as="alternateBounds" />
          </mxGeometry>
        </mxCell>
        <mxCell id="Ljxgw_pO9pq_WJSmn5HZ-228" value="" style="shape=tableRow;horizontal=0;startSize=0;swimlaneHead=0;swimlaneBody=0;fillColor=none;collapsible=0;dropTarget=0;points=[[0,0.5],[1,0.5]];portConstraint=eastwest;top=0;left=0;right=0;bottom=0;" vertex="1" parent="Ljxgw_pO9pq_WJSmn5HZ-218">
          <mxGeometry y="120" width="180" height="30" as="geometry" />
        </mxCell>
        <mxCell id="Ljxgw_pO9pq_WJSmn5HZ-229" value="FK" style="shape=partialRectangle;connectable=0;fillColor=none;top=0;left=0;bottom=0;right=0;editable=1;overflow=hidden;whiteSpace=wrap;html=1;" vertex="1" parent="Ljxgw_pO9pq_WJSmn5HZ-228">
          <mxGeometry width="30" height="30" as="geometry">
            <mxRectangle width="30" height="30" as="alternateBounds" />
          </mxGeometry>
        </mxCell>
        <mxCell id="Ljxgw_pO9pq_WJSmn5HZ-230" value="id_colegio" style="shape=partialRectangle;connectable=0;fillColor=none;top=0;left=0;bottom=0;right=0;align=left;spacingLeft=6;overflow=hidden;whiteSpace=wrap;html=1;" vertex="1" parent="Ljxgw_pO9pq_WJSmn5HZ-228">
          <mxGeometry x="30" width="150" height="30" as="geometry">
            <mxRectangle width="150" height="30" as="alternateBounds" />
          </mxGeometry>
        </mxCell>
        <mxCell id="Ljxgw_pO9pq_WJSmn5HZ-231" value="" style="shape=tableRow;horizontal=0;startSize=0;swimlaneHead=0;swimlaneBody=0;fillColor=none;collapsible=0;dropTarget=0;points=[[0,0.5],[1,0.5]];portConstraint=eastwest;top=0;left=0;right=0;bottom=0;" vertex="1" parent="Ljxgw_pO9pq_WJSmn5HZ-218">
          <mxGeometry y="150" width="180" height="30" as="geometry" />
        </mxCell>
        <mxCell id="Ljxgw_pO9pq_WJSmn5HZ-232" value="" style="shape=partialRectangle;connectable=0;fillColor=none;top=0;left=0;bottom=0;right=0;editable=1;overflow=hidden;whiteSpace=wrap;html=1;" vertex="1" parent="Ljxgw_pO9pq_WJSmn5HZ-231">
          <mxGeometry width="30" height="30" as="geometry">
            <mxRectangle width="30" height="30" as="alternateBounds" />
          </mxGeometry>
        </mxCell>
        <mxCell id="Ljxgw_pO9pq_WJSmn5HZ-233" value="foto_equipo" style="shape=partialRectangle;connectable=0;fillColor=none;top=0;left=0;bottom=0;right=0;align=left;spacingLeft=6;overflow=hidden;whiteSpace=wrap;html=1;" vertex="1" parent="Ljxgw_pO9pq_WJSmn5HZ-231">
          <mxGeometry x="30" width="150" height="30" as="geometry">
            <mxRectangle width="150" height="30" as="alternateBounds" />
          </mxGeometry>
        </mxCell>
        <mxCell id="Ljxgw_pO9pq_WJSmn5HZ-234" value="" style="shape=tableRow;horizontal=0;startSize=0;swimlaneHead=0;swimlaneBody=0;fillColor=none;collapsible=0;dropTarget=0;points=[[0,0.5],[1,0.5]];portConstraint=eastwest;top=0;left=0;right=0;bottom=0;" vertex="1" parent="Ljxgw_pO9pq_WJSmn5HZ-218">
          <mxGeometry y="180" width="180" height="30" as="geometry" />
        </mxCell>
        <mxCell id="Ljxgw_pO9pq_WJSmn5HZ-235" value="" style="shape=partialRectangle;connectable=0;fillColor=none;top=0;left=0;bottom=0;right=0;editable=1;overflow=hidden;whiteSpace=wrap;html=1;" vertex="1" parent="Ljxgw_pO9pq_WJSmn5HZ-234">
          <mxGeometry width="30" height="30" as="geometry">
            <mxRectangle width="30" height="30" as="alternateBounds" />
          </mxGeometry>
        </mxCell>
        <mxCell id="Ljxgw_pO9pq_WJSmn5HZ-236" value="fecha_creacion" style="shape=partialRectangle;connectable=0;fillColor=none;top=0;left=0;bottom=0;right=0;align=left;spacingLeft=6;overflow=hidden;whiteSpace=wrap;html=1;" vertex="1" parent="Ljxgw_pO9pq_WJSmn5HZ-234">
          <mxGeometry x="30" width="150" height="30" as="geometry">
            <mxRectangle width="150" height="30" as="alternateBounds" />
          </mxGeometry>
        </mxCell>
        <mxCell id="Ljxgw_pO9pq_WJSmn5HZ-237" value="Incidencia" style="shape=table;startSize=30;container=1;collapsible=1;childLayout=tableLayout;fixedRows=1;rowLines=0;fontStyle=1;align=center;resizeLast=1;html=1;" vertex="1" parent="1">
          <mxGeometry x="-330" y="-70" width="180" height="180" as="geometry" />
        </mxCell>
        <mxCell id="Ljxgw_pO9pq_WJSmn5HZ-238" value="" style="shape=tableRow;horizontal=0;startSize=0;swimlaneHead=0;swimlaneBody=0;fillColor=none;collapsible=0;dropTarget=0;points=[[0,0.5],[1,0.5]];portConstraint=eastwest;top=0;left=0;right=0;bottom=1;" vertex="1" parent="Ljxgw_pO9pq_WJSmn5HZ-237">
          <mxGeometry y="30" width="180" height="30" as="geometry" />
        </mxCell>
        <mxCell id="Ljxgw_pO9pq_WJSmn5HZ-239" value="PK" style="shape=partialRectangle;connectable=0;fillColor=none;top=0;left=0;bottom=0;right=0;fontStyle=1;overflow=hidden;whiteSpace=wrap;html=1;" vertex="1" parent="Ljxgw_pO9pq_WJSmn5HZ-238">
          <mxGeometry width="30" height="30" as="geometry">
            <mxRectangle width="30" height="30" as="alternateBounds" />
          </mxGeometry>
        </mxCell>
        <mxCell id="Ljxgw_pO9pq_WJSmn5HZ-240" value="ID_Inferencia" style="shape=partialRectangle;connectable=0;fillColor=none;top=0;left=0;bottom=0;right=0;align=left;spacingLeft=6;fontStyle=5;overflow=hidden;whiteSpace=wrap;html=1;" vertex="1" parent="Ljxgw_pO9pq_WJSmn5HZ-238">
          <mxGeometry x="30" width="150" height="30" as="geometry">
            <mxRectangle width="150" height="30" as="alternateBounds" />
          </mxGeometry>
        </mxCell>
        <mxCell id="Ljxgw_pO9pq_WJSmn5HZ-241" value="" style="shape=tableRow;horizontal=0;startSize=0;swimlaneHead=0;swimlaneBody=0;fillColor=none;collapsible=0;dropTarget=0;points=[[0,0.5],[1,0.5]];portConstraint=eastwest;top=0;left=0;right=0;bottom=0;" vertex="1" parent="Ljxgw_pO9pq_WJSmn5HZ-237">
          <mxGeometry y="60" width="180" height="30" as="geometry" />
        </mxCell>
        <mxCell id="Ljxgw_pO9pq_WJSmn5HZ-242" value="" style="shape=partialRectangle;connectable=0;fillColor=none;top=0;left=0;bottom=0;right=0;editable=1;overflow=hidden;whiteSpace=wrap;html=1;" vertex="1" parent="Ljxgw_pO9pq_WJSmn5HZ-241">
          <mxGeometry width="30" height="30" as="geometry">
            <mxRectangle width="30" height="30" as="alternateBounds" />
          </mxGeometry>
        </mxCell>
        <mxCell id="Ljxgw_pO9pq_WJSmn5HZ-243" value="minuto" style="shape=partialRectangle;connectable=0;fillColor=none;top=0;left=0;bottom=0;right=0;align=left;spacingLeft=6;overflow=hidden;whiteSpace=wrap;html=1;" vertex="1" parent="Ljxgw_pO9pq_WJSmn5HZ-241">
          <mxGeometry x="30" width="150" height="30" as="geometry">
            <mxRectangle width="150" height="30" as="alternateBounds" />
          </mxGeometry>
        </mxCell>
        <mxCell id="Ljxgw_pO9pq_WJSmn5HZ-244" value="" style="shape=tableRow;horizontal=0;startSize=0;swimlaneHead=0;swimlaneBody=0;fillColor=none;collapsible=0;dropTarget=0;points=[[0,0.5],[1,0.5]];portConstraint=eastwest;top=0;left=0;right=0;bottom=0;" vertex="1" parent="Ljxgw_pO9pq_WJSmn5HZ-237">
          <mxGeometry y="90" width="180" height="30" as="geometry" />
        </mxCell>
        <mxCell id="Ljxgw_pO9pq_WJSmn5HZ-245" value="FK" style="shape=partialRectangle;connectable=0;fillColor=none;top=0;left=0;bottom=0;right=0;editable=1;overflow=hidden;whiteSpace=wrap;html=1;" vertex="1" parent="Ljxgw_pO9pq_WJSmn5HZ-244">
          <mxGeometry width="30" height="30" as="geometry">
            <mxRectangle width="30" height="30" as="alternateBounds" />
          </mxGeometry>
        </mxCell>
        <mxCell id="Ljxgw_pO9pq_WJSmn5HZ-246" value="id_partido" style="shape=partialRectangle;connectable=0;fillColor=none;top=0;left=0;bottom=0;right=0;align=left;spacingLeft=6;overflow=hidden;whiteSpace=wrap;html=1;" vertex="1" parent="Ljxgw_pO9pq_WJSmn5HZ-244">
          <mxGeometry x="30" width="150" height="30" as="geometry">
            <mxRectangle width="150" height="30" as="alternateBounds" />
          </mxGeometry>
        </mxCell>
        <mxCell id="Ljxgw_pO9pq_WJSmn5HZ-247" value="" style="shape=tableRow;horizontal=0;startSize=0;swimlaneHead=0;swimlaneBody=0;fillColor=none;collapsible=0;dropTarget=0;points=[[0,0.5],[1,0.5]];portConstraint=eastwest;top=0;left=0;right=0;bottom=0;" vertex="1" parent="Ljxgw_pO9pq_WJSmn5HZ-237">
          <mxGeometry y="120" width="180" height="30" as="geometry" />
        </mxCell>
        <mxCell id="Ljxgw_pO9pq_WJSmn5HZ-248" value="FK" style="shape=partialRectangle;connectable=0;fillColor=none;top=0;left=0;bottom=0;right=0;editable=1;overflow=hidden;whiteSpace=wrap;html=1;" vertex="1" parent="Ljxgw_pO9pq_WJSmn5HZ-247">
          <mxGeometry width="30" height="30" as="geometry">
            <mxRectangle width="30" height="30" as="alternateBounds" />
          </mxGeometry>
        </mxCell>
        <mxCell id="Ljxgw_pO9pq_WJSmn5HZ-249" value="id_tipo_inferencia" style="shape=partialRectangle;connectable=0;fillColor=none;top=0;left=0;bottom=0;right=0;align=left;spacingLeft=6;overflow=hidden;whiteSpace=wrap;html=1;" vertex="1" parent="Ljxgw_pO9pq_WJSmn5HZ-247">
          <mxGeometry x="30" width="150" height="30" as="geometry">
            <mxRectangle width="150" height="30" as="alternateBounds" />
          </mxGeometry>
        </mxCell>
        <mxCell id="Ljxgw_pO9pq_WJSmn5HZ-250" value="" style="shape=tableRow;horizontal=0;startSize=0;swimlaneHead=0;swimlaneBody=0;fillColor=none;collapsible=0;dropTarget=0;points=[[0,0.5],[1,0.5]];portConstraint=eastwest;top=0;left=0;right=0;bottom=0;" vertex="1" parent="Ljxgw_pO9pq_WJSmn5HZ-237">
          <mxGeometry y="150" width="180" height="30" as="geometry" />
        </mxCell>
        <mxCell id="Ljxgw_pO9pq_WJSmn5HZ-251" value="FK" style="shape=partialRectangle;connectable=0;fillColor=none;top=0;left=0;bottom=0;right=0;editable=1;overflow=hidden;whiteSpace=wrap;html=1;" vertex="1" parent="Ljxgw_pO9pq_WJSmn5HZ-250">
          <mxGeometry width="30" height="30" as="geometry">
            <mxRectangle width="30" height="30" as="alternateBounds" />
          </mxGeometry>
        </mxCell>
        <mxCell id="Ljxgw_pO9pq_WJSmn5HZ-252" value="id_jugador" style="shape=partialRectangle;connectable=0;fillColor=none;top=0;left=0;bottom=0;right=0;align=left;spacingLeft=6;overflow=hidden;whiteSpace=wrap;html=1;" vertex="1" parent="Ljxgw_pO9pq_WJSmn5HZ-250">
          <mxGeometry x="30" width="150" height="30" as="geometry">
            <mxRectangle width="150" height="30" as="alternateBounds" />
          </mxGeometry>
        </mxCell>
        <mxCell id="Ljxgw_pO9pq_WJSmn5HZ-253" style="edgeStyle=orthogonalEdgeStyle;rounded=0;orthogonalLoop=1;jettySize=auto;html=1;exitX=0;exitY=0.5;exitDx=0;exitDy=0;entryX=1;entryY=0.5;entryDx=0;entryDy=0;startArrow=ERmany;startFill=0;" edge="1" parent="1" source="Ljxgw_pO9pq_WJSmn5HZ-244" target="Ljxgw_pO9pq_WJSmn5HZ-110">
          <mxGeometry relative="1" as="geometry">
            <mxPoint x="-530" y="50" as="targetPoint" />
          </mxGeometry>
        </mxCell>
        <mxCell id="Ljxgw_pO9pq_WJSmn5HZ-254" value="tipo_inferencia" style="shape=table;startSize=30;container=1;collapsible=1;childLayout=tableLayout;fixedRows=1;rowLines=0;fontStyle=1;align=center;resizeLast=1;html=1;" vertex="1" parent="1">
          <mxGeometry x="-50" y="20" width="180" height="90" as="geometry" />
        </mxCell>
        <mxCell id="Ljxgw_pO9pq_WJSmn5HZ-255" value="" style="shape=tableRow;horizontal=0;startSize=0;swimlaneHead=0;swimlaneBody=0;fillColor=none;collapsible=0;dropTarget=0;points=[[0,0.5],[1,0.5]];portConstraint=eastwest;top=0;left=0;right=0;bottom=1;" vertex="1" parent="Ljxgw_pO9pq_WJSmn5HZ-254">
          <mxGeometry y="30" width="180" height="30" as="geometry" />
        </mxCell>
        <mxCell id="Ljxgw_pO9pq_WJSmn5HZ-256" value="PK" style="shape=partialRectangle;connectable=0;fillColor=none;top=0;left=0;bottom=0;right=0;fontStyle=1;overflow=hidden;whiteSpace=wrap;html=1;" vertex="1" parent="Ljxgw_pO9pq_WJSmn5HZ-255">
          <mxGeometry width="30" height="30" as="geometry">
            <mxRectangle width="30" height="30" as="alternateBounds" />
          </mxGeometry>
        </mxCell>
        <mxCell id="Ljxgw_pO9pq_WJSmn5HZ-257" value="id_tipo_inferencia" style="shape=partialRectangle;connectable=0;fillColor=none;top=0;left=0;bottom=0;right=0;align=left;spacingLeft=6;fontStyle=5;overflow=hidden;whiteSpace=wrap;html=1;" vertex="1" parent="Ljxgw_pO9pq_WJSmn5HZ-255">
          <mxGeometry x="30" width="150" height="30" as="geometry">
            <mxRectangle width="150" height="30" as="alternateBounds" />
          </mxGeometry>
        </mxCell>
        <mxCell id="Ljxgw_pO9pq_WJSmn5HZ-258" value="" style="shape=tableRow;horizontal=0;startSize=0;swimlaneHead=0;swimlaneBody=0;fillColor=none;collapsible=0;dropTarget=0;points=[[0,0.5],[1,0.5]];portConstraint=eastwest;top=0;left=0;right=0;bottom=0;" vertex="1" parent="Ljxgw_pO9pq_WJSmn5HZ-254">
          <mxGeometry y="60" width="180" height="30" as="geometry" />
        </mxCell>
        <mxCell id="Ljxgw_pO9pq_WJSmn5HZ-259" value="" style="shape=partialRectangle;connectable=0;fillColor=none;top=0;left=0;bottom=0;right=0;editable=1;overflow=hidden;whiteSpace=wrap;html=1;" vertex="1" parent="Ljxgw_pO9pq_WJSmn5HZ-258">
          <mxGeometry width="30" height="30" as="geometry">
            <mxRectangle width="30" height="30" as="alternateBounds" />
          </mxGeometry>
        </mxCell>
        <mxCell id="Ljxgw_pO9pq_WJSmn5HZ-260" value="tipo_inferencia" style="shape=partialRectangle;connectable=0;fillColor=none;top=0;left=0;bottom=0;right=0;align=left;spacingLeft=6;overflow=hidden;whiteSpace=wrap;html=1;" vertex="1" parent="Ljxgw_pO9pq_WJSmn5HZ-258">
          <mxGeometry x="30" width="150" height="30" as="geometry">
            <mxRectangle width="150" height="30" as="alternateBounds" />
          </mxGeometry>
        </mxCell>
        <mxCell id="Ljxgw_pO9pq_WJSmn5HZ-261" style="edgeStyle=orthogonalEdgeStyle;rounded=0;orthogonalLoop=1;jettySize=auto;html=1;exitX=1;exitY=0.5;exitDx=0;exitDy=0;entryX=0;entryY=0.157;entryDx=0;entryDy=0;entryPerimeter=0;" edge="1" parent="1" source="Ljxgw_pO9pq_WJSmn5HZ-247" target="Ljxgw_pO9pq_WJSmn5HZ-254">
          <mxGeometry relative="1" as="geometry" />
        </mxCell>
        <mxCell id="Ljxgw_pO9pq_WJSmn5HZ-262" style="edgeStyle=orthogonalEdgeStyle;rounded=0;orthogonalLoop=1;jettySize=auto;html=1;exitX=1;exitY=0.5;exitDx=0;exitDy=0;entryX=0;entryY=0.5;entryDx=0;entryDy=0;startArrow=ERmany;startFill=0;" edge="1" parent="1" source="Ljxgw_pO9pq_WJSmn5HZ-250" target="Ljxgw_pO9pq_WJSmn5HZ-91">
          <mxGeometry relative="1" as="geometry" />
        </mxCell>
      </root>
    </mxGraphModel>
  </diagram>
</mxfile>
